<?xml version="1.0" encoding="UTF-8"?>
<svg width="120px" height="56px" viewBox="0 0 120 56" version="1.1" xmlns="http://www.w3.org/2000/svg" xmlns:xlink="http://www.w3.org/1999/xlink">
    <title>logo/uncolored</title>
    <g id="logo/uncolored" stroke="none" stroke-width="1" fill="none" fill-rule="evenodd">
        <rect x="0" y="0" width="120" height="55"></rect>
        <g id="Group-18"  fill="#FFFFFF">
            <g id="Logotype">
                <g id="Group-2" transform="translate(14.1817, 49.0579)">
                    <path d="M3.40556296,4.40489034 C3.73870725,4.07174604 3.90541129,3.60275906 3.90541129,2.99792939 C3.90541129,2.39283595 3.73870725,1.91936484 3.40556296,1.5780436 C3.07241866,1.23645859 2.60079395,1.06579798 1.9901613,1.06579798 L1.16587315,1.06579798 L1.16587315,4.90473867 L1.9901613,4.90473867 C2.60079395,4.90473867 3.07241866,4.73803463 3.40556296,4.40489034 M3.64295794,0.441449165 C4.10640571,0.680163011 4.46460836,1.02016539 4.71730214,1.46145629 C4.96973214,1.90274719 5.09581525,2.41499281 5.09581525,2.99792939 C5.09581525,3.58086596 4.96973214,4.09021009 4.71730214,4.52596178 C4.46460836,4.96144969 4.10640571,5.29881434 3.64295794,5.53752819 C3.17951018,5.77624204 2.64220619,5.89546707 2.03157353,5.89546707 L0,5.89546707 L0,0.0832465083 L2.03157353,0.0832465083 C2.64220619,0.0832465083 3.17951018,0.202735318 3.64295794,0.441449165 M12.7152183,5.89549345 L13.8810915,5.89549345 L13.8810915,0.0832728855 L12.7152183,0.0832728855 L12.7152183,5.89549345 Z M25.0219854,3.85545283 L24.1810796,1.42400063 L23.3401738,3.85545283 L25.0219854,3.85545283 Z M25.3385121,4.78788758 L23.023911,4.78788758 L22.6409137,5.89546707 L21.4167469,5.89546707 L23.5066141,0.0750695699 L24.8639859,0.0750695699 L26.9541168,5.89546707 L25.7215093,5.89546707 L25.3385121,4.78788758 Z M40.818195,0.0832992628 L40.818195,5.89551983 L39.6525856,5.89551983 L39.6525856,2.11513657 L38.0955383,5.89551983 L37.2126927,5.89551983 L35.6472047,2.11513657 L35.6472047,5.89551983 L34.4815953,5.89551983 L34.4815953,0.0832992628 L35.805468,0.0832992628 L37.6539836,4.40494309 L39.502763,0.0832992628 L40.818195,0.0832992628 Z M52.3342785,4.67562613 C52.6006884,4.51736281 52.8088047,4.29131002 52.9586273,3.99720401 C53.1087137,3.70283423 53.183625,3.361513 53.183625,2.97297654 C53.183625,2.58417631 53.1087137,2.24417393 52.9586273,1.95270564 C52.8088047,1.66123736 52.6006884,1.43808607 52.3342785,1.28246047 C52.0676048,1.12709864 51.7595189,1.04928584 51.4100207,1.04928584 C51.059995,1.04928584 50.7505902,1.12709864 50.4815425,1.28246047 C50.2122311,1.43808607 50.0025322,1.66123736 49.8529734,1.95270564 C49.702887,2.24417393 49.6279757,2.58417631 49.6279757,2.97297654 C49.6279757,3.361513 49.702887,3.70283423 49.8529734,3.99720401 C50.0025322,4.29131002 50.2122311,4.51736281 50.4815425,4.67562613 C50.7505902,4.83415323 51.059995,4.91302111 51.4100207,4.91302111 C51.7595189,4.91302111 52.0676048,4.83415323 52.3342785,4.67562613 M49.9110033,5.570869 C49.4559962,5.3155375 49.0951558,4.9615552 48.8284821,4.50918587 C48.5620722,4.05681653 48.4288672,3.54457091 48.4288672,2.97297654 C48.4288672,2.40639384 48.5620722,1.89731348 48.8284821,1.44494415 C49.0951558,0.992574812 49.4559962,0.638592512 49.9110033,0.383261016 C50.3660103,0.12792952 50.8658586,0 51.4100207,0 C51.9594582,0 52.4606254,0.12792952 52.912731,0.383261016 C53.3651003,0.638592512 53.723303,0.992574812 53.9870752,1.44494415 C54.2508474,1.89731348 54.3827335,2.40639384 54.3827335,2.97297654 C54.3827335,3.54457091 54.2508474,4.05681653 53.9870752,4.50918587 C53.723303,4.9615552 53.3637814,5.3155375 52.9087744,5.570869 C52.4532398,5.82593672 51.953919,5.95386624 51.4100207,5.95386624 C50.8658586,5.95386624 50.3660103,5.82593672 49.9110033,5.570869 M66.9643512,5.89557258 L65.798478,5.89557258 L63.1589096,1.90707305 L63.1589096,5.89557258 L61.9930364,5.89557258 L61.9930364,0.0751750788 L63.1589096,0.0751750788 L65.798478,4.07185155 L65.798478,0.0751750788 L66.9643512,0.0751750788 L66.9643512,5.89557258 Z M78.2637986,4.40489034 C78.5969429,4.07174604 78.7633831,3.60275906 78.7633831,2.99792939 C78.7633831,2.39283595 78.5969429,1.91936484 78.2637986,1.5780436 C77.9306543,1.23645859 77.4587658,1.06579798 76.8481332,1.06579798 L76.0241088,1.06579798 L76.0241088,4.90473867 L76.8481332,4.90473867 C77.4587658,4.90473867 77.9306543,4.73803463 78.2637986,4.40489034 M78.5011936,0.441449165 C78.9643776,0.680163011 79.3225802,1.02016539 79.575274,1.46145629 C79.8279678,1.90274719 79.9540509,2.41499281 79.9540509,2.99792939 C79.9540509,3.58086596 79.8279678,4.09021009 79.575274,4.52596178 C79.3225802,4.96144969 78.9643776,5.29881434 78.5011936,5.53752819 C78.0377458,5.77624204 77.5004418,5.89546707 76.8898092,5.89546707 L74.8582356,5.89546707 L74.8582356,0.0832465083 L76.8898092,0.0832465083 C77.5004418,0.0832465083 78.0377458,0.202735318 78.5011936,0.441449165 M88.4849716,5.74564446 C88.1605318,5.60690028 87.9036176,5.40722472 87.7147567,5.14635401 C87.5258958,4.88521952 87.4288277,4.57686982 87.4232884,4.2220962 L88.6722498,4.2220962 C88.6888675,4.46054627 88.7738021,4.64940717 88.9262625,4.78788758 C89.0789866,4.92689553 89.2884217,4.99626762 89.5550954,4.99626762 C89.8270446,4.99626762 90.0407001,4.93085212 90.1960619,4.80054865 C90.3516875,4.67024518 90.4292365,4.49932079 90.4292365,4.28856679 C90.4292365,4.11632354 90.3767458,3.97494164 90.271237,3.86362977 C90.1657281,3.75284544 90.033842,3.66527307 89.8755787,3.6014402 C89.7175791,3.53787109 89.4997033,3.46691637 89.2219511,3.38910357 C88.8442293,3.27831924 88.537726,3.16832623 88.3019137,3.06017963 C88.0658375,2.95176925 87.8632605,2.78823048 87.6939187,2.56877201 C87.524577,2.34957731 87.4399061,2.05705393 87.4399061,1.69041056 C87.4399061,1.34618783 87.5258958,1.04680638 87.6981391,0.79121111 C87.8701186,0.535879614 88.1114701,0.340160637 88.4227213,0.204054179 C88.7331812,0.0682114926 89.0887462,0.000158263324 89.4886248,0.000158263324 C90.0879153,0.000158263324 90.5751025,0.145760521 90.9499228,0.437228809 C91.3247432,0.728433325 91.5312768,1.13543384 91.5700513,1.65717526 L90.2878546,1.65717526 C90.2765124,1.45723593 90.1921053,1.29211453 90.033842,1.16181106 C89.8755787,1.03124382 89.6661435,0.966092083 89.405009,0.966092083 C89.1773736,0.966092083 88.9958983,1.02438574 88.8597919,1.14097306 C88.7234217,1.2572966 88.6556322,1.42690213 88.6556322,1.64873455 C88.6556322,1.80436015 88.7070678,1.93334476 88.8096752,2.03621592 C88.9125463,2.13882331 89.0399483,2.22217533 89.1929362,2.28574443 C89.3453965,2.34957731 89.5603709,2.42316975 89.838123,2.50652177 C90.2158448,2.61783364 90.523667,2.72861797 90.7623808,2.83940229 C91.0010947,2.95071416 91.2063094,3.11715443 91.3788165,3.33925062 C91.5507959,3.56134682 91.6367857,3.85255134 91.6367857,4.21339171 C91.6367857,4.52437915 91.5563351,4.81320971 91.3951703,5.07961964 C91.2342693,5.3457658 90.9981932,5.55836619 90.6877333,5.71662952 C90.3767458,5.87462907 90.007201,5.95376073 89.57989,5.95376073 C89.1744721,5.95376073 88.8096752,5.88438864 88.4849716,5.74564446" id="Combined-Shape"></path>
                </g>
                <g id="Group">
                    <path d="M108.123182,31.4805534 C111.966079,33.0415573 115.503792,34.6679767 115.776796,37.7301083 L120.000053,37.7301083 C119.911689,37.717711 119.823853,37.7032035 119.735225,37.6929164 C119.743402,37.5401923 119.74815,37.3861493 119.74815,37.2302599 C119.74815,31.8553737 114.436042,29.4806325 109.685768,27.5429619 C105.810954,25.9803753 102.061169,24.4183163 102.061169,21.418435 C102.061169,17.2933015 104.81073,15.6056869 108.9356,15.6056869 C114.060694,15.6056869 116.518787,19.8331641 116.748005,23.7306622 L116.873033,25.8556111 L117.810743,25.8556111 L117.310631,15.0435884 C116.623241,15.2308666 116.060615,15.2931169 115.560503,15.2931169 C114.185458,15.2931169 112.623399,14.6057265 108.9356,14.6057265 C102.873323,14.6057265 98.4361473,17.4811073 98.4361473,22.5431597 C98.4361473,27.4184614 103.560714,29.6056606 108.123182,31.4805534 M84.7301478,15.6057924 C89.26914,15.6057924 92.480039,19.1682999 92.480039,24.9807842 C92.480039,25.6056606 92.1046912,25.9179668 91.6045791,25.9179668 L76.720441,26.2933147 C77.9021405,19.7433233 80.5356422,15.6057924 84.7301478,15.6057924 L84.7301478,15.6057924 Z M77.9179668,37.7302138 C76.9108846,35.6250478 76.3614471,33.1558762 76.3614471,30.4804347 C76.3614471,29.3467418 76.4329293,28.2618467 76.5714097,27.2304973 L95.042586,27.2304973 C96.1047967,27.2304973 96.7921871,26.3555649 96.7921871,25.0430344 C96.7921871,18.667924 91.7301347,14.605832 84.9799401,14.605832 C76.2300885,14.605832 71.9240072,21.6058188 71.9240072,30.2303786 C71.9240072,33.0239901 72.4702795,35.5522467 73.4794719,37.7302138 L77.9179668,37.7302138 Z M13.232924,26.2496868 C2.65011936,26.124395 0.864117748,34.0016881 0,37.6865859 L4.1757778,37.6865859 C4.97316118,32.070348 4.91513129,27.0177914 13.4827163,27.1868694 L17.6081136,27.1868694 L17.6081136,33.9368002 C17.6081136,35.3361117 17.4535431,36.5800615 17.1844955,37.6865859 L18.1702122,37.6865859 L18.6700605,37.6865859 L21.7952336,37.6865859 L21.7952336,23.0619997 C21.7952336,17.5620854 18.1076982,14.5619403 11.3580312,14.5619403 C8.35129182,14.5619403 5.98314496,15.1873442 4.29579415,15.1873442 C3.79568205,15.1873442 3.22936312,15.1084763 2.79572161,14.9998022 L2.23335927,25.8120887 L3.17080569,25.8120887 L3.42059797,22.6871794 C3.67065402,18.6245598 6.29571502,15.5621645 11.4202814,15.5621645 C15.420387,15.5621645 17.6081136,17.8746554 17.6081136,22.3746093 L17.6081136,26.2496868 L13.232924,26.2496868 Z M34.3171597,14.5619403 C38.0049589,14.5619403 39.5670179,15.2495945 40.9420624,15.2495945 C41.4421745,15.2495945 42.0048007,15.1873442 42.692191,14.9998022 L43.1925669,25.8120887 L42.2545929,25.8120887 L42.1295649,23.6871398 C41.9003469,19.7896417 39.4422537,15.5621645 34.3171597,15.5621645 C30.1922899,15.5621645 27.4427285,17.2495153 27.4427285,21.3749126 C27.4427285,24.2352646 30.8518089,25.7884346 34.5278323,27.2812628 L35.0673279,27.4994395 C35.3264337,27.6051306 35.5872111,27.7121221 35.8487068,27.8208299 L36.3723736,28.0406572 C40.7395377,29.8936758 45.12971,32.3004773 45.12971,37.1867375 C45.12971,37.3555517 45.121533,37.5214645 45.1120372,37.6865859 L41.166005,37.6865859 C40.895111,34.6226079 37.3489574,32.9985624 33.5050051,31.437031 C28.9422735,29.5621381 23.817707,27.3746752 23.817707,22.4993735 C23.817707,17.4373211 28.2551469,14.5619403 34.3171597,14.5619403 Z M51.2314997,0 L51.2314997,11.7499967 C51.2314997,16.7500626 50.356831,24.7497461 50.294317,25.2495945 L50.6691373,25.2495945 C50.7939016,24.312148 51.1689857,22.7498253 51.4815557,21.8746291 C52.9816283,17.4371892 56.731414,14.5620722 61.0440895,14.5620722 C66.6687681,14.5620722 69.7936774,17.6872453 69.7936774,22.4369914 L69.7936774,37.2491197 C69.7936774,37.40158 69.7944687,37.5400604 69.7944687,37.6867178 L65.7305303,37.6867178 C65.7307941,37.5408517 65.7313216,37.4010525 65.7313216,37.2491197 L65.7313216,23.8745499 C65.7313216,18.7499835 64.2312491,15.9996307 60.6062277,15.9996307 C55.2941192,15.9996307 51.2314997,20.8121546 51.2314997,28.1869617 L51.2316975,37.4700948 L51.232291,37.6867178 L47.1686164,37.6867178 C47.1688802,37.5424344 47.1691439,37.399206 47.1691439,37.2491197 L47.1691439,10.1874102 C47.1691439,4.06261952 46.9818657,3.43774317 45.6068211,3.43774317 L43.1693022,3.43774317 L43.1693022,3.00014507 L46.1689197,3.00014507 C48.2943962,3.00014507 50.7939016,2.31275471 50.7939016,0.187805811 L50.7939016,0 L51.2314997,0 Z" id="Combined-Shape"></path>
                </g>
            </g>
        </g>
    </g>
</svg>