<?xml version="1.0" encoding="UTF-8"?>
<svg width="143px" height="218px" viewBox="0 0 143 218" version="1.1" xmlns="http://www.w3.org/2000/svg" xmlns:xlink="http://www.w3.org/1999/xlink">
    <title>person</title>
    <g id="UI" stroke="none" stroke-width="1" fill="none" fill-rule="evenodd">
        <g id="get-started" transform="translate(-274, -550)">
            <g id="Group-7" transform="translate(120, 394)">
                <g id="Group-5" transform="translate(88, 114)">
                    <g id="Group-11" transform="translate(19, 18)">
                        <g id="Group-31" transform="translate(48, 24)">
                            <path d="M91.3103182,122.438569 C91.1159091,125.943145 81.8814773,128.765262 70.5,128.765262 C59.1174545,128.765262 49.8830227,125.943145 49.6886136,122.438569 C21.5697955,126.648138 0,151.00097 0,180.418589 L0,203.342121 C19.2043011,212.447374 42.4516129,217 69.7419355,217 C97.0322581,217 120.784946,212.447374 141,203.342121 L141,180.418589 C141,151.00097 119.429136,126.648138 91.3103182,122.438569 Z" id="Stroke-15" fill="#FFFFFF"></path>
                            <path d="M38.0164841,58.0263758 C34.9390523,58.497444 32.5794386,61.1596769 32.5794386,64.383114 C32.5794386,67.9381231 35.448575,70.821404 38.9885295,70.821404 C39.3474386,70.821404 39.6978023,70.7838473 40.0417568,70.7269757 C44.707575,87.7154768 56.5814841,99.7937087 70.4998932,99.7937087 C84.4172341,99.7937087 96.2954159,87.7219151 100.96337,70.7355601 C101.305189,70.7913586 101.654484,70.821404 102.011257,70.821404 C105.550143,70.821404 108.420348,67.9381231 108.420348,64.383114 C108.420348,61.162896 106.067143,58.4952979 102.993984,58.0199375 L105.75,32.1914497 C105.75,32.1914497 102.545455,19.3148698 102.545455,19.3148698 C102.545455,19.3148698 88.3030303,17.1687732 59.8181818,12.8765799 L48.0681818,21.4609665 L37.3863636,38.6297397 C37.3863636,48.6448573 37.3863636,53.6524162 37.3863636,53.6524162 C37.3863636,53.6524162 37.5964038,55.1104027 38.0164841,58.0263758 Z" id="Stroke-1-Copy" fill="#FFFFFF"></path>
                            <path d="M74.2382091,62.2368028 C74.2382091,64.0073325 72.7961636,65.4559477 71.0336636,65.4559477 C69.2711636,65.4559477 67.8291182,64.0073325 67.8291182,62.2368028 L67.8291182,44.5315054 L67.8291182,43.9949813 C67.8291182,40.4399722 63.5254136,37.5566913 58.2154818,37.5566913 C53.7365955,37.5566913 49.9733909,39.6083597 48.9052091,42.3843357" id="Stroke-3" stroke="#000000"></path>
                            <path d="M92.0937227,42.3843357 C91.0266091,39.6083597 87.2634045,37.5566913 82.78345,37.5566913 C78.3045636,37.5566913 74.5402909,39.6083597 73.4731773,42.3843357" id="Stroke-5" stroke="#000000"></path>
                            <path d="M62.2931591,74.5790046 C63.8131818,76.7937763 67.1555227,78.3325276 71.0340909,78.3325276 C74.9126591,78.3325276 78.255,76.7937763 79.7739545,74.5790046" id="Stroke-7" stroke="#000000"></path>
                            <path d="M59.2836636,53.6524162 C59.2836636,55.4304573 58.3265727,56.8715612 57.1473,56.8715612 C55.9680273,56.8715612 55.0109364,55.4304573 55.0109364,53.6524162 C55.0109364,51.8743751 55.9680273,50.4332712 57.1473,50.4332712 C58.3265727,50.4332712 59.2836636,51.8743751 59.2836636,53.6524162" id="Fill-9" fill="#000000"></path>
                            <path d="M85.4541182,54.1889403 C85.4541182,55.9669814 84.4970273,57.4080853 83.3177545,57.4080853 C82.1384818,57.4080853 81.1813909,55.9669814 81.1813909,54.1889403 C81.1813909,52.4108993 82.1384818,50.9697954 83.3177545,50.9697954 C84.4970273,50.9697954 85.4541182,52.4108993 85.4541182,54.1889403" id="Fill-11" fill="#000000"></path>
                            <path d="M42.1927545,50.4332712 C42.1927545,54.7254645 41.2068227,56.623687 37.9862545,57.4080853 C35.7836636,57.9446095 30.2002773,55.7759788 31.0623,42.3843357 C31.5109364,35.4105947 34.7154818,37.5566913 34.7154818,31.1184014 C34.7154818,27.8992564 31.5109364,27.8992564 31.5109364,23.6070631 C31.5109364,19.3148698 34.7154818,17.1687732 37.9200273,17.1687732 C41.1245727,17.1687732 44.3291182,21.4609665 46.4654818,19.3148698 C48.6018455,17.1687732 44.3291182,15.0226765 45.3973,8.58438659 C46.4654818,2.14609665 49.6700273,0 53.9427545,0 C58.2154818,0 65.6927545,8.58438659 73.1700273,8.58438659 C80.6473,8.58438659 81.7154818,4.29219329 94.5336636,4.29219329 C107.351845,4.29219329 111.624573,10.7304832 111.624573,18.2418215 C111.624573,25.7531598 109.488209,24.6801114 109.488209,28.9723047 C109.488209,33.264498 115.8973,37.5566913 115.8973,42.9219329 C115.8973,48.2871746 111.402391,57.8136976 106.172573,59.488726 C106.172573,59.488726 99.8745727,60.0907061 99.8745727,54.7254645 C99.8745727,51.5063195 100.942755,45.0680296 100.942755,45.0680296 C100.942755,45.0680296 96.6700273,41.8488846 95.6018455,35.4105947 C94.7067091,30.0131616 97.7382091,25.7531598 97.7382091,25.7531598 C97.7382091,25.7531598 93.4654818,28.9723047 82.7836636,27.8992564 C72.1018455,26.8262081 58.2154818,16.0957249 58.2154818,16.0957249 C58.2154818,16.0957249 53.8017545,19.2730209 50.7382091,30.0453531 C48.6018455,37.5566913 40.0563909,35.4105947 41.1245727,41.8488846 C42.1927545,48.2871746 42.1927545,50.4332712 42.1927545,50.4332712" id="Fill-13" fill="#000000"></path>
                            <rect id="Rectangle" fill="#FFFFFF" x="49.1363636" y="87.9899625" width="42.7272727" height="42.9219329"></rect>
                            <path d="M49.6700273,89.3726926 L49.6700273,122.32708 C49.6700273,122.365709 49.68605,122.402193 49.6881864,122.438677" id="Stroke-17" stroke="#000000"></path>
                            <path d="M91.3103182,122.438569 C91.3124545,122.402086 91.3295455,122.365602 91.3295455,122.326972 L91.3295455,89.3800966" id="Stroke-19" stroke="#000000"></path>
                            <path d="M69.9654818,99.7934941 C62.0502545,99.7934941 54.7973,97.9381936 49.1540955,94.8521066 L49.1359364,94.4282525 L49.1359364,90.6725834 L49.1359364,89.3731218 C54.7812773,95.8800869 62.0427773,99.7934941 69.9654818,99.7934941" id="Fill-21" fill="#000000"></path>
                            <path d="M62.7901841,66.5289961 C62.7901841,68.6031985 59.7330477,70.2846652 55.9623659,70.2846652 C52.1927523,70.2846652 49.1356159,68.6031985 49.1356159,66.5289961 C49.1356159,64.4547937 52.1927523,62.7733269 55.9623659,62.7733269 C59.7330477,62.7733269 62.7901841,64.4547937 62.7901841,66.5289961" id="Fill-23" fill-opacity="0.25" fill="#FF0000"></path>
                            <path d="M93.9995727,66.5289961 C93.9995727,68.6031985 90.9435045,70.2846652 87.1717545,70.2846652 C83.4021409,70.2846652 80.3460727,68.6031985 80.3460727,66.5289961 C80.3460727,64.4547937 83.4021409,62.7733269 87.1717545,62.7733269 C90.9435045,62.7733269 93.9995727,64.4547937 93.9995727,66.5289961" id="Fill-25" fill-opacity="0.25" fill="#FF0000"></path>
                            <line x1="30.4427545" y1="181.329151" x2="30.4427545" y2="212.447552" id="Stroke-27" stroke="#000000"></line>
                            <line x1="110.556391" y1="212.447552" x2="110.556391" y2="181.329151" id="Stroke-29" stroke="#000000"></line>
                            <path d="M91.3103182,122.438569 C91.1159091,125.943145 81.8814773,128.765262 70.5,128.765262 C59.1174545,128.765262 49.8830227,125.943145 49.6886136,122.438569 C21.5697955,126.648138 0,151.00097 0,180.418589 L0,203.342121 C19.2043011,212.447374 42.4516129,217 69.7419355,217 C97.0322581,217 120.784946,212.447374 141,203.342121 L141,180.418589 C141,151.00097 119.429136,126.648138 91.3103182,122.438569 Z" id="Stroke-15-Copy" stroke="#000000"></path>
                            <path d="M38.0164841,58.0263758 C34.9390523,58.497444 32.5794386,61.1596769 32.5794386,64.383114 C32.5794386,67.9381231 35.448575,70.821404 38.9885295,70.821404 C39.3474386,70.821404 39.6978023,70.7838473 40.0417568,70.7269757 C44.707575,87.7154768 56.5814841,99.7937087 70.4998932,99.7937087 C84.4172341,99.7937087 96.2954159,87.7219151 100.96337,70.7355601 C101.305189,70.7913586 101.654484,70.821404 102.011257,70.821404 C105.550143,70.821404 108.420348,67.9381231 108.420348,64.383114 C108.420348,61.162896 106.067143,58.4952979 102.993984,58.0199375" id="Stroke-1" stroke="#000000"></path>
                        </g>
                    </g>
                </g>
            </g>
        </g>
    </g>
</svg>