<?xml version="1.0" encoding="UTF-8"?>
<svg width="174px" height="153px" viewBox="0 0 174 153" version="1.1" xmlns="http://www.w3.org/2000/svg" xmlns:xlink="http://www.w3.org/1999/xlink">
    <title>icon/benefits/personal</title>
    <defs>
        <linearGradient x1="98.7907356%" y1="50%" x2="0%" y2="50%" id="linearGradient-1">
            <stop stop-color="#5F298A" offset="0%"></stop>
            <stop stop-color="#D197FF" offset="51.7773288%"></stop>
            <stop stop-color="#5F298A" offset="100%"></stop>
        </linearGradient>
    </defs>
    <g id="icon/benefits/personal" stroke="none" stroke-width="1" fill="none" fill-rule="evenodd">
        <g id="Group-35" transform="translate(11, 26)">
            <polygon id="Stroke-27" fill="url(#linearGradient-1)" points="98.6667452 24 53.3332548 24 42 38.0575478 76.0002356 78 110 38.0575478"></polygon>
            <g id="Group-2" stroke="#5F298A" stroke-width="2">
                <path d="M22.4250463,126 C22.4250463,126 29.161797,104.408102 14.7694792,88.9119893 C0.377161371,73.4158766 -3.84512912,52.2664298 3.64354903,27.7528529 C7.05874601,16.5752136 10.6667924,5.72131898 13.4937059,1.13024309 C14.8209366,-1.02477086 18.6510381,-0.496926162 18.5833553,6.24024896 C18.5230899,12.292399 15.8459129,22.4715907 12.0000497,40.9278565" id="Stroke-1"></path>
                <path d="M18.3008775,8.99455396 C18.3008775,8.99455396 20.9537584,-3.16374777 24.4401348,0.791194592 C27.5539392,4.32357061 26.6124586,16.3481371 16,43" id="Stroke-3"></path>
                <path d="M25.9061279,10.9944571 C27.2387942,4.04891396 34.3675826,6.1007642 31.193549,17.6223363 C28.0195153,29.1439084 21,48 21,48" id="Stroke-5"></path>
                <path d="M30.0842676,20.9087311 C31.8039107,17.4375093 42.7612418,14.1462455 25,55" id="Stroke-7"></path>
                <path d="M23.5585026,80.4668173 C23.5585026,80.4668173 20.43903,68.7195338 10.3594012,53.803716 C0.279772329,38.8874325 9.8184928,38.5022528 17.4488135,45.0354042 C23.8024968,50.474962 29.8152438,64.0074861 35.4903329,66.6739359 C41.165422,69.33992 58.2314331,76.9801722 55.7563674,91.5937146 C53.28177,106.207257 48.9507563,114.308607 48.9507563,126" id="Stroke-9"></path>
                <path d="M129.574954,126 C129.574954,126 122.838203,104.408102 137.230521,88.9119893 C151.622839,73.4158766 155.845129,52.2664298 148.356451,27.7528529 C144.941254,16.5752136 141.333208,5.72131898 138.506294,1.13024309 C137.179063,-1.02477086 133.348962,-0.496926162 133.416645,6.24024896 C133.47691,12.292399 136.154087,22.4715907 139.99995,40.9278565" id="Stroke-11"></path>
                <path d="M133.699122,8.99455396 C133.699122,8.99455396 131.046242,-3.16374777 127.559865,0.791194592 C124.446061,4.32357061 125.387541,16.3481371 136,43" id="Stroke-13"></path>
                <path d="M126.093872,10.9944571 C124.761206,4.04891396 117.632417,6.1007642 120.806451,17.6223363 C123.980485,29.1439084 131,48 131,48" id="Stroke-15"></path>
                <path d="M121.915732,20.9087311 C120.196089,17.4375093 109.238758,14.1462455 127,55" id="Stroke-17"></path>
                <path d="M128.441497,80.4668173 C128.441497,80.4668173 131.56097,68.7195338 141.640599,53.803716 C151.720228,38.8874325 142.181507,38.5022528 134.551186,45.0354042 C128.197503,50.474962 122.184756,64.0074861 116.509667,66.6739359 C110.834578,69.33992 93.7685669,76.9801722 96.2436326,91.5937146 C98.71823,106.207257 103.049244,114.308607 103.049244,126" id="Stroke-19"></path>
            </g>
            <line x1="98" y1="25" x2="87" y2="39" id="Stroke-21" stroke="#FFFFFF"></line>
            <line x1="64" y1="39" x2="53" y2="25" id="Stroke-23" stroke="#FFFFFF"></line>
            <polyline id="Stroke-25" stroke="#FFFFFF" points="87 39 75.5 25 64 39"></polyline>
            <line x1="110" y1="39" x2="42" y2="39" id="Stroke-29" stroke="#FFFFFF"></line>
            <line x1="65" y1="38" x2="76" y2="78" id="Stroke-31" stroke="#FFFFFF"></line>
            <line x1="87" y1="38" x2="76" y2="78" id="Stroke-33" stroke="#FFFFFF"></line>
        </g>
    </g>
</svg>