<?xml version="1.0" encoding="UTF-8"?>
<svg width="176px" height="152px" viewBox="0 0 176 152" version="1.1" xmlns="http://www.w3.org/2000/svg" xmlns:xlink="http://www.w3.org/1999/xlink">
    <title>icon/benefits/forever</title>
    <defs>
        <linearGradient x1="98.7907356%" y1="50%" x2="0%" y2="50%" id="linearGradient-1">
            <stop stop-color="#5F298A" offset="0%"></stop>
            <stop stop-color="#D197FF" offset="51.7773288%"></stop>
            <stop stop-color="#5F298A" offset="100%"></stop>
        </linearGradient>
    </defs>
    <g id="icon/benefits/forever" stroke="none" stroke-width="1" fill="none" fill-rule="evenodd" transform="translate(1, 0)">
        <g id="Group-29" transform="translate(0, 38)">
            <g id="Group" transform="translate(0, 31.4051)" stroke="#5F298A">
                <path d="M173.796064,39.591743 C173.796064,0 144.68964,0 134.14092,0 C95.4628712,0 77.6214278,45.6573501 28.1344155,45.6573501 C22.1434995,45.6573501 0.407872016,45.272251 0.407872016,22.3102724" id="Stroke-1"></path>
                <path d="M115.798745,56.6822044 C139.73047,67.470904 173.796301,58.8612729 173.796301,39.591506 C173.796301,18.3281107 135.443556,3.84838425 100.54199,31.046453 C49.035727,74.4868172 0,68.355447 0,25.5187997 C0,16.843998 9.58168019,4.9183673 28.9408144,1.56326539" id="Stroke-3" stroke-width="2"></path>
                <path d="M174,39.591743 C174,18.3277552 135.647255,3.84862123 100.745689,31.04669 C49.2400179,74.4864618 0.203699423,68.355684 0.203699423,25.5190367 C0.203699423,24.4887485 0.339144162,23.4116559 0.610033639,22.30968 L0.612399485,22.3102724 C0.612399485,45.272251 22.348027,45.6573501 28.3383515,45.6573501 C77.8259552,45.6573501 95.6673986,0 134.345448,0 C144.893576,0 174,0 174,39.591743" id="Fill-5" stroke-width="2"></path>
                <path d="M91.8266235,37.9502728 C95.6220335,41.9523413 99.9468018,46.1357025 105.498853,50.3415772" id="Stroke-7" stroke-width="2"></path>
                <path d="M41.1475201,11.1877808 C46.1873656,10.2297727 52.0937025,10.5461464 58.6080621,12.523186 C67.660384,15.2710162 73.6737755,19.3826898 78.962035,24.3326944" id="Stroke-9" stroke-width="2"></path>
                <path d="M24.0690623,38.2916484 C21.7150446,29.3946741 24.2624703,21.3093702 30.2587094,16.2165826" id="Stroke-11"></path>
                <path d="M28.7631984,3.83754223 C22.5688196,7.02497791 16.2827643,13.1148759 16.2827643,24.2637913 C16.2827643,39.8526032 37.0223702,49.0493623 60.0734086,35.7432995 C83.123264,22.4378291 94.624829,13.4259175 110.557625,5.9170774" id="Stroke-13" stroke-width="2"></path>
                <path d="M28.6915724,3.83754223 C22.4977851,7.02497791 16.2117297,13.1148759 16.2117297,24.2637913 C16.2117297,30.1095958 19.1282275,35.0560457 23.9894516,38.2547381 L23.9971406,38.2914707 C21.6431229,29.3950888 24.1917315,21.3091925 30.1873792,16.2169974 L28.6915724,3.83754223 Z" id="Fill-15" stroke-width="2"></path>
                <path d="M155.438215,32.847295 C152.033762,22.5141972 139.272975,14.0757871 118.455296,20.8203536" id="Stroke-17" stroke-width="2"></path>
                <path d="M155.445195,32.8698084 C155.436914,40.0539804 150.795714,50.5624463 134.011213,50.5624463 C130.239461,50.5624463 126.792422,50.0701119 123.592614,49.1831991" id="Path" stroke-width="2"></path>
                <path d="M85.9590273,19.8437423 C75.0223083,9.73044726 61.8971808,0.937745949 40.8819538,0.658697211 C40.4040527,4.55353033 40.3585101,8.15509568 41.1475201,11.1878993" id="Path" stroke-width="2"></path>
                <path d="M99.059136,32.4625513 C103.321209,36.676128 107.609307,40.5993992 112.353422,43.6920413" id="Path" stroke-width="2"></path>
            </g>
            <g id="Group-3" transform="translate(28.9637, 0)" fill="url(#linearGradient-1)">
                <path d="M107.558554,49.9584153 C107.676985,49.7599398 110.806524,50.3204109 113.543464,51.3287849 C116.420153,52.3887033 118.906019,53.906004 118.858737,53.9990209 C117.126594,57.3654023 114.870483,60.4823563 112.116963,63.2367222 L69.7743294,105.601465 L61.3799406,114.000237 L53.0056851,105.581321 L33.781374,86.2539551 L39.8551075,83.5736472 L45.1495651,80.8856373 L61.4000739,97.2228367 L103.742707,54.8580939 C105.246188,53.3538274 106.517545,51.7055921 107.558554,49.9584153 Z M36.9231114,0 L37.4830818,0.00410084738 C46.6067225,0.137946513 55.0906035,3.54253285 61.5988011,9.38700227 C68.2113956,3.53878847 76.8242896,0.188403605 86.0660522,0.188403605 C95.8910874,0.188403605 105.142324,4.03171866 112.117318,11.0097616 C118.276322,17.1719814 121.983804,25.1305526 122.764466,33.7041016 C122.79328,34.0234398 119.683874,32.8159978 116.813699,32.2904821 C113.563952,31.695648 110.503103,31.7448226 110.479417,31.6405489 C109.479267,27.1502629 107.235,22.8821511 103.74247,19.3883899 C98.7648155,14.4075436 92.3837535,12.037687 86.0666443,12.037687 C76.9776577,12.037687 68.0165766,16.9397355 63.5363321,26.0263584 L61.544915,30.0640017 L59.4338825,25.8000371 C54.9465322,16.7371127 45.9978863,11.8498758 36.9231114,11.8492834 C30.6036336,11.8486909 24.2243481,14.21914 19.2466935,19.1993938 L19.1596467,19.2858936 C9.38672112,29.0639222 9.36777216,44.9111538 19.1170115,54.712881 L31.4628505,67.1244128 L26.0635815,69.8953677 L19.7820016,72.1787246 L10.7226227,63.070773 C-3.59923732,48.6721163 -3.57081388,25.2715591 10.7877598,10.9048955 L10.8718458,10.8207656 C17.846247,3.84272259 27.0986684,0 36.9231114,0 Z" id="Combined-Shape"></path>
            </g>
        </g>
    </g>
</svg>