<?xml version="1.0" encoding="UTF-8"?>
<svg width="120px" height="55px" viewBox="0 0 120 55" version="1.1" xmlns="http://www.w3.org/2000/svg" xmlns:xlink="http://www.w3.org/1999/xlink" >
    <title>logo/colored</title>
    <defs>
        <linearGradient x1="0.252164827%" y1="50.2109808%" x2="99.3687083%" y2="49.7927471%" id="linearGradient-1">
            <stop stop-color="#FFFFFF" offset="0%"></stop>
            <stop stop-color="#00FFCE" offset="100%"></stop>
        </linearGradient>
    </defs>
    <g id="logo/colored" stroke="none" stroke-width="1" fill="none" fill-rule="evenodd">
        <rect x="0" y="0" width="120" height="55"></rect>
        <g id="Group-2" transform="translate(14.1817, 49.0474)" fill="url(#linearGradient-1)">
            <path d="M3.40556296,4.40394941 C3.73870725,4.07087628 3.90541129,3.60198947 3.90541129,2.997289 C3.90541129,2.39232481 3.73870725,1.91895484 3.40556296,1.57770652 C3.07241866,1.23619447 2.60079395,1.06557031 1.9901613,1.06557031 L1.16587315,1.06557031 L1.16587315,4.90369097 L1.9901613,4.90369097 C2.60079395,4.90369097 3.07241866,4.73702254 3.40556296,4.40394941 M3.64295794,0.441354867 C4.10640571,0.680017722 4.46460836,1.01994747 4.71730214,1.4611441 C4.96973214,1.90234074 5.09581525,2.41447695 5.09581525,2.997289 C5.09581525,3.58010106 4.96973214,4.08933639 4.71730214,4.52499499 C4.46460836,4.96038988 4.10640571,5.29768247 3.64295794,5.53634532 C3.17951018,5.77500818 2.64220619,5.89420774 2.03157353,5.89420774 L0,5.89420774 L0,0.083228726 L2.03157353,0.083228726 C2.64220619,0.083228726 3.17951018,0.202692012 3.64295794,0.441354867 M12.7152183,5.89423412 L13.8810915,5.89423412 L13.8810915,0.0832550976 L12.7152183,0.0832550976 L12.7152183,5.89423412 Z M25.0219854,3.85462927 L24.1810796,1.42369645 L23.3401738,3.85462927 L25.0219854,3.85462927 Z M25.3385121,4.78686484 L23.023911,4.78686484 L22.6409137,5.89420774 L21.4167469,5.89420774 L23.5066141,0.0750535343 L24.8639859,0.0750535343 L26.9541168,5.89420774 L25.7215093,5.89420774 L25.3385121,4.78686484 Z M40.818195,0.0832814692 L40.818195,5.89426049 L39.6525856,5.89426049 L39.6525856,2.11468475 L38.0955383,5.89426049 L37.2126927,5.89426049 L35.6472047,2.11468475 L35.6472047,5.89426049 L34.4815953,5.89426049 L34.4815953,0.0832814692 L35.805468,0.0832814692 L37.6539836,4.40400215 L39.502763,0.0832814692 L40.818195,0.0832814692 Z M52.3342785,4.67462737 C52.6006884,4.51639785 52.8088047,4.29039336 52.9586273,3.99635017 C53.1087137,3.70204327 53.183625,3.36079495 53.183625,2.97234148 C53.183625,2.5836243 53.1087137,2.24369455 52.9586273,1.95228853 C52.8088047,1.6608825 52.6006884,1.43777888 52.3342785,1.28218652 C52.0676048,1.12685788 51.7595189,1.0490617 51.4100207,1.0490617 C51.059995,1.0490617 50.7505902,1.12685788 50.4815425,1.28218652 C50.2122311,1.43777888 50.0025322,1.6608825 49.8529734,1.95228853 C49.702887,2.24369455 49.6279757,2.5836243 49.6279757,2.97234148 C49.6279757,3.36079495 49.702887,3.70204327 49.8529734,3.99635017 C50.0025322,4.29039336 50.2122311,4.51639785 50.4815425,4.67462737 C50.7505902,4.8331206 51.059995,4.91197165 51.4100207,4.91197165 C51.7595189,4.91197165 52.0676048,4.8331206 52.3342785,4.67462737 M49.9110033,5.56967901 C49.4559962,5.31440205 49.0951558,4.96049536 48.8284821,4.50822266 C48.5620722,4.05594996 48.4288672,3.54381375 48.4288672,2.97234148 C48.4288672,2.40587981 48.5620722,1.8969082 48.8284821,1.44463549 C49.0951558,0.992362789 49.4559962,0.638456102 49.9110033,0.383179147 C50.3660103,0.127902193 50.8658586,0 51.4100207,0 C51.9594582,0 52.4606254,0.127902193 52.912731,0.383179147 C53.3651003,0.638456102 53.723303,0.992362789 53.9870752,1.44463549 C54.2508474,1.8969082 54.3827335,2.40587981 54.3827335,2.97234148 C54.3827335,3.54381375 54.2508474,4.05594996 53.9870752,4.50822266 C53.723303,4.96049536 53.3637814,5.31440205 52.9087744,5.56967901 C52.4532398,5.82469224 51.953919,5.95259444 51.4100207,5.95259444 C50.8658586,5.95259444 50.3660103,5.82469224 49.9110033,5.56967901 M66.9643512,5.89431323 L65.798478,5.89431323 L63.1589096,1.90666568 L63.1589096,5.89431323 L61.9930364,5.89431323 L61.9930364,0.0751590207 L63.1589096,0.0751590207 L65.798478,4.07098176 L65.798478,0.0751590207 L66.9643512,0.0751590207 L66.9643512,5.89431323 Z M78.2637986,4.40394941 C78.5969429,4.07087628 78.7633831,3.60198947 78.7633831,2.997289 C78.7633831,2.39232481 78.5969429,1.91895484 78.2637986,1.57770652 C77.9306543,1.23619447 77.4587658,1.06557031 76.8481332,1.06557031 L76.0241088,1.06557031 L76.0241088,4.90369097 L76.8481332,4.90369097 C77.4587658,4.90369097 77.9306543,4.73702254 78.2637986,4.40394941 M78.5011936,0.441354867 C78.9643776,0.680017722 79.3225802,1.01994747 79.575274,1.4611441 C79.8279678,1.90234074 79.9540509,2.41447695 79.9540509,2.997289 C79.9540509,3.58010106 79.8279678,4.08933639 79.575274,4.52499499 C79.3225802,4.96038988 78.9643776,5.29768247 78.5011936,5.53634532 C78.0377458,5.77500818 77.5004418,5.89420774 76.8898092,5.89420774 L74.8582356,5.89420774 L74.8582356,0.083228726 L76.8898092,0.083228726 C77.5004418,0.083228726 78.0377458,0.202692012 78.5011936,0.441354867 M88.4849716,5.74441714 C88.1605318,5.60570259 87.9036176,5.40606968 87.7147567,5.1452547 C87.5258958,4.88417599 87.4288277,4.57589215 87.4232884,4.22119432 L88.6722498,4.22119432 C88.6888675,4.45959346 88.7738021,4.64841401 88.9262625,4.78686484 C89.0789866,4.9258431 89.2884217,4.99520037 89.5550954,4.99520037 C89.8270446,4.99520037 90.0407001,4.92979884 90.1960619,4.7995232 C90.3516875,4.66924757 90.4292365,4.49835969 90.4292365,4.28765071 C90.4292365,4.11544426 90.3767458,3.97409255 90.271237,3.86280446 C90.1657281,3.7520438 90.033842,3.66449013 89.8755787,3.60067089 C89.7175791,3.53711537 89.4997033,3.4661758 89.2219511,3.38837962 C88.8442293,3.27761896 88.537726,3.16764945 88.3019137,3.05952594 C88.0658375,2.95113873 87.8632605,2.78763489 87.6939187,2.56822329 C87.524577,2.34907541 87.4399061,2.05661452 87.4399061,1.69004947 C87.4399061,1.34590027 87.5258958,1.04658277 87.6981391,0.7910421 C87.8701186,0.535765145 88.1114701,0.340087976 88.4227213,0.204010591 C88.7331812,0.0681969219 89.0887462,0.000158229517 89.4886248,0.000158229517 C90.0879153,0.000158229517 90.5751025,0.145729385 90.9499228,0.437135413 C91.3247432,0.728277724 91.5312768,1.1351913 91.5700513,1.65682127 L90.2878546,1.65682127 C90.2765124,1.45692465 90.1921053,1.29183852 90.033842,1.16156289 C89.8755787,1.03102353 89.6661435,0.965885716 89.405009,0.965885716 C89.1773736,0.965885716 88.9958983,1.02416692 88.8597919,1.14072933 C88.7234217,1.25702803 88.6556322,1.42659733 88.6556322,1.64838237 C88.6556322,1.80397473 88.7070678,1.93293178 88.8096752,2.03578097 C88.9125463,2.13836644 89.0399483,2.22170065 89.1929362,2.28525617 C89.3453965,2.34907541 89.5603709,2.42265214 89.838123,2.50598635 C90.2158448,2.61727444 90.523667,2.72803511 90.7623808,2.83879577 C91.0010947,2.95008386 91.2063094,3.11648857 91.3788165,3.33853733 C91.5507959,3.56058608 91.6367857,3.85172839 91.6367857,4.21249169 C91.6367857,4.52341269 91.5563351,4.81218156 91.3951703,5.07853458 C91.2342693,5.34462389 90.9981932,5.55717887 90.6877333,5.71540839 C90.3767458,5.87337419 90.007201,5.95248895 89.57989,5.95248895 C89.1744721,5.95248895 88.8096752,5.88313168 88.4849716,5.74441714" id="Combined-Shape"></path>
        </g>
        <g id="Group" fill="#FFFFFF">
            <path d="M108.123182,31.4738288 C111.966079,33.0344993 115.503792,34.6605713 115.776796,37.7220488 L120.000053,37.7220488 C119.911689,37.7096541 119.823853,37.6951497 119.735225,37.6848648 C119.743402,37.5321733 119.74815,37.3781633 119.74815,37.2223072 C119.74815,31.8485691 114.436042,29.4743352 109.685768,27.5370785 C105.810954,25.9748257 102.061169,24.4131003 102.061169,21.4138599 C102.061169,17.2896075 104.81073,15.6023534 108.9356,15.6023534 C114.060694,15.6023534 116.518787,19.8289275 116.748005,23.7255931 L116.873033,25.8500881 L117.810743,25.8500881 L117.310631,15.0403749 C116.623241,15.2276132 116.060615,15.2898501 115.560503,15.2898501 C114.185458,15.2898501 112.623399,14.6026066 108.9356,14.6026066 C102.873323,14.6026066 98.4361473,17.4773732 98.4361473,22.5383443 C98.4361473,27.4126046 103.560714,29.5993365 108.123182,31.4738288 M84.7301478,15.6024589 C89.26914,15.6024589 92.480039,19.1642053 92.480039,24.9754481 C92.480039,25.6001909 92.1046912,25.9124305 91.6045791,25.9124305 L76.720441,26.2876982 C77.9021405,19.7391059 80.5356422,15.6024589 84.7301478,15.6024589 L84.7301478,15.6024589 Z M77.9179668,37.7221542 C76.9108846,35.6174379 76.3614471,33.1487938 76.3614471,30.4739238 C76.3614471,29.340473 76.4329293,28.2558097 76.5714097,27.2246806 L95.042586,27.2246806 C96.1047967,27.2246806 96.7921871,26.3499351 96.7921871,25.037685 C96.7921871,18.6639363 91.7301347,14.6027121 84.9799401,14.6027121 C76.2300885,14.6027121 71.9240072,21.6012036 71.9240072,30.2239211 C71.9240072,33.0169358 72.4702795,35.5446524 73.4794719,37.7221542 L77.9179668,37.7221542 Z M13.232924,26.2440796 C2.65011936,26.1188145 0.864117748,33.994425 0,37.6785356 L4.1757778,37.6785356 C4.97316118,32.0634975 4.91513129,27.0120202 13.4827163,27.181062 L17.6081136,27.181062 L17.6081136,33.9295509 C17.6081136,35.3285636 17.4535431,36.5722476 17.1844955,37.6785356 L18.1702122,37.6785356 L18.6700605,37.6785356 L21.7952336,37.6785356 L21.7952336,23.0570734 C21.7952336,17.5583339 18.1076982,14.5588297 11.3580312,14.5588297 C8.35129182,14.5588297 5.98314496,15.1841 4.29579415,15.1841 C3.79568205,15.1841 3.22936312,15.105249 2.79572161,14.9965981 L2.23335927,25.806575 L3.17080569,25.806575 L3.42059797,22.6823331 C3.67065402,18.6205814 6.29571502,15.5588403 11.4202814,15.5588403 C15.420387,15.5588403 17.6081136,17.8708372 17.6081136,22.3698299 L17.6081136,26.2440796 L13.232924,26.2440796 Z M34.3171597,14.5588297 C38.0049589,14.5588297 39.5670179,15.246337 40.9420624,15.246337 C41.4421745,15.246337 42.0048007,15.1841 42.692191,14.9965981 L43.1925669,25.806575 L42.2545929,25.806575 L42.1295649,23.68208 C41.9003469,19.7854144 39.4422537,15.5588403 34.3171597,15.5588403 C30.1922899,15.5588403 27.4427285,17.2458307 27.4427285,21.3703467 C27.4427285,24.2300877 30.8518089,25.782926 34.5278323,27.2754353 L35.0673279,27.4935653 C35.3264337,27.5992339 35.5872111,27.7062025 35.8487068,27.8148871 L36.3723736,28.0346675 C40.7395377,29.8872902 45.12971,32.2935776 45.12971,37.1787941 C45.12971,37.3475722 45.121533,37.5134495 45.1120372,37.6785356 L41.166005,37.6785356 C40.895111,34.6152122 37.3489574,32.9915136 33.5050051,31.4303157 C28.9422735,29.5558234 23.817707,27.3688277 23.817707,22.4945675 C23.817707,17.4335963 28.2551469,14.5588297 34.3171597,14.5588297 Z M51.2314997,0 L51.2314997,11.7474868 C51.2314997,16.7464847 50.356831,24.7444593 50.294317,25.2442009 L50.6691373,25.2442009 C50.7939016,24.3069547 51.1689857,22.7449657 51.4815557,21.8699564 C52.9816283,17.4334645 56.731414,14.5589616 61.0440895,14.5589616 C66.6687681,14.5589616 69.7936774,17.6834671 69.7936774,22.4321987 L69.7936774,37.2411629 C69.7936774,37.3935906 69.7944687,37.5320415 69.7944687,37.6786675 L65.7305303,37.6786675 C65.7307941,37.5328326 65.7313216,37.3930632 65.7313216,37.2411629 L65.7313216,23.8694501 C65.7313216,18.7459783 64.2312491,15.996213 60.6062277,15.996213 C55.2941192,15.996213 51.2314997,20.8077089 51.2314997,28.1809407 L51.2316975,37.4620908 L51.232291,37.6786675 L47.1686164,37.6786675 C47.1688802,37.5344149 47.1691439,37.3912172 47.1691439,37.2411629 L47.1691439,10.185234 C47.1691439,4.06175171 46.9818657,3.43700883 45.6068211,3.43700883 L43.1693022,3.43700883 L43.1693022,2.99950421 L46.1689197,2.99950421 C48.2943962,2.99950421 50.7939016,2.31226068 50.7939016,0.187765694 L50.7939016,0 L51.2314997,0 Z" id="Combined-Shape"></path>
        </g>
    </g>
</svg>