<?xml version="1.0" encoding="UTF-8"?>
<svg width="24px" height="24px" viewBox="0 0 24 24" version="1.1" xmlns="http://www.w3.org/2000/svg" xmlns:xlink="http://www.w3.org/1999/xlink">
    <title>icon/phone</title>
    <g id="icon/phone" stroke="none" stroke-width="1" fill="none" fill-rule="evenodd">
        <rect  x="0" y="0" width="24" height="24"></rect>
        <g id="Group">
            <polygon id="Path" points="0 0 24 0 24 24 0 24"></polygon>
            <path d="M7.08168686,4 C7.33254744,5.40352246 7.66940391,6.61278679 8.14240086,7.75124906 L5.9391419,9.7668083 C6.45693982,12.2135893 7.32998982,14.0112624 8.65935525,15.3406376 C10.0036571,16.6849492 11.8268476,17.5626412 14.315892,18.0782314 L15.8459239,15.9360476 C17.3800526,16.3229743 18.5935286,16.6673867 19.8595761,16.8482632 L19.643,16.814 L19.9910113,19.9310774 C19.6713416,19.974257 19.3940942,19.9924597 19.1638236,19.9980136 L19,20 C17.969455,20 16.9631632,19.8962032 15.9910445,19.6983298 C12.5384692,18.9955629 9.51750033,17.1062316 7.37119298,14.4755716 C5.26364994,11.8924238 4,8.5937614 4,5 C4,4.74188865 4.01499785,4.40855066 4.04386008,4.00002409 Z" id="Path" stroke="#FFFFFF" stroke-width="2"></path>
        </g>
    </g>
</svg>