<?xml version="1.0" encoding="UTF-8"?>
<svg width="117px" height="219px" viewBox="0 0 117 219" version="1.1" xmlns="http://www.w3.org/2000/svg" xmlns:xlink="http://www.w3.org/1999/xlink">
    <title>pet</title>
    <g id="UI" stroke="none" stroke-width="1" fill="none" fill-rule="evenodd" opacity="0.75">
        <g id="get-started" transform="translate(-576, -549)">
            <g id="Group-7" transform="translate(120, 394)">
                <g id="Group-5-Copy" transform="translate(378, 114)">
                    <g id="pet" transform="translate(79, 42)">
                        <path d="M57.4989987,12.4835194 C57.4989987,12.4835194 48.7128577,-5.84817436 32.7717733,1.91731816 C17.0299374,9.58569706 26.5602597,30.5190766 26.5602597,30.5190766 C26.5602597,30.5190766 9.73095877,22.1505205 2.42117754,34.8903883 C-8.57950307,54.0637334 21.4734201,70.9087496 21.4734201,93.8947034 C21.4734201,104.052068 21.5850473,107.246027 19.3645062,129.475454 C18.1954214,128.54628 17.1355631,127.521192 16.3769782,126.415776 C16.2233408,129.078607 17.5400617,132.199431 18.8483805,134.596099 C18.7895661,135.165593 16.63024,155.290891 16.5714256,155.856787 C14.0592135,153.758654 13.7591403,152.473397 11.496589,150.122288 C10.3575114,156.297995 11.6886358,165.641284 14.857408,172.21144 C12.908133,190.410052 10.2482848,212.556752 10.2482848,212.556752 C23.2834612,214.982195 39.5306203,217 57.4989987,217 C75.4673772,217 91.7145363,214.982195 104.749713,212.556752 C104.749713,212.556752 102.990084,198.117996 101.927825,188.562495 C103.150923,185.047222 105.179417,180.42893 107.904081,178.430308 C105.352259,176.504821 102.72842,177.172627 100.793549,178.24807 C100.661516,177.026357 100.527084,175.777068 100.38785,174.502602 C102.056256,170.688794 103.381379,166.014152 105.515499,162.111624 C103.030894,160.048259 101.346883,159.599858 98.891085,160.35039 C96.256443,134.971365 93.5269779,105.794119 93.5269779,93.8947034 C93.5269779,70.9087496 123.578701,54.0637334 112.57922,34.8903883 C105.269439,22.1505205 88.4401384,30.5190766 88.4401384,30.5190766 C88.4401384,30.5190766 97.9704607,9.58569706 82.2274245,1.91731816 C66.2875403,-5.84817436 57.5013993,12.4835194 57.5013993,12.4835194" id="Stroke-17" stroke="#000000" fill="#FFFFFF"></path>
                        <path d="M26.4613556,43.4169638 C29.4872929,48.0508419 28.8451364,53.8249058 25.0258058,56.3138919 C21.2052748,58.8040768 15.6551223,57.0668221 12.6279847,52.4341429 C9.60084706,47.8002648 10.2442038,42.0262009 14.0647348,39.536016 C17.8840655,37.0470299 23.4354182,38.7842846 26.4613556,43.4169638" id="Fill-1" fill="#111414"></path>
                        <path d="M49.785079,17.2195467 C51.5723145,22.7094633 49.354174,28.3516446 44.8266708,29.822736 C40.3015681,31.2926285 35.1823207,28.0351261 33.3950852,22.5452094 C31.6066494,17.0552928 33.8271905,11.4131116 38.3534934,9.94202011 C42.8797964,8.47212759 47.9978435,11.72963 49.785079,17.2195467" id="Fill-3" fill="#111414"></path>
                        <path d="M88.6057787,43.4169638 C85.5786411,48.0508419 86.2219979,53.8249058 90.0413285,56.3138919 C93.8618595,58.8040768 99.412012,57.0668221 102.437949,52.4341429 C105.465087,47.8002648 104.82293,42.0262009 101.002399,39.536016 C97.1830688,37.0470299 91.6317161,38.7842846 88.6057787,43.4169638" id="Fill-5" fill="#111414"></path>
                        <path d="M65.2177196,17.2195467 C63.4304841,22.7094633 65.6486246,28.3516446 70.1761278,29.822736 C74.7012305,31.2926285 79.820478,28.0351261 81.6077135,22.5452094 C83.3961493,17.0552928 81.1756082,11.4131116 76.6493052,9.94202011 C72.1230023,8.47212759 67.0049551,11.72963 65.2177196,17.2195467" id="Fill-7" fill="#111414"></path>
                        <path d="M40.5613114,73.7550178 L40.5613114,73.7550178 C45.0300003,78.2186474 52.2749658,78.2186474 56.7412541,73.7550178 L57.4986386,72.9996897 L58.2548229,73.7550178 C62.7235118,78.2186474 69.9684772,78.2186474 74.4359659,73.7550178 C78.9034545,69.2913883 80.1445569,64.1983186 74.4923796,55.1463704 C69.2567038,46.7610292 57.9571504,40.9054378 57.4986386,40.6644522 C57.0401269,40.9054378 45.7405735,46.7610292 40.5048977,55.1463704 C34.8539206,64.1983186 36.0926225,69.2913883 40.5613114,73.7550178" id="Fill-9" fill-opacity="0.25" fill="#FF0000"></path>
                        <path d="M67.8596834,104.888564 C64.6248951,109.737051 74.9834193,114.585539 74.9834193,114.585539" id="Stroke-11" stroke="#111414"></path>
                        <path d="M59.2994375,113.075122 C59.2994375,113.075122 54.7251228,103.903281 60.4661217,101.7452" id="Stroke-13" stroke="#111414"></path>
                        <path d="M46.813635,113.075122 C46.813635,113.075122 39.1593698,96.1869444 49.9331951,92.7016446" id="Stroke-15" stroke="#111414"></path>
                    </g>
                </g>
            </g>
        </g>
    </g>
</svg>