<?xml version="1.0" encoding="UTF-8"?>
<svg width="33.3868302px" height="33.7241379px" viewBox="0 0 33.3868302 33.7241379" version="1.1" xmlns="http://www.w3.org/2000/svg" xmlns:xlink="http://www.w3.org/1999/xlink">
    <title>d1</title>
    <g id="Symbols" stroke="none" stroke-width="1" fill="none" fill-rule="evenodd">
        <g id="demo/desktop" transform="translate(-33.1034, -325.1034)" fill="#FFFFFF" fill-rule="nonzero">
            <g id="form" transform="translate(0, 248)">
                <g id="Group-21" transform="translate(0, 44)">
                    <g id="d1" transform="translate(33.1034, 33.1034)">
                        <path d="M9.5862069,28.6896552 C9.93103448,28.0689655 10.2068966,27.5862069 10.4137931,27.1034483 C10.4827586,26.9655172 10.4137931,26.6206897 10.3448276,26.5517241 C9.31034483,25.4482759 8.20689655,24.3448276 7.10344828,23.3103448 C6.96551724,23.1724138 6.68965517,23.1034483 6.48275862,23.1724138 C6.06896552,23.3793103 5.79310345,23.6551724 5.37931034,23.862069 C5.10344828,24.0689655 5.03448276,24.2068966 5.31034483,24.4827586 C6.13793103,25.2413793 6.89655172,26.0689655 7.65517241,26.8965517 C8.27586207,27.4482759 8.89655172,28 9.5862069,28.6896552 L9.5862069,28.6896552 Z M9.51724138,5.10344828 C7.93103448,6.68965517 6.48275862,8.20689655 4.96551724,9.79310345 C5.65517241,10.2068966 6.20689655,10.4827586 6.55172414,10.6896552 C8,9.37931034 9.31034483,8.13793103 10.6206897,6.89655172 C10.2068966,6.27586207 9.93103448,5.79310345 9.51724138,5.10344828 L9.51724138,5.10344828 Z M23.7241379,5.24137931 C23.4482759,5.65517241 23.1034483,6.13793103 22.8275862,6.62068966 C22.7586207,6.75862069 22.7586207,7.10344828 22.8965517,7.17241379 C24,8.27586207 25.1034483,9.44827586 26.2068966,10.5517241 C26.3448276,10.6896552 26.6206897,10.7586207 26.7586207,10.6896552 C27.2413793,10.4137931 27.7241379,10.0689655 28.2758621,9.65517241 C26.7586207,8.20689655 25.3103448,6.75862069 23.7241379,5.24137931 L23.7241379,5.24137931 Z M26.5517241,22.8965517 C25.3103448,24.2068966 24.0689655,25.5172414 22.8275862,26.8275862 C23.2413793,27.5172414 23.5862069,28.0689655 24,28.6896552 C25.5172414,27.1034483 26.9655172,25.5862069 28.4827586,24.0689655 C27.7931034,23.6551724 27.2413793,23.3103448 26.5517241,22.8965517 L26.5517241,22.8965517 Z M8.34482759,31.0344828 C8.62068966,30.4827586 8.75862069,30.0689655 8.96551724,29.7241379 C9.24137931,29.3103448 9.17241379,29.0344828 8.82758621,28.6896552 C7.51724138,27.3793103 6.27586207,26.0689655 4.96551724,24.7586207 C4.82758621,24.6206897 4.48275862,24.4827586 4.27586207,24.5517241 C3.79310345,24.7586207 3.31034483,25.0344828 2.82758621,25.3103448 C4.62068966,27.2413793 6.4137931,29.0344828 8.34482759,31.0344828 L8.34482759,31.0344828 Z M2.68965517,8.48275862 C3.24137931,8.75862069 3.65517241,9.10344828 4.13793103,9.24137931 C4.34482759,9.31034483 4.75862069,9.17241379 4.96551724,9.03448276 C5.37931034,8.68965517 5.79310345,8.20689655 6.20689655,7.79310345 C7.03448276,6.96551724 7.86206897,6.13793103 8.68965517,5.24137931 C8.89655172,5.03448276 9.17241379,4.62068966 9.10344828,4.4137931 C8.96551724,3.86206897 8.62068966,3.37931034 8.34482759,2.89655172 C6.4137931,4.82758621 4.55172414,6.62068966 2.68965517,8.48275862 L2.68965517,8.48275862 Z M26.4137931,32.8965517 C28.5517241,30.7586207 30.6206897,28.6896552 32.7586207,26.6206897 C32.3448276,26.3448276 31.9310345,26.2068966 31.6551724,25.9310345 C31.2413793,25.6551724 30.9655172,25.7931034 30.6896552,26.0689655 C29.9310345,26.8275862 29.1724138,27.5862069 28.4137931,28.3448276 C27.5172414,29.3103448 26.6206897,30.2068966 25.7241379,31.1724138 C25.5862069,31.3103448 25.5172414,31.5862069 25.5862069,31.7241379 C25.862069,32.0689655 26.137931,32.4827586 26.4137931,32.8965517 L26.4137931,32.8965517 Z M25.3793103,2.34482759 C25.7241379,2.68965517 25.9310345,3.03448276 26.2758621,3.31034483 C27.7931034,4.82758621 29.3103448,6.34482759 30.8275862,7.79310345 C30.9655172,7.93103448 31.3793103,8 31.5862069,7.93103448 C31.9310345,7.79310345 32.2758621,7.51724138 32.6896552,7.31034483 C30.5517241,5.17241379 28.4827586,3.03448276 26.3448276,0.827586207 C25.9310345,1.44827586 25.6551724,1.93103448 25.3793103,2.34482759 L25.3793103,2.34482759 Z M30.8965517,25.4482759 C30.3448276,25.1034483 29.9310345,24.9655172 29.6551724,24.6896552 C29.1724138,24.2758621 28.8275862,24.4137931 28.4137931,24.8275862 C27.2413793,26 26.0689655,27.1724138 24.8965517,28.4137931 C24.6206897,28.6896552 24.2068966,28.9655172 24.4137931,29.4482759 C24.6896552,29.9310345 25.0344828,30.4137931 25.2413793,30.7586207 C27.1034483,29.0344828 28.8965517,27.3103448 30.8965517,25.4482759 L30.8965517,25.4482759 Z M30.5517241,8.4137931 C30.4827586,8.34482759 30.4137931,8.20689655 30.3448276,8.06896552 C28.8965517,6.62068966 27.5172414,5.17241379 26.0689655,3.72413793 C25.1724138,2.82758621 25.1724138,2.89655172 24.4827586,3.86206897 C24.0689655,4.4137931 24.137931,4.75862069 24.6206897,5.17241379 C25.862069,6.4137931 27.1034483,7.65517241 28.3448276,8.82758621 C28.5517241,9.03448276 28.8965517,9.31034483 29.1034483,9.24137931 C29.5862069,9.10344828 30.0689655,8.75862069 30.5517241,8.48275862 C30.5517241,8.55172414 30.5517241,8.48275862 30.5517241,8.4137931 L30.5517241,8.4137931 Z M0.827586207,26.4827586 C2.96551724,28.6896552 5.03448276,30.7586207 7.10344828,32.8965517 C8.06896552,31.862069 8.13793103,31.4482759 7.24137931,30.5517241 C6.48275862,29.7241379 5.72413793,28.9655172 4.96551724,28.2068966 C4.13793103,27.3793103 3.31034483,26.5517241 2.48275862,25.7241379 C1.79310345,26 1.31034483,26.2068966 0.827586207,26.4827586 L0.827586207,26.4827586 Z M7.03448276,0.75862069 C4.96551724,2.89655172 2.96551724,4.96551724 0.965517241,6.96551724 C0.75862069,7.17241379 0.75862069,7.37931034 1.03448276,7.5862069 C1.31034483,7.72413793 1.65517241,7.86206897 1.93103448,8.06896552 C2.20689655,8.27586207 2.34482759,8.27586207 2.62068966,8 C4.34482759,6.27586207 6,4.48275862 7.72413793,2.75862069 C7.86206897,2.62068966 7.93103448,2.34482759 7.86206897,2.20689655 C7.65517241,1.72413793 7.37931034,1.31034483 7.03448276,0.75862069 L7.03448276,0.75862069 Z M10.2068966,5.03448276 C10.8275862,6.55172414 10.8965517,6.55172414 12.3448276,6.55172414 C12.4137931,6.55172414 12.5517241,6.55172414 12.6206897,6.55172414 C15.5862069,6.55172414 18.6206897,6.55172414 21.5862069,6.55172414 C21.862069,6.55172414 22.2758621,6.4137931 22.4137931,6.20689655 C22.6896552,5.93103448 22.8275862,5.51724138 23.0344828,5.03448276 L10.2068966,5.03448276 Z M10.2068966,28.8275862 L23.2413793,28.8275862 C22.7586207,27.3793103 22.4827586,27.1724138 21.1034483,27.1724138 C18,27.1724138 14.8965517,27.1724138 11.7241379,27.2413793 C11.4482759,27.2413793 11.0344828,27.4482759 10.8275862,27.6551724 C10.6206897,27.9310345 10.4827586,28.3448276 10.2068966,28.8275862 L10.2068966,28.8275862 Z M28.4827586,10.4137931 C28.137931,10.6206897 27.9310345,10.8275862 27.6551724,10.8965517 C26.9655172,11.1034483 26.8275862,11.5862069 26.8275862,12.2068966 C26.8965517,15.5172414 26.8275862,18.7586207 26.8965517,22.0689655 C26.8965517,22.2068966 26.9655172,22.4137931 27.1034483,22.4827586 C27.5172414,22.8275862 28,23.0344828 28.5517241,23.3793103 L28.5517241,10.4137931 L28.4827586,10.4137931 Z M7.79310345,33.0344828 L25.7931034,33.0344828 C25.5172414,32.4137931 25.3793103,31.7241379 24.4827586,31.7241379 C24.2068966,31.7241379 23.862069,31.7241379 23.5862069,31.7241379 C19.1724138,31.7241379 14.7586207,31.7241379 10.3448276,31.7241379 C9.37931034,31.7931034 8.13793103,31.5172414 7.79310345,33.0344828 L7.79310345,33.0344828 Z M4.89655172,10.4137931 C4.89655172,10.6206897 4.82758621,10.8275862 4.82758621,10.9655172 C4.82758621,14.8965517 4.82758621,18.8965517 4.82758621,22.8275862 C4.82758621,23.0344828 4.89655172,23.1724138 4.96551724,23.3793103 C5.31034483,23.1724138 5.5862069,23.0344828 5.79310345,22.8965517 C6.34482759,22.6206897 6.68965517,22.2068966 6.62068966,21.4482759 C6.55172414,19.9310345 6.62068966,18.4137931 6.62068966,16.8965517 C6.62068966,15.1724138 6.62068966,13.5172414 6.55172414,11.7931034 C6.55172414,11.5172414 6.34482759,11.1724138 6.13793103,11.0344828 C5.86206897,10.8965517 5.37931034,10.6896552 4.89655172,10.4137931 L4.89655172,10.4137931 Z M24.6206897,31.1034483 C24.4827586,30.8275862 24.4827586,30.5517241 24.3448276,30.4137931 C24.0689655,30.0689655 23.9310345,29.5172414 23.3103448,29.5172414 C21.4482759,29.5172414 19.5172414,29.5172414 17.6551724,29.5172414 C15.3793103,29.5172414 13.0344828,29.5172414 10.7586207,29.5172414 C9.79310345,29.5172414 9.17241379,30.0689655 9.10344828,31.1034483 L24.6206897,31.1034483 Z M25.5862069,0.827586207 L7.72413793,0.827586207 C7.86206897,1.10344828 8.06896552,1.31034483 8.06896552,1.51724138 C8.20689655,2 8.55172414,2.06896552 8.96551724,2.06896552 C13.862069,2.06896552 18.8275862,2.06896552 23.7241379,2.06896552 C24.6896552,2.06896552 25.2413793,1.72413793 25.5862069,0.827586207 L25.5862069,0.827586207 Z M32.8275862,25.6551724 C32.8275862,25.5172414 32.8275862,25.4482759 32.8275862,25.3103448 C32.8275862,23.3103448 32.8275862,21.2413793 32.8275862,19.2413793 C32.8275862,16.8275862 32.8275862,14.4137931 32.8275862,12 C32.8275862,10.8275862 32.8275862,9.65517241 32.8275862,8.55172414 C32.8275862,8.20689655 32.7586207,8 32.3448276,8.13793103 C31.7241379,8.4137931 31.3103448,9.03448276 31.4482759,9.72413793 C31.4482759,9.93103448 31.4482759,10.137931 31.4482759,10.3448276 C31.4482759,11.4482759 31.4482759,12.5517241 31.4482759,13.5862069 C31.4482759,15.1034483 31.5172414,16.6896552 31.5172414,18.2068966 C31.5172414,20.2068966 31.4482759,22.2068966 31.5172414,24.2068966 C31.4482759,25.1034483 31.6551724,25.5862069 32.8275862,25.6551724 L32.8275862,25.6551724 Z M0.75862069,25.862069 C1.51724138,25.5172414 2,25.1724138 2,24.3448276 C2,22.4137931 2,20.4137931 2,18.4827586 C2,15.7931034 2,13.1724138 1.93103448,10.4827586 C1.93103448,10 1.93103448,9.5862069 1.93103448,9.10344828 C1.93103448,8.68965517 1.03448276,8 0.827586207,8.20689655 C0.620689655,8.34482759 0.689655172,8.82758621 0.620689655,9.10344828 C0.620689655,9.17241379 0.620689655,9.24137931 0.620689655,9.37931034 C0.620689655,14.4137931 0.620689655,19.5172414 0.620689655,24.5517241 C0.620689655,24.8965517 0.689655172,25.3793103 0.75862069,25.862069 L0.75862069,25.862069 Z M9.03448276,2.82758621 C9.17241379,3.86206897 9.65517241,4.34482759 10.5517241,4.34482759 C14.5517241,4.34482759 18.6206897,4.34482759 22.6206897,4.34482759 C23.6551724,4.34482759 23.862069,4.20689655 24.3448276,2.82758621 L9.03448276,2.82758621 Z M30.6896552,9.17241379 C29.3793103,9.5862069 29.1034483,10 29.1034483,11.2413793 C29.1724138,15.1724138 29.1724138,19.1034483 29.1724138,23.0344828 C29.1724138,23.9310345 29.7241379,24.4827586 30.6896552,24.4827586 L30.6896552,9.17241379 L30.6896552,9.17241379 Z M2.62068966,9.24137931 L2.62068966,24.7586207 C3.10344828,24.4827586 3.51724138,24.2758621 3.86206897,24 C4,23.862069 4.13793103,23.5862069 4.20689655,23.3793103 C4.20689655,22.2068966 4.20689655,21.0344828 4.20689655,19.9310345 C4.20689655,16.8965517 4.20689655,13.9310345 4.20689655,10.8965517 C4.20689655,10.0689655 3.51724138,9.31034483 2.62068966,9.24137931 L2.62068966,9.24137931 Z M16.6896552,26.5517241 L16.6896552,26.5517241 C18.3448276,26.5517241 20.0689655,26.5517241 21.7241379,26.5517241 C22.137931,26.5517241 22.5517241,26.3448276 22.8275862,26.0689655 C23.862069,25.0344828 24.8965517,24 25.862069,22.8965517 C26.0689655,22.6206897 26.2758621,22.2068966 26.2758621,21.862069 C26.2758621,20 26.2758621,18.2068966 26.2758621,16.3448276 C26.2758621,14.8275862 26.3448276,13.3793103 26.2758621,11.862069 C26.2758621,11.5862069 26.137931,11.1724138 25.9310345,10.9655172 C24.9655172,9.93103448 23.9310345,8.96551724 22.9655172,7.93103448 C22.4827586,7.44827586 22,7.24137931 21.2413793,7.24137931 C17.9310345,7.24137931 14.6896552,7.24137931 11.3793103,7.24137931 C11.1034483,7.24137931 10.8275862,7.37931034 10.6206897,7.5862069 C9.65517241,8.55172414 8.68965517,9.51724138 7.72413793,10.5517241 C7.44827586,10.8275862 7.03448276,11.1724138 6.96551724,11.4482759 C6.89655172,12.5517241 6.89655172,13.6551724 6.96551724,14.8275862 C6.96551724,15.6551724 7.17241379,16.4827586 7.17241379,17.3793103 C7.17241379,18.6896552 7.10344828,20.0689655 7.10344828,21.3793103 C7.10344828,22.0689655 7.03448276,22.7586207 7.65517241,23.3103448 C8.68965517,24.2068966 9.5862069,25.2413793 10.6206897,26.2068966 C10.8275862,26.4137931 11.2413793,26.6206897 11.5862069,26.6206897 C13.3103448,26.5517241 15.0344828,26.5517241 16.6896552,26.5517241 L16.6896552,26.5517241 Z M0,16.8275862 C0,13.7931034 0,10.6896552 0,7.65517241 C0,7.31034483 0.275862069,6.96551724 0.551724138,6.68965517 C1.93103448,5.24137931 3.31034483,3.86206897 4.68965517,2.48275862 C5.37931034,1.72413793 6.06896552,0.965517241 6.75862069,0.275862069 C6.89655172,0.137931034 7.17241379,0.0689655172 7.37931034,0.0689655172 C10.4827586,0.0689655172 13.5172414,0 16.6206897,0 C19.5862069,0 22.4827586,0 25.4482759,0 C26,0 26.4137931,0.206896552 26.8275862,0.620689655 C27.862069,1.79310345 28.9655172,2.82758621 30.0689655,3.93103448 C30.9655172,4.82758621 31.862069,5.79310345 32.8275862,6.68965517 C33.2413793,7.10344828 33.3103448,7.5862069 33.3103448,8.06896552 C33.3103448,12.137931 33.3103448,16.2068966 33.3103448,20.2758621 C33.3103448,22 33.3103448,23.7931034 33.3793103,25.5172414 C33.4482759,26.4137931 33.0344828,26.9655172 32.4827586,27.5172414 C30.5517241,29.4482759 28.6206897,31.4482759 26.6896552,33.3793103 C26.4827586,33.5862069 26.137931,33.6551724 25.7931034,33.6551724 C22.137931,33.6551724 18.4827586,33.6551724 14.8965517,33.6551724 C12.6206897,33.6551724 10.2758621,33.7241379 8,33.7241379 C7.37931034,33.7241379 6.89655172,33.5862069 6.4137931,33.1034483 C4.55172414,31.1724138 2.75862069,29.2413793 0.827586207,27.4482759 C0.0689655172,26.7586207 0,26.0689655 0,25.1724138 C0.0689655172,22.4137931 0.0689655172,19.5862069 0,16.8275862 C0,16.8275862 0,16.8275862 0,16.8275862 L0,16.8275862 Z" id="asscher-cut"></path>
                    </g>
                </g>
            </g>
        </g>
    </g>
</svg>