<?xml version="1.0" encoding="UTF-8"?>
<svg width="33.9286251px" height="34.4325891px" viewBox="0 0 33.9286251 34.4325891" version="1.1" xmlns="http://www.w3.org/2000/svg" xmlns:xlink="http://www.w3.org/1999/xlink">
    <title>d2</title>
    <g id="Symbols" stroke="none" stroke-width="1" fill="none" fill-rule="evenodd">
        <g id="demo/desktop" transform="translate(-140.1034, -325.1034)" fill="#FFFFFF" fill-rule="nonzero">
            <g id="form" transform="translate(0, 248)">
                <g id="Group-21" transform="translate(0, 44)">
                    <g id="Group-17-Copy" transform="translate(107, 0)">
                        <g id="d2" transform="translate(33.1034, 33.1034)">
                            <path d="M31.1700044,5.10344828 L31.0320733,5.17241379 L31.0320733,8.82758621 C31.652763,8.48275862 32.2044871,8.27586207 32.7562113,8 C32.1355216,6.96551724 31.652763,6 31.1700044,5.10344828 L31.1700044,5.10344828 Z M29.1700044,30.9655172 C29.1700044,30.8965517 29.1010388,30.8965517 29.1010388,30.8275862 C28.1355216,30.8275862 27.1700044,30.8275862 26.2044871,30.8275862 C25.9975906,30.8275862 25.790694,30.8965517 25.5837975,30.8965517 C25.652763,31.1034483 25.652763,31.3103448 25.7217285,31.5172414 C25.790694,31.7931034 25.9286251,32.0689655 26.0665561,32.2758621 C26.1355216,32.4137931 26.4113837,32.4827586 26.4803492,32.4827586 C27.3769009,32 28.2734526,31.5172414 29.1700044,30.9655172 L29.1700044,30.9655172 Z M3.3079354,28.9655172 L3.44586643,28.8965517 L3.44586643,25.4482759 C2.82517677,25.7241379 2.27345264,25.9310345 1.65276298,26.2068966 C2.20448712,27.1724138 2.75621126,28.0689655 3.3079354,28.9655172 L3.3079354,28.9655172 Z M25.5148319,3.24137931 L29.3079354,3.24137931 C28.4803492,2.75862069 27.8596595,2.34482759 27.1700044,2 C26.8941423,1.86206897 26.4803492,1.65517241 26.2734526,1.79310345 C25.9975906,1.93103448 25.8596595,2.34482759 25.7217285,2.68965517 C25.5837975,2.75862069 25.5837975,2.96551724 25.5148319,3.24137931 L25.5148319,3.24137931 Z M9.10103884,3.24137931 C8.75621126,2.62068966 8.54931471,2.06896552 8.20448712,1.79310345 C8.06655608,1.65517241 7.51483195,2 7.10103884,2.13793103 C6.96310781,2.20689655 6.89414229,2.20689655 6.75621126,2.27586207 C6.27345264,2.55172414 5.85965953,2.82758621 5.37690091,3.10344828 C5.37690091,3.17241379 5.44586643,3.17241379 5.44586643,3.24137931 L9.10103884,3.24137931 Z M32.6872457,26.137931 C32.0665561,25.862069 31.5837975,25.5862069 30.9631078,25.3103448 L30.9631078,28.8965517 C31.0320733,28.8965517 31.1010388,28.9655172 31.1700044,28.9655172 C31.652763,28 32.1355216,27.1034483 32.6872457,26.137931 L32.6872457,26.137931 Z M8.96310781,31.0344828 L5.23896988,31.0344828 C5.23896988,31.1034483 5.23896988,31.1034483 5.23896988,31.1724138 C6.20448712,31.7241379 7.17000436,32.2068966 8.1355216,32.7586207 C8.48034919,32.137931 8.68724574,31.6551724 8.96310781,31.0344828 L8.96310781,31.0344828 Z M3.44586643,8.82758621 L3.44586643,5.17241379 C2.75621126,6 2.27345264,6.82758621 1.7217285,7.72413793 C1.65276298,7.79310345 1.7217285,8 1.85965953,8.06896552 C2.34241815,8.27586207 2.89414229,8.55172414 3.44586643,8.82758621 L3.44586643,8.82758621 Z M8.75621126,1.37931034 C9.03207333,2 9.23896988,2.48275862 9.51483195,2.96551724 C9.58379746,3.10344828 9.92862505,3.17241379 10.0665561,3.10344828 C11.4458664,2.55172414 12.8251768,1.93103448 14.2044871,1.31034483 C14.4803492,1.17241379 14.6872457,1.10344828 14.9631078,0.965517241 C14.9631078,0.896551724 14.9631078,0.896551724 14.8941423,0.827586207 C12.9631078,0.965517241 10.8941423,1.17241379 8.75621126,1.37931034 L8.75621126,1.37931034 Z M25.652763,32.6896552 C25.4458664,32.2068966 25.3079354,31.9310345 25.1700044,31.5862069 C24.9631078,31.0344828 24.5493147,30.9655172 24.0665561,31.1724138 C23.1010388,31.5862069 22.2044871,32 21.2389699,32.4137931 C20.6872457,32.6206897 20.2044871,32.8965517 19.652763,33.1034483 C19.652763,33.1724138 19.7217285,33.2413793 19.7217285,33.3103448 C21.652763,33.0344828 23.652763,33.2413793 25.652763,32.6896552 L25.652763,32.6896552 Z M33.3769009,19.3103448 C33.2389699,19.5172414 33.1700044,19.5862069 33.1700044,19.6551724 C32.4803492,21.1724138 31.7217285,22.6896552 31.0320733,24.2068966 C30.9631078,24.3448276 31.0320733,24.6206897 31.1700044,24.6896552 C31.652763,24.9655172 32.2044871,25.1724138 32.8941423,25.5172414 C33.0320733,23.3793103 33.1700044,21.4482759 33.3769009,19.3103448 L33.3769009,19.3103448 Z M19.3769009,0.75862069 C19.3769009,0.827586207 19.3769009,0.827586207 19.3769009,0.896551724 C21.0320733,1.5862069 22.6872457,2.34482759 24.3424182,3.03448276 C24.4803492,3.10344828 24.8251768,3.10344828 24.8941423,3.03448276 C25.1700044,2.55172414 25.4458664,2 25.7217285,1.37931034 C23.5148319,1.17241379 21.4458664,0.965517241 19.3769009,0.75862069 L19.3769009,0.75862069 Z M8.82517677,32.9655172 C10.9631078,33.1034483 12.8941423,33.2413793 14.8251768,33.3793103 L14.8251768,33.1724138 C14.6182802,33.1034483 14.4113837,32.9655172 14.2044871,32.8965517 C12.9631078,32.4137931 11.7217285,31.9310345 10.4803492,31.3103448 C9.85965953,31.0344828 9.58379746,31.1724138 9.37690091,31.6551724 C9.17000436,32.0689655 9.03207333,32.4137931 8.82517677,32.9655172 L8.82517677,32.9655172 Z M1.23896988,19.5172414 C0.894142292,21.3793103 1.17000436,24.8965517 1.7217285,25.5172414 C2.1355216,25.3103448 2.54931471,25.1034483 2.96310781,24.8965517 C3.3079354,24.7586207 3.3079354,24.5517241 3.17000436,24.2758621 C2.96310781,23.862069 2.82517677,23.3793103 2.61828022,22.9655172 C2.20448712,21.862069 1.7217285,20.7586207 1.23896988,19.5172414 L1.23896988,19.5172414 Z M32.8251768,8.62068966 C32.2044871,8.89655172 31.7217285,9.03448276 31.3079354,9.31034483 C31.1700044,9.37931034 31.0320733,9.72413793 31.1010388,9.86206897 C31.5837975,11.0344828 32.0665561,12.2068966 32.5493147,13.3103448 C32.7562113,13.7931034 33.0320733,14.2758621 33.2389699,14.8275862 C33.3079354,14.8275862 33.3769009,14.8275862 33.3769009,14.7586207 C33.2389699,12.7586207 33.0320733,10.7586207 32.8251768,8.62068966 L32.8251768,8.62068966 Z M1.23896988,14.5517241 C1.3079354,14.4137931 1.37690091,14.3448276 1.37690091,14.2758621 C1.85965953,13.1724138 2.27345264,12.0689655 2.82517677,10.9655172 C3.58379746,9.37931034 3.51483195,9.51724138 2.06655608,8.89655172 C1.92862505,8.82758621 1.85965953,8.82758621 1.7217285,8.75862069 C1.23896988,9.31034483 0.825176775,13.6551724 1.23896988,14.5517241 L1.23896988,14.5517241 Z M24.6182802,30 C24.6182802,28.4137931 24.6182802,27.0344828 24.6182802,25.5862069 C24.6182802,25.1034483 24.2734526,25.1724138 23.9286251,25.2413793 C23.3769009,25.3793103 22.8941423,25.5172414 22.3424182,25.6551724 C21.1010388,25.9310345 19.9286251,26.2068966 18.6872457,26.4827586 C18.5493147,26.4827586 18.4803492,26.6206897 18.2044871,26.6896552 C20.4113837,27.862069 22.4803492,28.8965517 24.6182802,30 L24.6182802,30 Z M18.2044871,7.51724138 C18.5493147,7.65517241 18.6872457,7.72413793 18.8251768,7.72413793 C19.652763,7.93103448 20.4803492,8.13793103 21.3079354,8.27586207 C22.2734526,8.48275862 23.1700044,8.62068966 24.1355216,8.82758621 C24.5493147,8.89655172 24.6872457,8.75862069 24.6872457,8.34482759 C24.6182802,7.79310345 24.6872457,7.31034483 24.6872457,6.75862069 C24.6872457,5.93103448 24.6872457,5.10344828 24.6872457,4.06896552 C22.4113837,5.24137931 20.4113837,6.34482759 18.2044871,7.51724138 L18.2044871,7.51724138 Z M7.79069402,18.4137931 C7.7217285,18.4137931 7.65276298,18.3448276 7.51483195,18.3448276 C6.41138367,20.3448276 5.37690091,22.4137931 4.27345264,24.4827586 L9.17000436,24.4827586 C8.68724574,22.4137931 8.27345264,20.4137931 7.79069402,18.4137931 L7.79069402,18.4137931 Z M26.8941423,18.2068966 C26.7562113,18.2758621 26.7562113,18.3448276 26.7562113,18.3448276 C26.2734526,20.2068966 25.8596595,22.0689655 25.4458664,23.9310345 C25.3079354,24.4137931 25.652763,24.4827586 25.9975906,24.4827586 C26.8251768,24.4827586 27.652763,24.4827586 28.4803492,24.4827586 C28.9631078,24.4827586 29.5148319,24.4827586 30.1355216,24.4827586 C28.9631078,22.2758621 27.9286251,20.2758621 26.8941423,18.2068966 L26.8941423,18.2068966 Z M30.0665561,9.79310345 C29.9975906,9.72413793 29.9286251,9.65517241 29.8596595,9.65517241 C28.4803492,9.65517241 27.1010388,9.5862069 25.7217285,9.65517241 C25.652763,9.65517241 25.4458664,10 25.4458664,10.137931 C25.5148319,10.7586207 25.652763,11.3103448 25.790694,11.862069 C26.0665561,13.1034483 26.3424182,14.4137931 26.6182802,15.6551724 C26.6182802,15.7931034 26.8251768,15.862069 26.8941423,16 C27.9286251,13.862069 28.9631078,11.7931034 30.0665561,9.79310345 L30.0665561,9.79310345 Z M9.79069402,29.862069 C9.85965953,29.9310345 9.92862505,30 9.99759057,30 C12.0665561,28.8965517 14.1355216,27.7931034 16.4113837,26.6206897 C14.2734526,26.137931 12.2734526,25.7241379 10.3424182,25.3103448 C9.99759057,25.2413793 9.85965953,25.3793103 9.85965953,25.7241379 C9.79069402,27.1034483 9.79069402,28.4827586 9.79069402,29.862069 L9.79069402,29.862069 Z M16.0665561,7.51724138 C15.9975906,7.37931034 15.9975906,7.31034483 15.9286251,7.31034483 C14.0665561,6.34482759 12.2044871,5.31034483 10.3424182,4.34482759 C9.92862505,4.13793103 9.79069402,4.27586207 9.79069402,4.68965517 C9.79069402,5.86206897 9.79069402,7.03448276 9.85965953,8.20689655 C9.85965953,8.96551724 9.92862505,9.03448276 10.6872457,8.82758621 C12.3424182,8.48275862 13.9975906,8.06896552 15.652763,7.72413793 C15.790694,7.65517241 15.8596595,7.5862069 16.0665561,7.51724138 L16.0665561,7.51724138 Z M7.51483195,15.862069 C7.65276298,15.862069 7.7217285,15.7931034 7.85965953,15.7931034 C8.27345264,13.7931034 8.75621126,11.7931034 9.23896988,9.72413793 C7.65276298,9.51724138 6.06655608,9.5862069 4.34241815,9.72413793 C5.37690091,11.862069 6.48034919,13.862069 7.51483195,15.862069 L7.51483195,15.862069 Z M27.5148319,30.137931 L27.5148319,30.137931 C28.2044871,30.0689655 28.8941423,30.0689655 29.5837975,30.0689655 C29.9286251,30.0689655 30.1355216,29.9310345 30.1355216,29.5172414 C30.1355216,28.2758621 30.1355216,26.9655172 30.1355216,25.7241379 C30.1355216,25.3103448 29.9286251,25.1724138 29.5148319,25.1724138 C28.2734526,25.1724138 27.0320733,25.1724138 25.790694,25.1724138 C25.3769009,25.1724138 25.1700044,25.3103448 25.1700044,25.7241379 C25.1700044,27.0344828 25.1700044,28.3448276 25.1700044,29.6551724 C25.1700044,29.7931034 25.4458664,30.0689655 25.5837975,30.0689655 C26.2734526,30.137931 26.8941423,30.137931 27.5148319,30.137931 L27.5148319,30.137931 Z M4.06655608,30.2068966 C5.7217285,30.2068966 7.17000436,30.2068966 8.68724574,30.2068966 C9.10103884,30.2068966 9.23896988,30 9.23896988,29.5862069 C9.23896988,28.3448276 9.23896988,27.1034483 9.23896988,25.862069 C9.23896988,25.3793103 9.03207333,25.2413793 8.54931471,25.2413793 C7.51483195,25.2413793 6.54931471,25.2413793 5.51483195,25.2413793 C4.1355216,25.2413793 4.1355216,25.2413793 4.06655608,26.5517241 C4.06655608,27.7241379 4.06655608,28.8965517 4.06655608,30.2068966 L4.06655608,30.2068966 Z M25.2389699,9.10344828 C26.8251768,9.10344828 28.3424182,9.10344828 29.8596595,9.10344828 C29.9975906,9.10344828 30.2044871,8.75862069 30.2044871,8.62068966 C30.2734526,8 30.2734526,7.31034483 30.2734526,6.68965517 C30.2734526,5.79310345 30.2734526,4.96551724 30.2734526,4.06896552 L25.2389699,4.06896552 L25.2389699,9.10344828 Z M9.17000436,3.93103448 C7.58379746,3.93103448 6.06655608,3.93103448 4.54931471,3.93103448 C4.20448712,3.93103448 4.06655608,4.13793103 4.06655608,4.48275862 C4.06655608,4.96551724 4.06655608,5.44827586 4.06655608,5.93103448 C4.06655608,6.82758621 4.06655608,7.79310345 4.1355216,8.68965517 C4.1355216,8.82758621 4.34241815,9.10344828 4.48034919,9.10344828 C5.92862505,9.10344828 7.37690091,9.10344828 8.82517677,9.03448276 C8.96310781,9.03448276 9.17000436,8.82758621 9.17000436,8.68965517 C9.23896988,7.17241379 9.17000436,5.65517241 9.17000436,3.93103448 L9.17000436,3.93103448 Z M24.2044871,3.72413793 C23.5837975,3.44827586 23.1700044,3.17241379 22.7562113,2.96551724 C21.1700044,2.27586207 19.652763,1.5862069 18.0665561,0.965517241 C17.7217285,0.827586207 17.2389699,0.75862069 16.8251768,0.896551724 C15.5148319,1.37931034 14.2044871,1.93103448 12.9631078,2.48275862 C12.0665561,2.82758621 11.1700044,3.31034483 10.2044871,3.72413793 C10.8941423,4 11.4458664,4.27586207 11.9975906,4.55172414 C13.652763,5.37931034 15.3079354,6.27586207 16.9631078,7.10344828 C17.1700044,7.24137931 17.5837975,7.17241379 17.790694,7.10344828 C19.1700044,6.4137931 20.4803492,5.72413793 21.8596595,5.03448276 C22.5493147,4.55172414 23.3079354,4.13793103 24.2044871,3.72413793 L24.2044871,3.72413793 Z M30.6182802,10.2758621 C30.5493147,10.2758621 30.4803492,10.2758621 30.4113837,10.2758621 C30.3424182,10.3448276 30.3424182,10.4137931 30.2734526,10.4827586 C29.5837975,11.7931034 28.9631078,13.0344828 28.2734526,14.3448276 C27.9286251,15.0344828 27.4458664,15.7241379 27.1010388,16.4827586 C26.9631078,16.7586207 26.8941423,17.2413793 27.0320733,17.5172414 C27.3769009,18.2758621 27.790694,19.0344828 28.1355216,19.7931034 C28.6872457,20.8965517 29.3079354,22 29.8596595,23.1034483 C29.9975906,23.3793103 30.1355216,23.7241379 30.3424182,24.0689655 C30.4803492,23.9310345 30.4803492,23.862069 30.5493147,23.7931034 C31.5148319,21.5862069 32.4803492,19.3793103 33.3769009,17.2413793 C33.4458664,17.1034483 33.3769009,16.9655172 33.3769009,16.8275862 C32.9631078,15.7931034 32.4803492,14.7586207 32.0665561,13.7241379 C31.9286251,13.4482759 31.8596595,13.2413793 31.7217285,13.0344828 C31.4458664,12.0689655 31.0320733,11.1724138 30.6182802,10.2758621 L30.6182802,10.2758621 Z M10.2044871,30.4827586 C10.6182802,30.6896552 10.8251768,30.8275862 11.0320733,30.8965517 C11.652763,31.1724138 12.2734526,31.3793103 12.8941423,31.6551724 C14.0665561,32.2068966 15.2389699,32.7586207 16.4803492,33.3103448 C16.8251768,33.4482759 17.3079354,33.4482759 17.7217285,33.3103448 C18.3424182,33.1034483 18.9631078,32.7586207 19.5837975,32.4827586 C21.0320733,31.862069 22.5493147,31.2413793 24.1355216,30.5517241 C23.4458664,30.137931 22.8941423,29.862069 22.3424182,29.5862069 C20.7562113,28.7586207 19.1700044,27.9310345 17.5837975,27.1724138 C17.3079354,27.0344828 16.8941423,27.0344828 16.6182802,27.1724138 C14.9631078,28 13.3079354,28.8965517 11.652763,29.7241379 C11.3079354,29.9310345 10.8251768,30.2068966 10.2044871,30.4827586 L10.2044871,30.4827586 Z M3.92862505,10.2068966 C3.7217285,10.4827586 3.58379746,10.6206897 3.51483195,10.7586207 C2.75621126,12.5517241 1.99759057,14.2758621 1.23896988,16.0689655 C0.894142292,16.8275862 0.894142292,17.5172414 1.3079354,18.2758621 C2.06655608,19.862069 2.68724574,21.5172414 3.44586643,23.1034483 C3.58379746,23.3793103 3.79069402,23.6551724 3.92862505,24 C4.06655608,23.862069 4.1355216,23.7931034 4.1355216,23.7931034 C5.10103884,21.9310345 6.1355216,20 7.10103884,18.137931 C7.44586643,17.5172414 7.51483195,16.9655172 7.17000436,16.3448276 C6.27345264,14.7586207 5.51483195,13.1034483 4.61828022,11.5172414 C4.41138367,11.0344828 4.20448712,10.6896552 3.92862505,10.2068966 L3.92862505,10.2068966 Z M17.2389699,8 C16.7562113,8.06896552 16.2734526,8.20689655 15.790694,8.27586207 C13.9975906,8.62068966 12.2044871,9.03448276 10.4113837,9.37931034 C9.99759057,9.44827586 9.79069402,9.65517241 9.7217285,10.137931 C9.58379746,11.1724138 9.23896988,12.137931 9.03207333,13.1034483 C8.82517677,14.0689655 8.54931471,15.1034483 8.34241815,16.0689655 C8.27345264,16.4827586 8.1355216,16.9655172 8.20448712,17.3793103 C8.68724574,19.6551724 9.23896988,21.862069 9.7217285,24.137931 C9.79069402,24.2758621 9.92862505,24.5517241 10.0665561,24.5517241 C11.8596595,24.9655172 13.7217285,25.3793103 15.5148319,25.7931034 C16.2044871,25.9310345 16.8941423,26.137931 17.5837975,26 C19.652763,25.5862069 21.7217285,25.0344828 23.8596595,24.6206897 C24.4803492,24.4827586 24.7562113,24.137931 24.8251768,23.5862069 C25.1700044,21.862069 25.5837975,20.137931 25.9286251,18.4827586 C26.0665561,17.7931034 26.2044871,17.1034483 26.0665561,16.4827586 C25.7217285,14.5517241 25.3769009,12.6896552 24.9631078,10.8275862 C24.8251768,10.2758621 24.8251768,9.5862069 23.8596595,9.44827586 C22.4113837,9.24137931 20.9631078,8.82758621 19.5148319,8.48275862 C18.8251768,8.27586207 18.0665561,8.20689655 17.2389699,8 L17.2389699,8 Z M17.5148319,0 C19.5148319,0.206896552 21.9975906,0.413793103 24.4113837,0.689655172 C24.5493147,0.689655172 24.6872457,0.75862069 24.7562113,0.75862069 C25.9975906,0.551724138 26.9631078,1.24137931 27.9286251,1.86206897 C28.3424182,2.13793103 28.7562113,2.48275862 29.2389699,2.68965517 C30.6872457,3.31034483 31.3079354,4.55172414 31.9975906,5.79310345 C32.1355216,6.06896552 32.2734526,6.34482759 32.4113837,6.62068966 C33.5837975,8.13793103 33.4458664,9.93103448 33.652763,11.6551724 C33.790694,13.1034483 33.9286251,14.5517241 33.9286251,16 C33.9286251,17.5862069 33.790694,19.1034483 33.7217285,20.6896552 C33.652763,21.5172414 33.7217285,22.3448276 33.5837975,23.1724138 C33.4458664,24.2758621 33.5148319,25.3793103 33.1010388,26.3448276 C32.5493147,27.7241379 31.7217285,28.9655172 30.8941423,30.2758621 C30.6182802,30.6896552 30.2044871,31.0344828 29.790694,31.2413793 C29.1010388,31.7241379 28.2044871,32 27.5837975,32.5517241 C26.5493147,33.4482759 25.2389699,33.5862069 23.9975906,33.7241379 C22.1355216,33.9310345 20.2044871,34 18.3424182,34.137931 C18.1355216,34.137931 17.9286251,34.2758621 17.7217285,34.2758621 C17.5148319,34.3448276 17.1700044,34.4827586 17.0320733,34.4137931 C15.7217285,33.9310345 14.4113837,34.2758621 13.1010388,34.0689655 C11.5837975,33.862069 9.99759057,33.862069 8.41138367,33.6551724 C7.79069402,33.5862069 7.23896988,33.1724138 6.61828022,32.8275862 C5.85965953,32.4137931 5.17000436,31.9310345 4.41138367,31.5172414 C3.7217285,31.1724138 3.23896988,30.6206897 2.89414229,29.9310345 C2.41138367,28.8965517 1.79069402,28 1.17000436,27.0344828 C1.03207333,26.7586207 0.825176775,26.4827586 0.825176775,26.2068966 C0.68724574,25.1034483 0.618280223,24 0.480349188,22.9655172 C0.411383671,22.3448276 0.411383671,21.7931034 0.342418154,21.1724138 C0.273452637,20.2758621 0.204487119,19.3793103 0.135521602,18.4827586 C0.135521602,18.4137931 0.135521602,18.3448276 0.135521602,18.2758621 C-0.209305984,16.7586207 0.204487119,15.2413793 0.273452637,13.7931034 C0.342418154,12 0.618280223,10.2758621 0.825176775,8.48275862 C0.825176775,8.20689655 0.963107809,8 1.10103884,7.72413793 C1.79069402,6.55172414 2.48034919,5.44827586 3.10103884,4.27586207 C3.51483195,3.44827586 4.41138367,3.17241379 5.10103884,2.68965517 C5.99759057,2.13793103 6.82517677,1.65517241 7.7217285,1.10344828 C7.85965953,1.03448276 8.06655608,0.896551724 8.27345264,0.896551724 C9.10103884,0.827586207 9.85965953,0.689655172 10.6872457,0.620689655 C12.8941423,0.275862069 14.9631078,0.137931034 17.5148319,0 L17.5148319,0 Z" id="cushion-cut"></path>
                        </g>
                    </g>
                </g>
            </g>
        </g>
    </g>
</svg>