<?xml version="1.0" encoding="UTF-8"?>
<svg width="26.4827586px" height="34.3601533px" viewBox="0 0 26.4827586 34.3601533" version="1.1" xmlns="http://www.w3.org/2000/svg" xmlns:xlink="http://www.w3.org/1999/xlink">
    <title>d3</title>
    <g id="Symbols" stroke="none" stroke-width="1" fill="none" fill-rule="evenodd">
        <g id="demo/desktop" transform="translate(-250.5517, -325.1034)" fill="#FFFFFF" fill-rule="nonzero">
            <g id="form" transform="translate(0, 248)">
                <g id="Group-21" transform="translate(0, 44)">
                    <g id="Group-15-Copy" transform="translate(214, 0)">
                        <g id="d3" transform="translate(36.5517, 33.1034)">
                            <path d="M4.20689655,28.2068966 C4.89655172,28.9655172 5.5862069,29.6551724 6.20689655,30.3448276 C6.4137931,30.6206897 6.62068966,30.6896552 6.89655172,30.3448276 C7.17241379,30.0689655 7.31034483,29.7931034 6.96551724,29.4482759 C6.48275862,29.0344828 6.06896552,28.5517241 5.65517241,28.137931 C5.03448276,27.5172414 4.82758621,27.5172414 4.20689655,28.2068966 L4.20689655,28.2068966 Z M6.27586207,3.37931034 C5.44827586,4.20689655 4.62068966,5.03448276 3.86206897,5.79310345 C4.48275862,6.48275862 4.75862069,6.62068966 5.03448276,6.27586207 C5.72413793,5.65517241 6.34482759,4.89655172 7.03448276,4.20689655 C6.75862069,4 6.55172414,3.72413793 6.27586207,3.37931034 L6.27586207,3.37931034 Z M21.5172414,27.4482759 C20.8965517,28.0689655 20.3448276,28.6896552 19.7931034,29.2413793 C19.5172414,29.5172414 19.3103448,29.7931034 19.6551724,30.2068966 C20,30.6206897 20.2068966,30.6206897 20.5517241,30.2068966 C21.1724138,29.5172414 21.862069,28.8965517 22.6206897,28.2068966 C22.2758621,27.9310345 21.9310345,27.7241379 21.5172414,27.4482759 L21.5172414,27.4482759 Z M22.4137931,5.79310345 C21.862069,5.24137931 21.3103448,4.68965517 20.7586207,4.13793103 C19.9310345,3.31034483 19.9310345,3.31034483 19.1724138,4.20689655 C19.1724138,4.20689655 19.1724138,4.27586207 19.1034483,4.4137931 C19.5862069,4.89655172 20,5.37931034 20.4827586,5.93103448 C21.3103448,6.68965517 21.4482759,6.68965517 22.4137931,5.79310345 L22.4137931,5.79310345 Z M2.62068966,29.0344828 C3.44827586,29.9310345 4.34482759,30.8275862 5.17241379,31.7931034 C5.44827586,32.0689655 5.72413793,31.9310345 5.86206897,31.6551724 C6.06896552,31.3793103 6.34482759,31.1724138 6,30.8275862 C5.37931034,30.2758621 4.75862069,29.6551724 4.13793103,29.1034483 C3.44827586,28.4137931 3.37931034,28.4137931 2.62068966,29.0344828 L2.62068966,29.0344828 Z M21.2413793,32.2068966 C22.2758621,31.1724138 23.1724138,30.137931 24.137931,29.1724138 C24,29.1034483 23.862069,29.0344828 23.7241379,28.8965517 C23.3103448,28.4827586 22.9655172,28.4827586 22.5517241,28.9655172 C22,29.5862069 21.3103448,30.2068966 20.7586207,30.8275862 C20.6206897,30.9655172 20.6206897,31.3103448 20.6896552,31.5172414 C20.7586207,31.7241379 20.9655172,31.862069 21.2413793,32.2068966 L21.2413793,32.2068966 Z M3.31034483,5.5862069 C3.44827586,5.51724138 3.51724138,5.51724138 3.5862069,5.44827586 C4.34482759,4.68965517 5.03448276,4 5.72413793,3.24137931 C6.06896552,2.89655172 5.79310345,2.62068966 5.51724138,2.34482759 C5.24137931,2.06896552 5.03448276,2.06896552 4.75862069,2.34482759 C4,3.10344828 3.24137931,3.86206897 2.48275862,4.62068966 C2.4137931,4.68965517 2.34482759,5.03448276 2.4137931,5.10344828 C2.68965517,5.31034483 2.96551724,5.44827586 3.31034483,5.5862069 L3.31034483,5.5862069 Z M25.3103448,4 C24.2068966,2.82758621 23.1724138,1.72413793 22.0689655,0.551724138 C21.7241379,0.896551724 21.5172414,1.17241379 21.2413793,1.51724138 C22.137931,2.4137931 23.0344828,3.24137931 23.9310345,4.06896552 C24.6206897,4.68965517 24.6896552,4.68965517 25.3103448,4 L25.3103448,4 Z M20.9655172,1.93103448 C20.7586207,2.20689655 20.5517241,2.4137931 20.4137931,2.68965517 C20.3448276,2.82758621 20.4137931,3.17241379 20.4827586,3.31034483 C21.1724138,4 21.862069,4.68965517 22.6206897,5.37931034 C23.1034483,5.86206897 23.3103448,5.24137931 23.6551724,5.10344828 C24,4.89655172 23.862069,4.68965517 23.6551724,4.4137931 C22.8965517,3.65517241 22.137931,2.89655172 21.3793103,2.13793103 C21.2413793,2.13793103 21.1724138,2.06896552 20.9655172,1.93103448 L20.9655172,1.93103448 Z M4.06896552,0.551724138 C2.89655172,1.72413793 1.79310345,2.82758621 0.75862069,3.86206897 C1.44827586,4.75862069 1.72413793,4.75862069 2.34482759,4.13793103 C2.55172414,3.93103448 2.82758621,3.65517241 3.03448276,3.44827586 C3.65517241,2.82758621 4.27586207,2.20689655 4.89655172,1.51724138 C4.62068966,1.17241379 4.4137931,0.965517241 4.06896552,0.551724138 L4.06896552,0.551724138 Z M25.862069,30.0689655 C25.3103448,29.862069 25.0344828,29.1724138 24.4827586,29.6551724 C23.4482759,30.5517241 22.5517241,31.5172414 21.5172414,32.5517241 C21.862069,32.8965517 22.137931,33.2413793 22.3448276,33.4482759 C23.4482759,32.3448276 24.6206897,31.2413793 25.862069,30.0689655 L25.862069,30.0689655 Z M1.03448276,30.0689655 C2.06896552,31.1034483 3.03448276,32.0689655 4,33.1034483 C4.20689655,33.3103448 4.4137931,33.6551724 4.75862069,33.2413793 C5.03448276,32.8965517 5.37931034,32.6206897 4.89655172,32.137931 C4.20689655,31.4482759 3.51724138,30.7586207 2.82758621,30.0689655 C2.06896552,29.3103448 2,29.3103448 1.03448276,30.0689655 L1.03448276,30.0689655 Z M7.24137931,30.8275862 L19.5172414,30.8275862 C19.5172414,30.7586207 19.5862069,30.6896552 19.5862069,30.6206897 C19.2413793,30.4827586 18.9655172,30.137931 18.6206897,30.137931 C15.2413793,30.137931 11.7931034,30.137931 8.4137931,30.137931 C7.93103448,30.0689655 7.44827586,30.2068966 7.24137931,30.8275862 L7.24137931,30.8275862 Z M21.2413793,0.827586207 C21.2413793,0.75862069 21.1724138,0.689655172 21.1724138,0.551724138 C20,0.551724138 18.8275862,0.551724138 17.5862069,0.551724138 C15.6551724,0.551724138 13.7931034,0.551724138 11.862069,0.551724138 C9.72413793,0.551724138 7.65517241,0.551724138 5.51724138,0.551724138 C5.31034483,0.551724138 5.17241379,0.689655172 4.96551724,0.75862069 C4.96551724,0.827586207 4.96551724,0.896551724 4.96551724,1.03448276 C5.37931034,1.10344828 5.72413793,1.24137931 6.13793103,1.24137931 C8.20689655,1.24137931 10.2758621,1.17241379 12.4137931,1.17241379 C15.1034483,1.17241379 17.7931034,1.17241379 20.4827586,1.17241379 C20.6896552,1.10344828 20.9655172,0.896551724 21.2413793,0.827586207 L21.2413793,0.827586207 Z M6.96551724,3.24137931 C7.10344828,3.93103448 7.51724138,4.06896552 8.06896552,4.06896552 C10.137931,4 12.2758621,4.06896552 14.3448276,4.06896552 C15.6551724,4.06896552 16.9655172,4.06896552 18.2068966,4 C18.6896552,4 19.0344828,3.79310345 19.1724138,3.24137931 L6.96551724,3.24137931 Z M20.2068966,1.86206897 L5.93103448,1.86206897 C6.20689655,2.62068966 6.68965517,2.68965517 7.31034483,2.68965517 C10.137931,2.68965517 12.9655172,2.68965517 15.7931034,2.68965517 C16.8965517,2.68965517 18,2.75862069 19.1034483,2.75862069 C19.7931034,2.68965517 20.137931,2.4137931 20.2068966,1.86206897 L20.2068966,1.86206897 Z M20.6206897,32.2068966 C20.2758621,31.5172414 19.7931034,31.4482759 19.2413793,31.4482759 C15.2413793,31.4482759 11.2413793,31.4482759 7.24137931,31.4482759 C6.68965517,31.4482759 6.55172414,31.5862069 6.34482759,32.2758621 L20.6206897,32.2758621 L20.6206897,32.2068966 Z M5.17241379,33.5862069 L21.6551724,33.5862069 C21.4482759,32.8275862 20.9655172,32.7586207 20.4137931,32.7586207 C18.4137931,32.7586207 16.4137931,32.7586207 14.4137931,32.7586207 C11.6551724,32.7586207 8.96551724,32.7586207 6.20689655,32.7586207 C5.72413793,32.6896552 5.44827586,33.0344828 5.17241379,33.5862069 L5.17241379,33.5862069 Z M3.93103448,27.6551724 C4.68965517,27.2413793 4.68965517,26.6896552 4.68965517,26.0689655 C4.62068966,21.7931034 4.62068966,17.5172414 4.55172414,13.3103448 C4.55172414,11.4482759 4.48275862,9.51724138 4.48275862,7.65517241 C4.48275862,7.17241379 4.34482759,6.75862069 3.72413793,6.62068966 C3.79310345,13.5862069 3.86206897,20.5517241 3.93103448,27.6551724 L3.93103448,27.6551724 Z M22.5517241,6.62068966 C22.4827586,6.62068966 22.3448276,6.55172414 22.2758621,6.55172414 C22.137931,6.82758621 21.862069,7.03448276 21.7931034,7.31034483 C21.7241379,7.86206897 21.7241379,8.4137931 21.7931034,8.96551724 C21.7931034,10.3448276 21.862069,11.7241379 21.862069,13.0344828 C21.862069,14.2068966 21.862069,15.3103448 21.862069,16.4827586 C21.862069,18.8275862 21.9310345,21.1034483 21.9310345,23.4482759 C21.9310345,24.4827586 21.862069,25.5172414 21.9310345,26.5517241 C21.9310345,26.9655172 22.137931,27.4482759 22.8275862,27.3793103 C22.6896552,20.4827586 22.6206897,13.5172414 22.5517241,6.62068966 L22.5517241,6.62068966 Z M0.689655172,4.75862069 C0.75862069,12.9655172 0.827586207,21.1034483 0.965517241,29.3103448 C1.86206897,28.9655172 1.79310345,28.4137931 1.79310345,27.862069 C1.79310345,25.7931034 1.72413793,23.6551724 1.72413793,21.5862069 C1.65517241,16.3448276 1.65517241,11.1034483 1.5862069,5.86206897 C1.51724138,5.37931034 1.37931034,4.96551724 0.689655172,4.75862069 L0.689655172,4.75862069 Z M25.5862069,4.75862069 C24.9655172,4.82758621 24.6896552,5.10344828 24.7586207,5.65517241 C24.7586207,6.20689655 24.8275862,6.68965517 24.8275862,7.24137931 C24.8275862,9.37931034 24.8275862,11.4482759 24.8965517,13.5862069 C24.8965517,16.137931 24.9655172,18.6896552 25.0344828,21.2413793 C25.0344828,23.6551724 25.1034483,26.137931 25.1034483,28.5517241 C25.1034483,29.1724138 25.4482759,29.2413793 25.9310345,29.3103448 C25.7931034,21.0344828 25.6551724,12.8965517 25.5862069,4.75862069 L25.5862069,4.75862069 Z M2.34482759,28.4827586 C2.4137931,28.5517241 2.55172414,28.5517241 2.62068966,28.6206897 C2.89655172,28.2068966 3.31034483,27.862069 3.31034483,27.4482759 C3.37931034,25.7931034 3.24137931,24.137931 3.24137931,22.4827586 C3.17241379,17.3103448 3.17241379,12.0689655 3.10344828,6.89655172 C3.10344828,6.13793103 2.96551724,5.93103448 2.06896552,5.5862069 C2.20689655,13.2413793 2.27586207,20.8275862 2.34482759,28.4827586 L2.34482759,28.4827586 Z M24.4137931,28.4827586 C24.3448276,20.8275862 24.2758621,13.2413793 24.2068966,5.65517241 C23.2413793,5.79310345 23.1034483,5.93103448 23.1034483,6.75862069 C23.1034483,7.31034483 23.1034483,7.93103448 23.1034483,8.48275862 C23.1724138,10.0689655 23.1724138,11.6551724 23.2413793,13.2413793 C23.2413793,14.6206897 23.2413793,16 23.2413793,17.3793103 C23.2413793,18.5517241 23.2413793,19.7241379 23.3103448,20.8965517 C23.3103448,22 23.3793103,23.1034483 23.3793103,24.2068966 C23.3793103,25.0344828 23.3103448,25.862069 23.3793103,26.6206897 C23.3103448,27.3793103 23.1034483,28.2758621 24.4137931,28.4827586 L24.4137931,28.4827586 Z M13.3103448,29.4482759 L13.3103448,29.4482759 C14.8965517,29.4482759 16.4827586,29.3793103 18,29.4482759 C18.8275862,29.4482759 19.4482759,29.2413793 20,28.5517241 C20.2758621,28.137931 20.6896552,27.7931034 20.9655172,27.3793103 C21.1724138,27.1034483 21.3103448,26.7586207 21.3103448,26.4137931 C21.3103448,24.7586207 21.2413793,23.1724138 21.2413793,21.5172414 C21.1724138,17.2413793 21.1034483,12.9655172 21.1724138,8.68965517 C21.1724138,7.37931034 20.8275862,6.34482759 19.7931034,5.51724138 C19.1724138,4.96551724 18.6206897,4.48275862 17.6551724,4.48275862 C14.4137931,4.55172414 11.2413793,4.55172414 8,4.55172414 C7.72413793,4.55172414 7.31034483,4.68965517 7.10344828,4.89655172 C6.48275862,5.44827586 5.93103448,6.06896552 5.37931034,6.62068966 C5.24137931,6.82758621 5.10344828,7.10344828 5.10344828,7.31034483 C5.10344828,9.65517241 5.17241379,12 5.24137931,14.3448276 C5.24137931,16.4137931 5.31034483,18.4137931 5.31034483,20.4827586 C5.31034483,22.137931 5.31034483,23.7931034 5.31034483,25.5172414 C5.31034483,26.4827586 5.37931034,27.3793103 6.27586207,28 C6.62068966,28.2068966 6.82758621,28.6206897 7.10344828,28.8275862 C7.44827586,29.0344828 7.86206897,29.3103448 8.20689655,29.3103448 C9.93103448,29.4482759 11.5862069,29.4482759 13.3103448,29.4482759 L13.3103448,29.4482759 Z M0,16.9655172 C0,12.8965517 0,8.82758621 0,4.82758621 C0,4.27586207 0.137931034,3.93103448 0.551724138,3.5862069 C1.51724138,2.68965517 2.4137931,1.72413793 3.31034483,0.75862069 C3.72413793,0.275862069 4.20689655,0 4.89655172,0 C9.24137931,0 13.5862069,0 17.9310345,0 C18.9655172,0 20.0689655,0 21.1034483,0 C21.6551724,0 22.0689655,0.137931034 22.4827586,0.551724138 C23.3103448,1.37931034 24.137931,2.20689655 25.0344828,3.03448276 C25.7931034,3.79310345 26.2758621,4.55172414 26.2068966,5.72413793 C26.0689655,8 26.2068966,10.2068966 26.2068966,12.4827586 C26.2068966,14.2068966 26.2758621,15.9310345 26.3448276,17.5862069 C26.3448276,18.9655172 26.2758621,20.2758621 26.3448276,21.6551724 C26.3448276,23.0344828 26.4827586,24.4137931 26.4827586,25.862069 C26.4827586,27.1034483 26.4827586,28.3448276 26.4827586,29.5862069 C26.4827586,30.3448276 25.862069,30.6896552 25.4482759,31.1034483 C24.5517241,32.0689655 23.6551724,32.9655172 22.7586207,33.9310345 C22.2758621,34.4827586 21.5862069,34.3448276 21.0344828,34.3448276 C19.3793103,34.3448276 17.7241379,34.2758621 16.0689655,34.2758621 C13.4482759,34.2758621 10.8965517,34.3448276 8.27586207,34.3448276 C7.31034483,34.3448276 6.27586207,34.2758621 5.31034483,34.2758621 C4.75862069,34.2758621 4.27586207,34 3.86206897,33.5862069 C2.82758621,32.5517241 1.79310345,31.5172414 0.75862069,30.4137931 C0.551724138,30.137931 0.344827586,29.7241379 0.344827586,29.3793103 C0.344827586,25.2413793 0.344827586,21.1724138 0.344827586,17.0344828 C0.206896552,16.9655172 0.0689655172,16.9655172 0,16.9655172 L0,16.9655172 Z" id="emerald-cut"></path>
                        </g>
                    </g>
                </g>
            </g>
        </g>
    </g>
</svg>