<?xml version="1.0" encoding="UTF-8"?>
<svg width="27.6551724px" height="34.3065134px" viewBox="0 0 27.6551724 34.3065134" version="1.1" xmlns="http://www.w3.org/2000/svg" xmlns:xlink="http://www.w3.org/1999/xlink">
    <title>d4</title>
    <g id="Symbols" stroke="none" stroke-width="1" fill="none" fill-rule="evenodd">
        <g id="demo/desktop" transform="translate(-356.8621, -325.1034)" fill="#FFFFFF" fill-rule="nonzero">
            <g id="form" transform="translate(0, 248)">
                <g id="Group-21" transform="translate(0, 44)">
                    <g id="Group-16-Copy" transform="translate(321, 0)">
                        <g id="d4" transform="translate(35.8621, 33.1034)">
                            <path d="M6.13793103,30.3754789 C6.20689655,30.3065134 6.27586207,30.3065134 6.34482759,30.2375479 C6.34482759,29.6168582 6.34482759,28.9961686 6.34482759,28.4444444 C6.34482759,28.3754789 6.13793103,28.2375479 6.06896552,28.1685824 C5.51724138,28.1685824 4.89655172,28.1685824 4.20689655,28.1685824 C4.89655172,28.9961686 5.51724138,29.6858238 6.13793103,30.3754789 L6.13793103,30.3754789 Z M6.20689655,4.03065134 C6.13793103,3.96168582 6,3.89272031 5.93103448,3.82375479 C5.24137931,4.58237548 4.48275862,5.27203065 3.79310345,6.03065134 C3.86206897,6.09961686 3.86206897,6.16858238 3.93103448,6.30651341 C4.62068966,6.30651341 5.31034483,6.30651341 6,6.30651341 C6.06896552,6.30651341 6.20689655,6.09961686 6.20689655,6.03065134 C6.20689655,5.34099617 6.20689655,4.651341 6.20689655,4.03065134 L6.20689655,4.03065134 Z M23.5862069,6.30651341 C23.6551724,6.23754789 23.6551724,6.16858238 23.7241379,6.03065134 L21.6551724,3.96168582 C21.5862069,4.03065134 21.5172414,4.03065134 21.4482759,4.09961686 C21.4482759,4.72030651 21.3793103,5.40996169 21.3793103,6.03065134 C21.3793103,6.09961686 21.6551724,6.30651341 21.7931034,6.30651341 C22.2758621,6.30651341 22.9655172,6.30651341 23.5862069,6.30651341 L23.5862069,6.30651341 Z M21.6551724,30.3754789 C22.4137931,29.6168582 23.1724138,28.9272031 23.9310345,28.1685824 C23.2413793,28.1685824 22.5517241,28.1685824 21.9310345,28.1685824 C21.7931034,28.1685824 21.5862069,28.3065134 21.5862069,28.4444444 C21.5172414,29.1340996 21.5862069,29.8237548 21.6551724,30.3754789 L21.6551724,30.3754789 Z M7.03448276,30.7203065 C8.82758621,30.0306513 10.5517241,29.4099617 12.2068966,28.789272 C10.6206897,28.51341 9.10344828,28.3754789 7.51724138,28.1685824 C7.17241379,28.0996169 7.03448276,28.3754789 7.03448276,28.651341 C6.96551724,29.3409962 7.03448276,29.9616858 7.03448276,30.7203065 L7.03448276,30.7203065 Z M11.862069,5.61685824 C10.3448276,5.0651341 8.82758621,4.44444444 7.31034483,3.89272031 C6.89655172,3.75478927 6.75862069,3.89272031 6.75862069,4.30651341 C6.82758621,4.78927203 6.82758621,5.20306513 6.82758621,5.68582375 C6.82758621,6.09961686 6.96551724,6.23754789 7.37931034,6.23754789 C8.68965517,6.09961686 10,6.03065134 11.3793103,5.89272031 C11.5862069,5.82375479 11.7241379,5.68582375 11.862069,5.61685824 L11.862069,5.61685824 Z M20.9655172,28.1685824 C19.1724138,28.3754789 17.4482759,28.51341 15.7241379,28.7203065 C17.3793103,29.4099617 19.0344828,30.0996169 20.6206897,30.789272 C20.6896552,30.789272 20.9655172,30.5823755 20.9655172,30.4444444 C21.0344828,29.7547893 20.9655172,29.0651341 20.9655172,28.1685824 L20.9655172,28.1685824 Z M15.6551724,5.54789272 C15.6551724,5.61685824 15.6551724,5.68582375 15.6551724,5.75478927 C16.137931,5.82375479 16.5517241,5.82375479 17.0344828,5.89272031 C18.137931,6.03065134 19.1724138,6.09961686 20.2758621,6.16858238 C20.4137931,6.16858238 20.7586207,5.96168582 20.7586207,5.82375479 C20.8275862,5.20306513 20.7586207,4.51340996 20.7586207,3.75478927 C18.9655172,4.37547893 17.3103448,4.92720307 15.6551724,5.54789272 L15.6551724,5.54789272 Z M6.48275862,27.4789272 C6.27586207,24.8582375 6.06896552,22.3754789 5.86206897,19.8927203 C5.65517241,20.0996169 5.51724138,20.2375479 5.44827586,20.4444444 C5.24137931,21.4099617 5.10344828,22.3754789 4.89655172,23.2720307 C4.62068966,24.51341 4.20689655,25.7547893 3.86206897,26.9961686 C3.79310345,27.3409962 3.72413793,27.4789272 4.13793103,27.4789272 C4.82758621,27.4789272 5.5862069,27.4789272 6.48275862,27.4789272 L6.48275862,27.4789272 Z M22.137931,19.7547893 C22.137931,19.7547893 22.0689655,19.7547893 22.0689655,19.7547893 C22,20.4444444 21.9310345,21.1340996 21.862069,21.7547893 C21.7241379,23.4789272 21.6551724,25.2030651 21.5862069,26.8582375 C21.5862069,27.2720307 21.7241379,27.4789272 22.137931,27.4789272 C22.6206897,27.4789272 23.1034483,27.4789272 23.6551724,27.4789272 C24.2068966,27.4789272 24.2758621,27.2720307 24.137931,26.8582375 C23.9310345,26.1685824 23.6551724,25.5478927 23.4482759,24.8582375 C23.1034483,23.4099617 22.8275862,21.9616858 22.4827586,20.51341 C22.2758621,20.3065134 22.2068966,20.0306513 22.137931,19.7547893 L22.137931,19.7547893 Z M23.9310345,6.92720307 C23.6551724,6.92720307 23.3793103,6.92720307 23.1034483,6.92720307 C22.8275862,6.92720307 22.5517241,6.92720307 22.2068966,6.85823755 C21.4482759,6.78927203 21.3103448,6.99616858 21.3793103,7.75478927 C21.4482759,8.78927203 21.4482759,9.82375479 21.5172414,10.8582375 C21.6551724,12.2375479 21.7931034,13.5478927 21.9310345,15.0651341 C22.6206897,12.3065134 23.2413793,9.61685824 23.9310345,6.92720307 L23.9310345,6.92720307 Z M3.5862069,6.85823755 C4.27586207,9.54789272 5.03448276,12.1685824 5.72413793,14.789272 C5.86206897,13.8237548 5.93103448,12.8582375 6,11.8927203 C6.06896552,10.4444444 6.13793103,8.92720307 6.20689655,7.4789272 C6.20689655,7.0651341 6.06896552,6.85823755 5.65517241,6.85823755 C4.96551724,6.85823755 4.27586207,6.85823755 3.5862069,6.85823755 L3.5862069,6.85823755 Z M8.68965517,30.789272 C8.68965517,30.8582375 8.75862069,30.9272031 8.75862069,31.0651341 C12.2758621,30.9961686 15.7931034,31.1340996 19.3103448,30.9272031 C18,30.3754789 16.6896552,29.9616858 15.3793103,29.6168582 C14.5517241,29.4099617 13.7931034,29.2030651 12.9655172,29.4789272 C11.7931034,29.8237548 10.6896552,30.1685824 9.51724138,30.5823755 C9.24137931,30.5823755 8.96551724,30.7203065 8.68965517,30.789272 L8.68965517,30.789272 Z M19.5172414,3.61685824 C19.5172414,3.54789272 19.5172414,3.54789272 19.5172414,3.4789272 L8.13793103,3.4789272 C9.51724138,4.09961686 10.9655172,4.51340996 12.3448276,5.0651341 C13.3793103,5.40996169 14.3448276,5.27203065 15.3793103,4.99616858 C16.7586207,4.58237548 18.137931,4.03065134 19.5172414,3.61685824 L19.5172414,3.61685824 Z M21.5862069,31.2030651 C22.2068966,31.8927203 22.6206897,32.3754789 23.1034483,32.8582375 C23.9310345,33.6858238 23.9310345,33.6858238 24.6896552,32.8582375 C25.4482759,32.0996169 26.137931,31.3409962 26.8275862,30.651341 C26.137931,29.8927203 25.5172414,29.2030651 24.8965517,28.51341 C24.8275862,28.4444444 24.4827586,28.4444444 24.3448276,28.5823755 C23.4482759,29.4789272 22.5517241,30.3754789 21.5862069,31.2030651 L21.5862069,31.2030651 Z M0.482758621,3.82375479 C1.31034483,4.58237548 2,5.13409962 2.62068966,5.75478927 C2.96551724,6.09961686 3.17241379,6.03065134 3.44827586,5.75478927 C4.20689655,4.99616858 4.89655172,4.23754789 5.65517241,3.4789272 C5.93103448,3.20306513 5.93103448,2.99616858 5.65517241,2.72030651 C5.10344828,2.16858238 4.55172414,1.61685824 4,1.0651341 C3.79310345,0.858237548 3.5862069,0.858237548 3.37931034,1.0651341 C2.48275862,2.03065134 1.5862069,2.85823755 0.482758621,3.82375479 L0.482758621,3.82375479 Z M1.10344828,30.3065134 C2.13793103,31.4789272 3.10344828,32.51341 4,33.4789272 C4.75862069,32.7203065 5.44827586,32.0996169 6.13793103,31.4789272 C6.20689655,31.4099617 6.20689655,31.2030651 6.13793103,31.1340996 C5.24137931,30.0996169 4.34482759,29.0651341 3.44827586,28.0996169 C2.48275862,28.9961686 1.72413793,29.6858238 1.10344828,30.3065134 L1.10344828,30.3065134 Z M23.6551724,0.858237548 C22.9655172,1.54789272 22.2758621,2.23754789 21.6551724,2.92720307 C21.5862069,2.99616858 21.6551724,3.40996169 21.7931034,3.4789272 C22.5517241,4.30651341 23.3793103,5.0651341 24.137931,5.82375479 C24.4137931,6.09961686 24.6206897,6.09961686 24.8965517,5.82375479 C25.4482759,5.27203065 26.0689655,4.72030651 26.6206897,4.09961686 C26.6896552,4.03065134 26.6896552,3.68582375 26.6206897,3.61685824 C25.6551724,2.72030651 24.6896552,1.82375479 23.6551724,0.858237548 L23.6551724,0.858237548 Z M3.5862069,9.20306513 C3.5862069,9.20306513 3.5862069,9.20306513 3.5862069,9.20306513 L3.51724138,25.2720307 C3.5862069,25.2720307 3.65517241,25.2720307 3.72413793,25.2720307 C3.93103448,24.5823755 4.13793103,23.9616858 4.27586207,23.2720307 C4.55172414,21.7547893 4.75862069,20.2375479 5.10344828,18.7203065 C5.37931034,17.4099617 5.17241379,16.2375479 4.96551724,14.9961686 C4.75862069,13.7547893 4.48275862,12.51341 4.13793103,11.3409962 C4,10.5823755 3.79310345,9.89272031 3.5862069,9.20306513 L3.5862069,9.20306513 Z M24.2758621,25.8927203 L24.2758621,8.72030651 C24.2068966,8.72030651 24.137931,8.72030651 24.0689655,8.72030651 C23.7241379,9.96168582 23.3793103,11.2720307 23.0344828,12.51341 C22.8275862,13.4099617 22.8275862,14.3065134 22.5517241,15.2030651 C22.2068966,16.4444444 22.3448276,17.6858238 22.4827586,18.9272031 C22.6206897,19.9616858 22.8965517,20.9961686 23.1034483,22.0306513 C23.5172414,23.2720307 23.9310345,24.5823755 24.2758621,25.8927203 L24.2758621,25.8927203 Z M4.68965517,0.858237548 C5.44827586,1.96168582 6.20689655,2.85823755 7.65517241,2.78927203 C8.27586207,2.72030651 8.82758621,2.78927203 9.44827586,2.78927203 C12.9655172,2.78927203 16.4137931,2.72030651 19.9310345,2.72030651 C21.3793103,2.72030651 22.0689655,1.89272031 22.8275862,0.858237548 L4.68965517,0.858237548 Z M23.2413793,33.6858238 C23.2413793,33.6168582 23.3103448,33.6168582 23.3103448,33.5478927 C22.8965517,33.1340996 22.4827586,32.789272 22.137931,32.3754789 C21.6551724,31.8237548 21.1034483,31.6168582 20.3448276,31.6168582 C16,31.6168582 11.6551724,31.6168582 7.31034483,31.5478927 C7.10344828,31.5478927 6.75862069,31.5478927 6.62068966,31.6858238 C6,32.2375479 5.37931034,32.789272 4.75862069,33.3409962 C4.82758621,33.4099617 4.89655172,33.4789272 4.89655172,33.6168582 L23.2413793,33.6168582 L23.2413793,33.6858238 Z M26.8275862,4.651341 C26.2758621,5.20306513 25.862069,5.54789272 25.5172414,5.96168582 C25.2413793,6.30651341 24.9655172,6.72030651 24.8965517,7.13409962 C24.8275862,8.23754789 24.8965517,9.27203065 24.8965517,10.3754789 C24.8965517,12.9272031 24.9655172,15.5478927 24.9655172,18.0996169 C24.9655172,20.8582375 24.9655172,23.6858238 25.0344828,26.4444444 C25.0344828,26.9272031 25.0344828,27.4789272 25.2413793,27.8237548 C25.7241379,28.51341 26.3448276,28.9961686 26.8965517,29.6168582 C26.9655172,29.6168582 27.0344828,29.5478927 27.0344828,29.5478927 C26.9655172,21.3409962 26.8965517,13.0651341 26.8275862,4.651341 L26.8275862,4.651341 Z M0.827586207,29.8237548 C1.51724138,29.1340996 2.13793103,28.5823755 2.75862069,27.8927203 C2.89655172,27.7547893 2.89655172,27.5478927 2.89655172,27.3409962 C2.89655172,24.0996169 2.89655172,20.8582375 2.89655172,17.6168582 C2.89655172,15.2030651 2.82758621,12.789272 2.82758621,10.3754789 C2.82758621,9.68582375 2.68965517,8.92720307 2.82758621,8.23754789 C3.10344828,6.44444444 1.93103448,5.54789272 0.689655172,4.58237548 C0.689655172,12.9961686 0.75862069,21.4099617 0.827586207,29.8237548 L0.827586207,29.8237548 Z M20.7586207,6.85823755 C20.6206897,6.85823755 20.5517241,6.78927203 20.4137931,6.78927203 C18.3448276,6.51340996 16.2068966,6.30651341 14.137931,6.03065134 C13.7241379,5.96168582 13.3103448,6.03065134 12.8965517,6.09961686 C11.2413793,6.30651341 9.5862069,6.58237548 7.86206897,6.72030651 C6.82758621,6.78927203 6.75862069,6.78927203 6.75862069,7.82375479 C6.75862069,9.0651341 6.75862069,10.2375479 6.62068966,11.4789272 C6.55172414,12.8582375 6.34482759,14.1685824 6.20689655,15.5478927 C6.13793103,16.0306513 6,16.51341 6.06896552,16.9961686 C6.20689655,18.7203065 6.4137931,20.3754789 6.62068966,22.0996169 C6.75862069,23.6168582 6.89655172,25.0651341 6.96551724,26.5823755 C7.03448276,27.4099617 7.10344828,27.5478927 7.93103448,27.6168582 C8.82758621,27.6858238 9.72413793,27.7547893 10.5517241,27.8237548 C11.5862069,27.9616858 12.6206897,28.2375479 13.7241379,28.3065134 C14.4137931,28.3754789 15.1034483,28.1685824 15.7931034,28.0306513 C17.2413793,27.8927203 18.7586207,27.6858238 20.2068966,27.5478927 C20.7586207,27.4789272 20.9655172,27.3409962 20.9655172,26.7203065 C20.8965517,24.0996169 21.0344828,21.5478927 21.3793103,18.9961686 C21.5172414,18.1685824 21.5172414,17.2720307 21.4482759,16.4444444 C21.3103448,14.1685824 21.0344828,11.8927203 20.8275862,9.61685824 C20.8275862,8.72030651 20.8275862,7.82375479 20.7586207,6.85823755 L20.7586207,6.85823755 Z M0,17.1340996 C0,12.9961686 0,8.78927203 0,4.651341 C0,3.96168582 0.275862069,3.4789272 0.689655172,2.99616858 C1.44827586,2.23754789 2.13793103,1.4789272 2.89655172,0.720306513 C3.24137931,0.30651341 3.72413793,0.0996168582 4.27586207,0.0996168582 C8.27586207,0.0996168582 12.2758621,0.0996168582 16.2758621,0.030651341 C18.4827586,0.030651341 20.7586207,-0.0383141762 22.9655172,0.030651341 C23.3793103,0.030651341 23.862069,0.237547893 24.2068966,0.513409962 C25.0344828,1.27203065 25.7931034,2.09961686 26.6206897,2.92720307 C27.1724138,3.40996169 27.3793103,3.96168582 27.3793103,4.72030651 C27.3793103,7.75478927 27.4482759,10.789272 27.5172414,13.8237548 C27.5172414,16.9272031 27.5172414,20.0306513 27.5862069,23.1340996 C27.5862069,25.4099617 27.6551724,27.6858238 27.6551724,30.0306513 C27.6551724,30.2375479 27.5862069,30.51341 27.4482759,30.7203065 C26.4827586,31.7547893 25.5172414,32.789272 24.4827586,33.8237548 C24.0689655,34.2375479 23.5862069,34.3065134 23.0344828,34.3065134 C21.3103448,34.2375479 19.5862069,34.2375479 17.9310345,34.2375479 C14.8275862,34.2375479 11.7931034,34.2375479 8.68965517,34.2375479 C7.31034483,34.2375479 5.93103448,34.2375479 4.55172414,34.1685824 C4.27586207,34.1685824 3.93103448,34.0306513 3.72413793,33.8237548 C2.68965517,32.8582375 1.72413793,31.8927203 0.75862069,30.8582375 C0.413793103,30.51341 0.206896552,30.0996169 0.206896552,29.6168582 C0.206896552,25.4099617 0.206896552,21.2030651 0.206896552,16.9961686 C0.137931034,17.1340996 0.0689655172,17.1340996 0,17.1340996 L0,17.1340996 Z" id="radiant-cut"></path>
                        </g>
                    </g>
                </g>
            </g>
        </g>
    </g>
</svg>