<?xml version="1.0" encoding="UTF-8"?>
<svg width="33.3990552px" height="34.1435609px" viewBox="0 0 33.3990552 34.1435609" version="1.1" xmlns="http://www.w3.org/2000/svg" xmlns:xlink="http://www.w3.org/1999/xlink">
    <title>d5</title>
    <g id="Symbols" stroke="none" stroke-width="1" fill="none" fill-rule="evenodd">
        <g id="demo/desktop" transform="translate(-461.1034, -325.1034)" fill="#FFFFFF" fill-rule="nonzero">
            <g id="form" transform="translate(0, 248)">
                <g id="Group-21" transform="translate(0, 44)">
                    <g id="Group-19-Copy" transform="translate(428, 0)">
                        <g id="d5" transform="translate(33.1034, 33.1034)">
                            <path d="M28.9343761,6.41942294 L28.7274796,6.48838846 L28.7274796,11.5228712 C29.6240313,11.1780436 30.4516175,10.833216 31.2792037,10.4883885 C30.658514,8.90218156 29.9688589,7.52287122 28.9343761,6.41942294 L28.9343761,6.41942294 Z M31.3481692,23.6608023 C30.382652,23.2470091 29.5550658,22.9021816 28.7274796,22.6263195 C28.3136865,23.8676988 28.4516175,27.1090781 28.8654106,27.5228712 C30.1067899,26.4883885 30.4516175,24.9021816 31.3481692,23.6608023 L31.3481692,23.6608023 Z M4.65851405,11.4539057 L4.65851405,6.35045742 C4.58954853,6.35045742 4.52058301,6.35045742 4.52058301,6.41942294 C3.41713474,7.4539057 2.8654106,8.83321605 2.17575543,10.0745954 C2.10678991,10.2125264 2.31368646,10.4883885 2.4516175,10.6263195 C2.58954853,10.695285 2.79644508,10.7642505 3.00334163,10.833216 C3.55506577,11.0401126 4.03782439,11.1780436 4.65851405,11.4539057 L4.65851405,11.4539057 Z M22.4516175,1.72976777 C20.9343761,1.10907811 19.4171347,0.626319493 17.7619623,0.695285011 C18.9343761,1.93666432 20.0378244,3.17804363 21.4171347,4.35045742 C21.7619623,3.38494018 22.1067899,2.55735398 22.4516175,1.72976777 L22.4516175,1.72976777 Z M4.4516175,22.4194229 C3.62403129,22.7642505 2.79644508,23.1090781 2.03782439,23.5228712 C1.96885888,23.5918367 1.89989336,23.9366643 1.96885888,24.0056298 C2.38265198,24.833216 2.79644508,25.7297678 3.2792037,26.4883885 C3.55506577,26.9711471 3.96885888,27.3849402 4.24472094,27.7987333 C4.31368646,27.7297678 4.38265198,27.7297678 4.4516175,27.6608023 L4.4516175,22.4194229 L4.4516175,22.4194229 Z M6.03782439,4.48838846 C6.03782439,4.55735398 6.10678991,4.62631949 6.10678991,4.76425053 C7.69299681,4.76425053 9.2792037,4.76425053 10.8654106,4.76425053 C10.9343761,4.76425053 11.1412727,4.41942294 11.0723072,4.28149191 C10.9343761,3.79873329 10.7274796,3.38494018 10.5895485,2.90218156 C10.2447209,2.00562984 9.96885888,1.8676988 9.2792037,2.28149191 C8.31368646,2.97114708 7.21023819,3.72976777 6.03782439,4.48838846 L6.03782439,4.48838846 Z M15.5550658,0.764250528 C15.4861003,0.764250528 15.4171347,0.695285011 15.3481692,0.695285011 C13.8998934,0.626319493 12.520583,1.17804363 11.1412727,1.52287122 C10.7964451,1.59183673 10.7274796,1.8676988 10.8654106,2.21252639 C11.0723072,2.69528501 11.2792037,3.24700915 11.4861003,3.72976777 C11.6240313,3.93666432 11.7619623,4.14356087 11.8309278,4.28149191 C13.2102382,3.0401126 14.382652,1.93666432 15.5550658,0.764250528 L15.5550658,0.764250528 Z M32.520583,15.7987333 C32.7964451,14.0745954 32.0378244,12.6263195 31.6240313,11.0401126 C30.658514,11.3849402 29.7619623,11.7297678 28.658514,12.1435609 C30.1067899,13.3849402 31.0723072,14.7642505 32.520583,15.7987333 L32.520583,15.7987333 Z M21.1412727,29.7297678 C19.8998934,30.9711471 18.658514,32.2125264 17.4861003,33.4539057 C17.4861003,33.4539057 17.6240313,33.5228712 17.6929968,33.5228712 C19.1412727,33.5918367 20.520583,33.0401126 21.8998934,32.6263195 C22.1757554,32.557354 22.2447209,32.3504574 22.1067899,32.0745954 C21.7619623,31.2470091 21.4171347,30.4883885 21.1412727,29.7297678 L21.1412727,29.7297678 Z M5.62403129,29.2470091 C6.79644508,30.557354 8.10678991,31.2470091 9.48610026,32.0056298 C9.55506577,32.0745954 9.89989336,31.8676988 9.96885888,31.6608023 C10.2447209,31.0401126 10.520583,30.4194229 10.7274796,29.7987333 C10.8654106,29.4539057 10.7964451,29.2470091 10.382652,29.2470091 C9.34816922,29.2470091 8.31368646,29.2470091 7.21023819,29.2470091 C6.79644508,29.2470091 6.31368646,29.2470091 5.62403129,29.2470091 L5.62403129,29.2470091 Z M0.796445083,17.7987333 C0.727479565,18.0745954 0.658514048,18.1435609 0.727479565,18.2125264 C0.727479565,19.5918367 0.934376117,21.0401126 1.41713474,22.3504574 C1.48610026,22.557354 1.89989336,22.7642505 2.03782439,22.7642505 C2.65851405,22.557354 3.2792037,22.2814919 3.89989336,22.0056298 C4.24472094,21.8676988 4.24472094,21.5918367 3.96885888,21.3159747 C3.69299681,21.0401126 3.41713474,20.695285 3.14127267,20.4194229 C2.38265198,19.5918367 1.62403129,18.7642505 0.796445083,17.7987333 L0.796445083,17.7987333 Z M4.58954853,12.2125264 C3.76196232,11.8676988 3.07230715,11.5918367 2.4516175,11.1780436 C1.89989336,10.833216 1.69299681,11.1090781 1.62403129,11.5228712 C1.2792037,12.9021816 1.00334163,14.2125264 0.727479565,15.5228712 C0.727479565,15.6608023 0.727479565,15.8676988 0.796445083,16.2125264 C2.03782439,14.833216 3.2792037,13.5918367 4.58954853,12.2125264 L4.58954853,12.2125264 Z M27.1412727,4.62631949 C27.0723072,4.48838846 27.0033416,4.41942294 26.9343761,4.35045742 C25.8998934,3.24700915 24.5895485,2.69528501 23.2792037,2.00562984 C23.1412727,1.93666432 22.8654106,2.14356087 22.7274796,2.28149191 C22.4516175,2.83321605 22.2447209,3.4539057 21.9688589,4.00562984 C21.7619623,4.48838846 21.8998934,4.69528501 22.4516175,4.69528501 C23.8309278,4.69528501 25.2792037,4.69528501 26.658514,4.69528501 C26.8654106,4.76425053 27.0033416,4.69528501 27.1412727,4.62631949 L27.1412727,4.62631949 Z M32.520583,17.9366643 C31.2102382,19.2470091 29.9688589,20.4883885 28.658514,21.7987333 C29.3481692,22.0745954 29.9688589,22.3504574 30.520583,22.557354 C31.5550658,22.9711471 31.5550658,22.9711471 31.8309278,21.9366643 C31.8309278,21.8676988 31.8998934,21.8676988 31.8998934,21.7987333 C32.2447209,20.695285 32.7964451,19.5228712 32.520583,17.9366643 L32.520583,17.9366643 Z M27.0723072,29.2470091 C25.4171347,29.2470091 23.7619623,29.2470091 22.1757554,29.2470091 C21.7619623,29.2470091 21.7619623,29.4539057 21.8309278,29.7987333 C21.9688589,30.2125264 22.1757554,30.6263195 22.3136865,31.0401126 C22.7274796,32.2125264 22.7274796,32.2125264 23.8309278,31.6608023 C25.0033416,31.1090781 26.2447209,30.6263195 27.0723072,29.2470091 L27.0723072,29.2470091 Z M15.3481692,33.3849402 C15.2792037,33.1780436 15.2792037,33.1090781 15.2102382,33.0401126 C14.1757554,31.9366643 13.1412727,30.7642505 12.0378244,29.6608023 C11.9688589,29.5918367 11.4861003,29.6608023 11.4861003,29.7987333 C11.2102382,30.3504574 10.9343761,30.9711471 10.7274796,31.5228712 C10.4516175,32.4194229 10.4516175,32.4194229 11.3481692,32.6263195 C11.4171347,32.6263195 11.5550658,32.695285 11.6240313,32.695285 C12.7964451,33.2470091 13.9688589,33.5228712 15.3481692,33.3849402 L15.3481692,33.3849402 Z M5.48610026,12.2814919 C6.31368646,13.5918367 6.79644508,14.9711471 7.83092784,16.2125264 C8.4516175,14.4194229 9.07230715,12.833216 9.76196232,11.0401126 C8.24472094,11.4539057 6.93437612,11.7987333 5.48610026,12.2814919 L5.48610026,12.2814919 Z M12.1757554,5.59183673 C12.1067899,5.66080225 12.0378244,5.79873329 11.9688589,5.8676988 C11.6240313,7.0401126 11.2102382,8.28149191 10.8654106,9.52287122 C10.7274796,9.93666432 11.0723072,9.93666432 11.3481692,9.79873329 C12.520583,9.31597467 13.6929968,8.83321605 14.8654106,8.35045742 C15.1412727,8.21252639 15.4171347,8.07459536 15.8998934,7.79873329 C14.520583,7.0401126 13.3481692,6.35045742 12.1757554,5.59183673 L12.1757554,5.59183673 Z M9.83092784,22.7642505 C9.55506577,22.1435609 9.34816922,21.6608023 9.21023819,21.1780436 C8.8654106,20.2814919 8.4516175,19.3159747 8.10678991,18.4194229 C8.03782439,18.2125264 7.96885888,18.0745954 7.89989336,17.8676988 C7.76196232,18.0056298 7.55506577,18.1435609 7.41713474,18.2814919 C6.8654106,19.1780436 6.31368646,20.1435609 5.76196232,21.1090781 C5.41713474,21.5918367 5.48610026,21.7987333 6.10678991,21.9366643 C6.65851405,22.0745954 7.14127267,22.1435609 7.69299681,22.2814919 C8.31368646,22.4194229 9.00334163,22.6263195 9.83092784,22.7642505 L9.83092784,22.7642505 Z M22.3136865,10.0056298 C21.9688589,8.41942294 21.6240313,7.10907811 21.2792037,5.52287122 C19.8998934,6.28149191 18.5895485,7.0401126 17.2792037,7.72976777 C17.2792037,7.79873329 17.2792037,7.8676988 17.2792037,7.93666432 C18.9343761,8.62631949 20.5895485,9.31597467 22.3136865,10.0056298 L22.3136865,10.0056298 Z M23.2792037,22.833216 C24.7274796,22.4883885 25.9688589,22.2125264 27.2792037,21.8676988 C27.3481692,21.8676988 27.4861003,21.4539057 27.4861003,21.3849402 C26.9343761,20.3504574 26.382652,19.3849402 25.8309278,18.4194229 C25.5550658,17.9366643 25.2792037,17.9366643 25.0033416,18.4883885 C24.4516175,19.6608023 23.9688589,20.833216 23.4861003,22.0745954 C23.3481692,22.2125264 23.3481692,22.4194229 23.2792037,22.833216 L23.2792037,22.833216 Z M22.1067899,23.8676988 C20.3136865,24.557354 18.7274796,25.1780436 17.0033416,25.7987333 C18.4516175,26.7642505 19.7619623,27.5228712 21.1412727,28.4194229 C21.4861003,26.9021816 21.7619623,25.5228712 22.1067899,23.8676988 L22.1067899,23.8676988 Z M25.4171347,16.2125264 C26.1757554,14.9711471 26.8654106,13.8676988 27.5550658,12.695285 C27.7619623,12.3504574 27.6240313,12.2125264 27.3481692,12.1435609 C26.2447209,11.7987333 25.1412727,11.4539057 23.9688589,11.1780436 C23.8309278,11.1090781 23.5550658,11.1780436 23.4861003,11.3159747 C23.4171347,11.3849402 23.4861003,11.6608023 23.4861003,11.7987333 C23.9688589,13.1090781 24.4516175,14.4194229 25.0033416,15.6608023 C25.1412727,15.8676988 25.2792037,16.0056298 25.4171347,16.2125264 L25.4171347,16.2125264 Z M15.6240313,25.9366643 C15.3481692,25.7297678 15.2792037,25.5918367 15.1412727,25.5918367 C13.8309278,25.0401126 12.5895485,24.4883885 11.2792037,23.9366643 C10.9343761,23.7987333 10.7964451,23.9366643 10.8654106,24.2814919 C10.9343761,24.6263195 11.0033416,25.0401126 11.0723072,25.3849402 C11.2792037,26.3504574 11.5550658,27.3849402 11.8309278,28.4883885 C13.1412727,27.5918367 14.382652,26.833216 15.6240313,25.9366643 L15.6240313,25.9366643 Z M11.3481692,5.52287122 L5.34816922,5.52287122 C5.34816922,7.4539057 5.34816922,9.31597467 5.34816922,11.1780436 C5.34816922,11.5918367 5.62403129,11.5228712 5.89989336,11.4539057 C7.14127267,11.1090781 8.38265198,10.7642505 9.62403129,10.4194229 C9.83092784,10.3504574 10.1067899,10.0745954 10.1757554,9.79873329 C10.382652,9.17804363 10.520583,8.55735398 10.7274796,7.93666432 C10.9343761,7.10907811 11.0723072,6.35045742 11.3481692,5.52287122 L11.3481692,5.52287122 Z M4.93437612,12.695285 C4.79644508,12.833216 4.65851405,12.9021816 4.52058301,13.0401126 C3.48610026,14.0745954 2.52058301,15.0401126 1.48610026,16.0745954 C0.589548531,16.9711471 0.589548531,16.9711471 1.48610026,17.8676988 C1.55506577,17.9366643 1.55506577,17.9366643 1.62403129,18.0056298 C2.58954853,19.0401126 3.62403129,20.0745954 4.58954853,21.1090781 C4.79644508,21.3159747 4.93437612,21.3849402 5.14127267,21.1090781 C5.83092784,19.8676988 6.58954853,18.6263195 7.2792037,17.3849402 C7.34816922,17.2470091 7.41713474,16.9021816 7.2792037,16.7642505 C6.58954853,15.5228712 5.89989336,14.2814919 5.21023819,13.0401126 C5.14127267,12.9021816 5.07230715,12.833216 4.93437612,12.695285 L4.93437612,12.695285 Z M27.8998934,11.5918367 C27.9688589,11.3849402 27.9688589,11.1780436 27.9688589,11.0401126 C27.9688589,9.31597467 27.9688589,7.59183673 27.9688589,5.8676988 C27.9688589,5.4539057 27.7619623,5.38494018 27.4171347,5.38494018 C25.8309278,5.38494018 24.2447209,5.38494018 22.658514,5.38494018 C21.8309278,5.38494018 21.7619623,5.4539057 21.9688589,6.35045742 C22.3136865,7.59183673 22.5895485,8.83321605 22.9343761,10.0745954 C23.0033416,10.2814919 23.2102382,10.4883885 23.4171347,10.557354 C24.658514,10.9021816 25.8998934,11.1780436 27.2102382,11.5228712 C27.4171347,11.4539057 27.6929968,11.5228712 27.8998934,11.5918367 L27.8998934,11.5918367 Z M8.10678991,28.6263195 L8.10678991,28.6263195 C8.93437612,28.6263195 9.76196232,28.6263195 10.5895485,28.6263195 C10.9343761,28.6263195 11.2102382,28.557354 11.0723072,28.0745954 C10.7964451,26.7642505 10.520583,25.3849402 10.1757554,24.0745954 C10.1067899,23.8676988 9.83092784,23.5228712 9.62403129,23.4539057 C8.31368646,23.1090781 7.00334163,22.833216 5.69299681,22.4883885 C5.41713474,22.4194229 5.14127267,22.4194229 5.14127267,22.833216 C5.14127267,24.557354 5.14127267,26.3504574 5.07230715,28.0745954 C5.07230715,28.4883885 5.2792037,28.557354 5.62403129,28.557354 C6.4516175,28.6263195 7.2792037,28.6263195 8.10678991,28.6263195 L8.10678991,28.6263195 Z M21.0033416,4.97114708 C19.6240313,3.52287122 18.3136865,2.21252639 17.0033416,0.833216045 C16.7964451,0.557353976 16.520583,0.557353976 16.2447209,0.833216045 C15.0033416,2.07459536 13.7619623,3.31597467 12.520583,4.55735398 C12.2447209,4.83321605 12.2447209,5.0401126 12.5895485,5.24700915 C13.6240313,5.8676988 14.7274796,6.48838846 15.7619623,7.17804363 C16.3136865,7.52287122 16.7964451,7.52287122 17.3481692,7.0401126 C17.6929968,6.69528501 18.2447209,6.48838846 18.658514,6.28149191 C19.4861003,5.8676988 20.2447209,5.4539057 21.0033416,4.97114708 L21.0033416,4.97114708 Z M27.9688589,22.4883885 C27.8998934,22.4883885 27.7619623,22.4883885 27.6929968,22.4883885 C26.2447209,22.833216 24.7964451,23.1090781 23.4171347,23.4539057 C23.0033416,23.5918367 22.5895485,23.7987333 22.658514,24.4194229 C22.658514,24.557354 22.658514,24.695285 22.5895485,24.7642505 C22.3136865,25.8676988 22.1067899,26.9021816 21.8309278,27.9366643 C21.6929968,28.4883885 21.8998934,28.6263195 22.382652,28.6263195 C24.0378244,28.6263195 25.7619623,28.6263195 27.4171347,28.6263195 C27.7619623,28.6263195 27.8998934,28.4883885 27.8998934,28.1435609 C27.8998934,26.2814919 27.9688589,24.4194229 27.9688589,22.4883885 L27.9688589,22.4883885 Z M20.7274796,29.0401126 C20.520583,28.9021816 20.4516175,28.7642505 20.3136865,28.695285 C19.1412727,27.9366643 17.9688589,27.1780436 16.7274796,26.4194229 C16.5895485,26.3504574 16.2447209,26.3504574 16.0378244,26.4194229 C15.0033416,27.0401126 13.8998934,27.7297678 12.8654106,28.4194229 C11.9688589,29.0401126 11.9688589,29.0401126 12.7964451,29.7987333 C13.8309278,30.833216 14.8654106,32.0056298 15.8998934,33.1090781 C16.2447209,33.4539057 16.4516175,33.4539057 16.7274796,33.1090781 C17.3481692,32.4883885 17.8998934,31.9366643 18.520583,31.3159747 C19.2792037,30.557354 19.9688589,29.7987333 20.7274796,29.0401126 L20.7274796,29.0401126 Z M25.6929968,16.833216 C25.6929968,17.0401126 25.6929968,17.1780436 25.7619623,17.2470091 C26.520583,18.4883885 27.2792037,19.7987333 28.0378244,21.0401126 C28.2447209,21.3159747 28.382652,21.3849402 28.658514,21.1090781 C29.8998934,19.8676988 31.1412727,18.6263195 32.382652,17.3849402 C32.7274796,17.0401126 32.7964451,16.833216 32.382652,16.4883885 C31.2102382,15.3159747 30.0378244,14.1435609 28.8654106,12.9711471 C28.382652,12.4883885 28.3136865,12.4194229 27.8998934,13.1090781 C27.2792037,14.0745954 26.7274796,15.1090781 26.1067899,16.0745954 C25.9688589,16.4194229 25.8309278,16.6263195 25.6929968,16.833216 L25.6929968,16.833216 Z M16.658514,8.35045742 C16.382652,8.41942294 16.1757554,8.41942294 15.9688589,8.48838846 C14.658514,8.97114708 13.4171347,9.52287122 12.1067899,10.0745954 C11.2102382,10.4194229 10.382652,10.7642505 10.1067899,11.8676988 C9.89989336,12.695285 9.48610026,13.5228712 9.21023819,14.3504574 C9.00334163,14.9021816 8.93437612,15.5228712 8.58954853,16.0056298 C8.17575543,16.6263195 8.24472094,17.1780436 8.4516175,17.8676988 C9.07230715,19.3849402 9.62403129,20.833216 10.2447209,22.3504574 C10.4516175,22.833216 10.7274796,23.1780436 11.2792037,23.3849402 C12.658514,23.9366643 13.9688589,24.4883885 15.3481692,25.0401126 C15.8998934,25.3159747 16.4516175,25.5228712 17.1412727,25.2470091 C18.2447209,24.7642505 19.4171347,24.2814919 20.520583,23.8676988 C21.6929968,23.4539057 22.7274796,23.0401126 23.0723072,21.5918367 C23.4171347,20.3504574 24.1757554,19.1780436 24.658514,17.9366643 C24.7964451,17.5228712 25.0033416,17.0401126 24.8654106,16.695285 C24.5895485,15.6608023 24.1757554,14.695285 23.7619623,13.7297678 C23.4861003,13.1090781 23.1412727,12.4883885 23.0033416,11.8676988 C22.8654106,11.2470091 22.5895485,10.9021816 22.0378244,10.6263195 C20.8654106,10.1435609 19.7619623,9.59183673 18.5895485,9.10907811 C17.8998934,8.83321605 17.2102382,8.55735398 16.658514,8.35045742 L16.658514,8.35045742 Z M16.8654106,34.1435609 C14.3136865,34.1435609 12.1067899,33.8676988 9.96885888,32.9021816 C7.34816922,31.6608023 5.14127267,29.9366643 3.34816922,27.5918367 C1.83092784,25.5228712 0.8654106,23.2470091 0.313686462,20.7642505 C-0.100106641,19.0401126 -0.0311411242,17.1780436 0.10678991,15.3849402 C0.313686462,13.2470091 0.934376117,11.2470091 1.89989336,9.31597467 C2.8654106,7.31597467 4.24472094,5.59183673 5.96885888,4.07459536 C7.14127267,3.10907811 8.31368646,2.21252639 9.69299681,1.52287122 C11.3481692,0.695285011 13.1412727,0.0745953554 15.0723072,0.00562983814 C16.7274796,0.00562983814 18.4516175,-0.0633356791 20.1067899,0.281491907 C21.6240313,0.557353976 23.0723072,1.24700915 24.4516175,1.93666432 C25.8309278,2.69528501 27.1412727,3.59183673 28.2447209,4.69528501 C29.2102382,5.59183673 29.9688589,6.69528501 30.658514,7.79873329 C31.4171347,9.10907811 32.1067899,10.4883885 32.5895485,11.9366643 C33.4861003,14.6263195 33.6240313,17.3849402 33.0723072,20.1435609 C32.7274796,21.8676988 32.1757554,23.5228712 31.2792037,25.1090781 C30.382652,26.695285 29.2792037,28.1435609 27.9688589,29.3849402 C25.5550658,31.7297678 22.7274796,33.1780436 19.4861003,33.8676988 C18.4516175,34.1435609 17.5550658,34.0745954 16.8654106,34.1435609 L16.8654106,34.1435609 Z" id="round-cut"></path>
                        </g>
                    </g>
                </g>
            </g>
        </g>
    </g>
</svg>