<?xml version="1.0" standalone="no"?>
<!DOCTYPE svg PUBLIC "-//W3C//DTD SVG 20010904//EN"
 "http://www.w3.org/TR/2001/REC-SVG-20010904/DTD/svg10.dtd">
<svg version="1.0" xmlns="http://www.w3.org/2000/svg"
 width="1024.000000pt" height="1024.000000pt" viewBox="0 0 1024.000000 1024.000000"
 preserveAspectRatio="xMidYMid meet">
<metadata>
Created by potrace 1.14, written by Peter Selinger 2001-2017
</metadata>
<g transform="translate(0.000000,1024.000000) scale(0.100000,-0.100000)"
fill="#000000" stroke="none">
<path d="M2710 8310 c0 -6 -358 -515 -796 -1132 -438 -617 -798 -1127 -801
-1134 -3 -7 897 -1093 1998 -2414 l2003 -2402 21 24 c11 13 912 1093 2003
2401 1091 1308 1982 2384 1979 2391 -3 7 -363 517 -801 1134 -438 617 -796
1126 -796 1132 0 7 -808 10 -2405 10 -1597 0 -2405 -3 -2405 -10z m2124 -682
c-911 -974 -936 -1000 -952 -976 -9 13 -175 247 -369 521 -194 273 -353 500
-353 502 0 3 388 5 861 5 l862 0 -49 -52z m2236 47 c0 -2 -159 -229 -353 -502
-194 -274 -360 -508 -369 -521 -16 -24 -41 2 -952 976 l-49 52 862 0 c473 0
861 -2 861 -5z m-3818 -1247 l19 -28 -560 0 -560 0 280 395 281 395 260 -368
c143 -202 269 -379 280 -394z m4556 355 l271 -383 -560 0 -560 0 48 68 c475
674 509 719 519 708 6 -6 133 -183 282 -393z m-2452 -56 c125 -133 246 -261
268 -284 l40 -43 -548 0 -549 0 49 53 c241 261 497 526 504 522 5 -3 111 -115
236 -248z m-1341 -2292 c206 -726 372 -1321 371 -1322 -3 -3 -2186 2612 -2199
2633 -7 12 105 14 724 12 l731 -3 373 -1320z m1902 1312 c-9 -23 -797 -2814
-797 -2823 0 -4 -2 -5 -4 -3 -2 2 -183 636 -401 1408 -218 773 -399 1410 -402
1418 -4 11 134 13 802 13 668 0 806 -2 802 -13z m2126 -1 c-13 -21 -2196
-2636 -2199 -2633 -2 2 724 2583 741 2635 3 9 159 12 735 12 616 0 730 -2 723
-14z"/>
</g>
</svg>
