<?xml version="1.0" encoding="UTF-8"?>
<svg width="72px" height="72px" viewBox="0 0 72 72" version="1.1" xmlns="http://www.w3.org/2000/svg" xmlns:xlink="http://www.w3.org/1999/xlink">
    <title>icon/d1</title>
    <g id="icon/d1" stroke="none" stroke-width="1" fill="none" fill-rule="evenodd">
        <g transform="translate(16, 16)" stroke="#FFFFFF">
            <polygon id="Stroke-1" points="30.747535 0 9.2524304 0 0.000311729066 9.25219078 0.000311729066 30.7478092 9.2524304 40 30.747535 40 40 30.7478092 40 9.25219078"></polygon>
            <polygon id="Stroke-3" points="29.1354835 3.00010391 10.8648565 3.00010391 3.00046153 10.8645602 3.00046153 29.1353296 10.8648565 37.0001039 29.1354835 37.0001039 37.0001966 29.1353296 37.0001966 10.8645602"></polygon>
            <polygon id="Stroke-4" points="27.5235308 5.94153303 12.4770826 5.94153303 6.00009179 12.4182503 6.00009179 27.4648158 12.4770826 33.941533 27.5235308 33.941533 33.9998736 27.4648158 33.9998736 12.4182503"></polygon>
            <polygon id="Stroke-5" points="23.8872095 12.6160507 16.1133793 12.6160507 12.767141 15.9623151 12.767141 23.7362059 16.1133793 27.0824703 23.8872095 27.0824703 27.2331015 23.7362059 27.2331015 15.9623151"></polygon>
            <g id="Group-22">
                <line x1="23.7025273" y1="27.0825049" x2="30.5945106" y2="39.9999654" id="Stroke-6"></line>
                <line x1="9.25260359" y1="0" x2="16.113414" y2="12.61612" id="Stroke-8"></line>
                <line x1="23.9396493" y1="12.6688026" x2="30.7474657" y2="3.46368329e-05" id="Stroke-10"></line>
                <line x1="9.25260359" y1="39.9999654" x2="16.113414" y2="27.0825049" id="Stroke-12"></line>
                <line x1="27.2331707" y1="23.7362059" x2="39.9998615" y2="30.7477399" id="Stroke-14"></line>
                <line x1="0.000173182814" y1="9.25232933" x2="12.7668639" y2="15.9625229" id="Stroke-16"></line>
                <line x1="12.8650585" y1="23.8342974" x2="0" y2="30.7478092" id="Stroke-18"></line>
                <line x1="39.9999654" y1="9.25232933" x2="27.2332747" y2="15.9625229" id="Stroke-20"></line>
            </g>
        </g>
    </g>
</svg>