<?xml version="1.0" encoding="UTF-8"?>
<svg width="72px" height="72px" viewBox="0 0 72 72" version="1.1" xmlns="http://www.w3.org/2000/svg" xmlns:xlink="http://www.w3.org/1999/xlink">
    <title>icon/d2</title>
    <g id="icon/d2" stroke="none" stroke-width="1" fill="none" fill-rule="evenodd">
        <g id="Group-54" transform="translate(16, 16)" stroke="#FFFFFF">
            <polygon id="Stroke-1" points="3.56674396 36.4233814 1.30844373 31.7321473 0.000142749698 20.0001253 1.30844373 8.26810324 3.56674396 3.57686915 8.2442947 1.31213545 19.9433462 0.000107367274 31.6420409 1.31213545 36.3195916 3.57686915 38.5778918 8.26810324 39.8861928 20.0001253 38.5778918 31.7321473 36.3195916 36.4233814 31.6420409 38.6881151 19.9433462 39.9997853 8.2442947 38.6881151"></polygon>
            <polyline id="Stroke-3" points="3.56674396 36.4233814 19.9433462 31.001334 36.3195916 36.4233814"></polyline>
            <line x1="10.803547" y1="34.0271586" x2="19.9430964" y2="39.9996421" id="Stroke-4"></line>
            <line x1="10.803547" y1="34.0271586" x2="7.68339544" y2="38.4163327" id="Stroke-6"></line>
            <line x1="29.0828956" y1="34.0271586" x2="19.9433462" y2="39.9996421" id="Stroke-7"></line>
            <line x1="29.0828956" y1="34.0271586" x2="32.2030472" y2="38.4163327" id="Stroke-9"></line>
            <polyline id="Stroke-10" points="19.9432035 31.0011909 10.8015128 29.0599906 5.99798544 29.0599906 3.56660121 36.4232382"></polyline>
            <polyline id="Stroke-11" points="19.9432035 31.0011909 29.0848941 29.0599906 33.8884215 29.0599906 36.3198057 36.4232382"></polyline>
            <line x1="10.8014414" y1="29.0600264" x2="10.8035827" y2="34.0271943" id="Stroke-12"></line>
            <line x1="29.0842875" y1="29.0600264" x2="29.0821462" y2="34.0271943" id="Stroke-13"></line>
            <line x1="5.99794976" y1="29.0600264" x2="1.52952733" y2="32.1922876" id="Stroke-14"></line>
            <line x1="33.8888497" y1="29.0600264" x2="38.3572722" y2="32.1922876" id="Stroke-15"></line>
            <polyline id="Stroke-16" points="36.3196987 3.56974712 19.9452376 8.99895227 3.56649415 3.58370487"></polyline>
            <line x1="29.0835737" y1="5.96890465" x2="19.9415262" y2="0" id="Stroke-17"></line>
            <line x1="29.0835737" y1="5.96890465" x2="32.2019409" y2="1.57829893" id="Stroke-19"></line>
            <line x1="10.804225" y1="5.97677825" x2="19.9416332" y2="0" id="Stroke-20"></line>
            <line x1="10.804225" y1="5.97677825" x2="7.68228913" y2="1.58903565" id="Stroke-22"></line>
            <polyline id="Stroke-23" points="19.945309 8.99891649 29.0877134 10.93618 33.8912408 10.9340327 36.31977 3.56971133"></polyline>
            <polyline id="Stroke-24" points="19.945309 8.99891649 10.8043321 10.9440536 6.00080475 10.9458431 3.56620865 3.58366908"></polyline>
            <line x1="29.0877848" y1="10.9362158" x2="29.0835023" y2="5.9690478" id="Stroke-25"></line>
            <line x1="10.8049388" y1="10.9439104" x2="10.8049388" y2="5.97674246" id="Stroke-26"></line>
            <line x1="33.8912765" y1="10.9341042" x2="38.3582714" y2="7.8000535" id="Stroke-27"></line>
            <line x1="6.0003765" y1="10.946022" x2="1.53088345" y2="7.81555018" id="Stroke-28"></line>
            <g id="Group-35" transform="translate(0, 10.8333)">
                <line x1="19.9432035" y1="20.1679045" x2="19.9432035" y2="29.1667136" id="Stroke-29"></line>
                <line x1="5.95958578" y1="0" x2="0.000142749698" y2="9.16343894" id="Stroke-31"></line>
                <line x1="5.95194867" y1="18.331602" x2="0" y2="9.16315263" id="Stroke-33"></line>
            </g>
            <line x1="8.97317466" y1="20.0002326" x2="10.9131431" y2="10.8332148" id="Stroke-36"></line>
            <line x1="8.97317466" y1="20.0002326" x2="10.9049349" y2="29.1690399" id="Stroke-37"></line>
            <g id="Group-42" transform="translate(0.0001, 0.0001)">
                <polyline id="Stroke-38" points="0 19.996439 8.97324603 20.0000179 6.00048356 10.9457357"></polyline>
                <line x1="19.9452376" y1="8.99880912" x2="19.9452376" y2="0" id="Stroke-40"></line>
            </g>
            <line x1="8.97317466" y1="20.0002326" x2="5.95187729" y2="29.1647452" id="Stroke-43"></line>
            <g id="Group-48" transform="translate(34.0363, 10.8373)">
                <line x1="0" y1="18.3314231" x2="5.96372552" y2="9.17084728" id="Stroke-44"></line>
                <line x1="0.0156667794" y1="0" x2="5.96368983" y2="9.17095465" id="Stroke-46"></line>
            </g>
            <line x1="31.0268967" y1="20.0004116" x2="29.0833596" y2="29.1667136" id="Stroke-49"></line>
            <line x1="31.0268967" y1="20.0004116" x2="29.099062" y2="10.8308885" id="Stroke-50"></line>
            <polyline id="Stroke-51" points="39.9999643 20.0081062 31.0267183 20.0005905 33.9955551 29.0563043"></polyline>
            <line x1="31.0268967" y1="20.0004116" x2="34.0521197" y2="10.8373305" id="Stroke-53"></line>
        </g>
    </g>
</svg>