<?xml version="1.0" encoding="UTF-8"?>
<svg width="72px" height="72px" viewBox="0 0 72 72" version="1.1" xmlns="http://www.w3.org/2000/svg" xmlns:xlink="http://www.w3.org/1999/xlink">
    <title>icon/d3</title>
    <g id="icon/d3" stroke="none" stroke-width="1" fill="none" fill-rule="evenodd">
        <g id="Group-24" transform="translate(8, 16)" stroke="#FFFFFF">
            <g id="Group-11" transform="translate(0.0001, 0)">
                <polyline id="Stroke-1" points="42.2151698 32.0724436 44.7046318 35.2804847 46.4841928 38.1219131 47.3504643 40"></polyline>
                <polyline id="Stroke-3" points="42.2151698 7.92755644 44.7046318 4.71951526 46.4841928 1.87808693 47.3504643 0"></polyline>
                <polyline id="Stroke-5" points="47.4360229 12.9309287 51.3128728 11.0524844 54.3216702 9.38843365 55.999715 8.28895239"></polyline>
                <polyline id="Stroke-7" points="47.4360229 27.0690713 51.3128728 28.9475156 54.3216702 30.6115663 55.999715 31.7110476"></polyline>
                <polygon id="Stroke-9" points="8.64882331 39.9998571 -1.26546653e-15 31.7110476 -1.26546653e-15 8.28891666 8.64882331 0.000107196743 47.3503574 0.000107196743 55.9998931 8.28891666 55.9998931 31.7110476 47.3503574 39.9998571"></polygon>
            </g>
            <polygon id="Stroke-12" points="13.7845452 32.0724436 8.56376343 27.0692143 8.56376343 12.9310359 13.7845452 7.92744924 42.2151342 7.92744924 47.4362722 12.9310359 47.4362722 27.0692143 42.2151342 32.0724436"></polygon>
            <polygon id="Stroke-13" points="11.2946558 35.2803418 4.68648607 28.9475156 4.68648607 11.0524487 11.2946558 4.71962245 44.7048811 4.71962245 51.3130509 11.0524487 51.3130509 28.9475156 44.7048811 35.2803418"></polygon>
            <polygon id="Stroke-14" points="9.63946819 38.0000179 1.85516408 30.5400052 1.85516408 9.45967557 9.63946819 2.00001787 46.3599999 2.00001787 54.1446578 9.45967557 54.1446578 30.5400052 46.3599999 38.0000179"></polygon>
            <g id="Group-23">
                <polyline id="Stroke-15" points="13.7845452 32.0724436 11.2947271 35.2804847 9.51516605 38.1219131 8.64889455 40"></polyline>
                <polyline id="Stroke-17" points="13.7845452 7.92755644 11.2947271 4.71951526 9.51516605 1.87808693 8.64889455 0"></polyline>
                <polyline id="Stroke-19" points="8.56369219 12.9309287 4.68648607 11.0524844 1.67804483 9.38843365 0 8.28895239"></polyline>
                <polyline id="Stroke-21" points="8.56369219 27.0690713 4.68648607 28.9475156 1.67804483 30.6115663 0 31.7110476"></polyline>
            </g>
        </g>
    </g>
</svg>