<?xml version="1.0" encoding="UTF-8"?>
<svg width="72px" height="72px" viewBox="0 0 72 72" version="1.1" xmlns="http://www.w3.org/2000/svg" xmlns:xlink="http://www.w3.org/1999/xlink">
    <title>icon/d4</title>
    <g id="icon/d4" stroke="none" stroke-width="1" fill="none" fill-rule="evenodd">
        <g id="Group-21" transform="translate(8, 16)" stroke="#FFFFFF">
            <g id="Group-19">
                <polyline id="Stroke-1" points="0.000201695685 20.0022415 5.18418418 8.751551 10.1410573 20.0022415 11.4351368 10.8020785 28 8.76566463 8.49159001 5.12209854"></polyline>
                <polyline id="Stroke-3" points="0.000201695685 5.77051366 10.835137 10.40184 5.83969515 0.00444337327"></polyline>
                <polyline id="Stroke-5" points="0.000201695685 20.0022415 5.18418418 31.352932 10.1410573 20.0022415 11.4351368 29.2024046 28 31.2388184 8.49159001 34.8823845"></polyline>
                <polyline id="Stroke-7" points="0.000201695685 34.2339297 10.935137 29.702603 5.83969515 40"></polyline>
                <polygon id="Stroke-9" points="5.83949346 0.00436402732 0 5.77043431 0 34.2250826 5.83949346 39.9911529 50.1605065 39.995517 56 34.2294467 56 5.77479834 50.1605065 0.00872805465"></polygon>
                <polyline id="Stroke-11" points="55.999879 19.9977981 50.8158965 31.348489 45.8590234 19.9977981 44.5649438 29.1979612 28.0000807 31.234375 47.5084907 34.8779411"></polyline>
                <polyline id="Stroke-13" points="55.999879 34.2294863 45.2 29.8 50.1603855 39.9955566"></polyline>
                <polyline id="Stroke-15" points="55.999879 19.9977981 50.8158965 8.647108 45.8590234 19.9977981 44.5649438 10.7976351 28.0000807 8.76122125 47.5084907 5.11765517"></polyline>
                <polyline id="Stroke-17" points="55.999879 5.76607028 45.164944 10.297397 50.1603855 0"></polyline>
            </g>
            <polyline id="Stroke-20" points="5.18398248 20.0022415 5.18398248 8.05155106 8.49138831 5.12209854 47.5086117 5.11773451 50.8160175 8.04718704 50.8160175 31.948568 47.5086117 34.8780205 8.49138831 34.8823845 5.18398248 31.952932 5.18398248 20.0022415"></polyline>
        </g>
    </g>
</svg>