<?xml version="1.0" encoding="UTF-8"?>
<svg width="72px" height="72px" viewBox="0 0 72 72" version="1.1" xmlns="http://www.w3.org/2000/svg" xmlns:xlink="http://www.w3.org/1999/xlink">
    <title>icon/d5</title>
    <g id="icon/d5" stroke="none" stroke-width="1" fill="none" fill-rule="evenodd">
        <g id="Group-38" transform="translate(16, 16)" stroke="#FDFDFD">
            <g id="Group-7">
                <polygon id="Stroke-1" points="40 23.9783486 40 16.0216514 36.9550499 8.67104763 31.3289524 3.04495013 23.9783486 0 16.0216514 0 8.67104763 3.04495013 3.04495013 8.67104763 0 16.0216514 0 23.9783486 3.04495013 31.3289524 8.67104763 36.9550499 16.0216514 40 23.9783486 40 31.3289524 36.9550499 36.9550499 31.3289524"></polygon>
                <line x1="22.1528268" y1="30.823802" x2="23.9783486" y2="39.9999276" id="Stroke-3"></line>
                <line x1="16.0217962" y1="0.000181031518" x2="17.8433353" y2="9.15820344" id="Stroke-5"></line>
            </g>
            <line x1="29.1759445" y1="26.1312841" x2="36.9548688" y2="31.329061" id="Stroke-8"></line>
            <line x1="3.0448053" y1="8.67112004" x2="10.7748511" y2="13.8359492" id="Stroke-9"></line>
            <polyline id="Stroke-10" points="40 23.9783486 27.0229367 15.307301 23.9783486 0"></polyline>
            <polyline id="Stroke-12" points="36.9549775 8.67112004 28.2842919 21.6478213 31.32888 36.9551223"></polyline>
            <g id="Group-17" transform="translate(0.0003, 16.0218)">
                <line x1="9.13485038" y1="6.13950289" x2="0" y2="7.95669726" id="Stroke-13"></line>
                <line x1="39.9996741" y1="0" x2="30.8235486" y2="1.82552182" id="Stroke-15"></line>
            </g>
            <line x1="26.156013" y1="10.786944" x2="31.3288075" y2="3.04495013" id="Stroke-18"></line>
            <line x1="8.67093901" y1="36.9551947" x2="13.8480784" y2="29.2070457" id="Stroke-19"></line>
            <polyline id="Stroke-20" points="3.0448053 31.329061 11.7158529 18.3523597 8.6709028 3.04505874"></polyline>
            <g id="Group-25" transform="translate(0.0001, 16.0218)">
                <polyline id="Stroke-21" points="16.0216514 23.9779866 12.9604084 8.58777313 0 0"></polyline>
                <polyline id="Stroke-23" points="39.9998552 7.95651623 24.6925542 11.0014664 16.0215065 23.9781676"></polyline>
            </g>
            <polyline id="Stroke-26" points="3.0448053 31.329061 18.3521063 28.2844729 22.152682 30.823621 31.3288075 36.9551585"></polyline>
            <polyline id="Stroke-27" points="0.000144825214 16.0218324 15.3070838 12.9772443 23.9784935 0.000181031518"></polyline>
            <polyline id="Stroke-29" points="36.9549775 8.67112004 21.6480385 11.7160702 8.67097522 3.04502254"></polyline>
            <polyline id="Stroke-30" points="22.1528268 30.823802 26.4885317 29.7108203 29.1757635 26.1314651"></polyline>
            <polyline id="Stroke-31" points="29.1759445 26.1312841 31.4544072 22.2785713 30.8240555 17.8472818"></polyline>
            <polyline id="Stroke-32" points="30.8642445 17.8202719 29.7509006 13.4845671 26.1715455 10.7973352"></polyline>
            <polyline id="Stroke-33" points="26.1715817 10.7971904 22.3185069 8.51872771 17.8872174 9.14944152"></polyline>
            <polyline id="Stroke-34" points="10.7980593 13.8010102 8.51959666 17.6537229 9.14994841 22.0853745"></polyline>
            <polyline id="Stroke-35" points="17.797824 9.21526458 13.4621192 10.3286084 10.7748873 13.9079636"></polyline>
            <polyline id="Stroke-36" points="9.14259853 22.1754557 10.2559424 26.5107985 13.8352975 29.1983924"></polyline>
            <polyline id="Stroke-37" points="13.8688608 29.1983924 17.7215735 31.4768551 22.152863 30.8465034"></polyline>
        </g>
    </g>
</svg>