<?xml version="1.0" encoding="UTF-8"?>
<svg width="160px" height="160px" viewBox="0 0 160 160" version="1.1" xmlns="http://www.w3.org/2000/svg" xmlns:xlink="http://www.w3.org/1999/xlink">
    <title>icon/how-it-works/1</title>
    <g id="icon/how-it-works/1" stroke="none" stroke-width="1" fill="none" fill-rule="evenodd">
        <g id="Group-17" transform="translate(25, 44)">
            <path d="M42.4967602,66.0910698 L75.7827689,71.3933467 C78.0267373,71.7507985 80.2295642,70.5502087 81.145305,68.4706452 L88.6514712,51.4248277 L88.6514712,51.4248277" id="Stroke-1" stroke="#FEFEFE" stroke-width="2"></path>
            <path d="M57.8349548,29.722801 L42.4966593,66.0910698 L28.4001387,43.3050654 C27.5666486,41.957789 27.4209729,40.2952219 28.0074619,38.8235256 L32.3015841,28.0481422 L32.3015841,28.0481422" id="Stroke-3" stroke="#FEFEFE" stroke-width="2"></path>
            <polyline id="Stroke-4" stroke="#FEFEFE" stroke-width="2" points="99.2640008 35.9228689 57.8350557 29.7226498 40.7461774 1.6767755"></polyline>
            <path d="M40.1222168,27.9181205 L50.9624029,46.0188495 L88.4943748,51.4029748 C90.7201593,51.7222734 92.8852979,50.5165103 93.7858562,48.4561552 L98.2227925,38.3050478 C98.8754274,36.8119079 98.7595001,35.0944059 97.9121323,33.7025126 L83.7079439,10.3705944 C82.9469901,9.12064529 81.6766526,8.26679417 80.2318976,8.03418674 L44.4698503,2.27645095 C42.2657523,1.92158832 40.093466,3.07089731 39.1468322,5.09274302 L37.6770545,8.23193356 L37.6770545,8.23193356" id="Stroke-5" stroke="#FEFEFE" stroke-width="2"></path>
            <polyline id="Stroke-6" stroke="#FEFEFE" stroke-width="2" points="64.2438141 70.3821374 79.3625296 32.9444657 64.1670873 5.44740373"></polyline>
            <polyline id="Stroke-7" stroke="#FEFEFE" stroke-width="2" points="33.8829641 53.6712291 49.3060629 16.2411168 90.739551 21.8567424"></polyline>
            <g id="Group-16">
                <path d="M0,0 C0,0 13.8375796,11.2347788 33.0101966,8.48870115 C52.1823088,5.74262346 38.5118119,23.4684063 38.5118119,23.4684063 C38.5118119,23.4684063 40.5122616,24.8835258 42.1795554,24.2596234 C43.8463445,23.634713 39.4012372,34.7036891 27.6196333,25.0498325 C33.9551479,23.2748856 36.4356449,17.4173593 36.4356449,17.4173593 C36.4356449,17.4173593 24.9240992,33.8716512 9.44042659,17.5181513 C18.3942437,19.9175046 22.9236495,17.8925935 22.9236495,17.8925935 C22.9236495,17.8925935 6.06444685,20.7429909 4.87669561,10.1321145 C11.0870244,13.2531384 17.9015768,14.4329086 23.4233833,13.232476 C23.4233833,13.232476 0.833394519,15.1465159 0,0" id="Stroke-8" fill="#00DBFF"></path>
                <path d="M96.4009297,31.2204188 C98.2045146,30.9054438 100.324598,29.7806052 102.783894,27.3731886 C97.6149296,28.2576383 95.3817755,26.4156648 95.3817755,26.4156648 C95.3817755,26.4156648 104.246246,29.9590071 106.14473,22.5649069 C102.388145,24.2083202 98.5300988,24.425023 95.6578911,23.0754183 C95.6578911,23.0754183 107.760031,26.4766439 109.999748,15.8430893 L87,17 C90.3333333,21 93.4669766,25.7401396 96.4009297,31.2204188 Z" id="Stroke-12" fill="#00DBFF"></path>
                <path d="M69.2664926,23.2116891 C69.2664926,23.2116891 66.1827814,19.1336453 72.4622653,19.1336453 C78.7417491,19.1336453 79.4640917,17.6913119 78.4913774,16.5538744 C77.5191679,15.4164368 71.600603,14.3898704 71.9059959,18.5233498 C72.2118936,22.6563252 77.5469309,23.1003139 80.6589099,22.9617249" id="Stroke-14" stroke="#FEFEFE" stroke-width="2"></path>
            </g>
        </g>
    </g>
</svg>