<?xml version="1.0" encoding="UTF-8"?>
<svg width="54px" height="48px" viewBox="0 0 54 48" version="1.1" xmlns="http://www.w3.org/2000/svg" xmlns:xlink="http://www.w3.org/1999/xlink">
    <title>icon/quote</title>
    <g id="Page-1" stroke="none" stroke-width="1" fill="none" fill-rule="evenodd">
        <g id="lovedones" transform="translate(-631, -2099)" fill="#0BA9C3" fill-rule="nonzero">
            <g id="review" transform="translate(232.534, 2003)">
                <g id="Group-7" transform="translate(0, 6.9985)">
                    <path d="M409.756925,137.001466 C406.272077,137.001466 403.519046,135.73712 401.497834,133.208427 C399.476622,130.679735 398.466016,127.237904 398.466016,122.882933 C398.466016,116.420719 399.894804,110.520437 402.75238,105.182087 C405.609955,99.8437361 410.244804,94.8565928 416.656925,90.2206568 C418.329652,88.9563106 419.653895,88.6753448 420.629652,89.3777593 C421.187228,89.799208 421.466016,90.3962604 421.466016,91.1689164 C421.466016,91.9415724 420.978137,92.6791077 420.00238,93.3815222 C415.262986,97.4555266 412.231167,100.581271 410.906925,102.758756 C409.582683,104.936242 408.920561,107.219089 408.920561,109.607298 C408.920561,112.135991 409.478137,114.067631 410.593289,115.402218 C411.70844,116.736806 412.962986,117.860669 414.356925,118.773808 C415.750864,119.686947 417.00541,120.77569 418.120561,122.040036 C419.235713,123.304382 419.793289,125.200901 419.793289,127.729594 C419.793289,130.258286 418.922077,132.435771 417.179652,134.262049 C415.437228,136.088327 412.962986,137.001466 409.756925,137.001466 Z M440.756925,137.001466 C437.272077,137.001466 434.519046,135.73712 432.497834,133.208427 C430.476622,130.679735 429.466016,127.237904 429.466016,122.882933 C429.466016,116.420719 430.894804,110.520437 433.75238,105.182087 C436.609955,99.8437361 441.244804,94.8565928 447.656925,90.2206568 C449.329652,88.9563106 450.653895,88.6753448 451.629652,89.3777593 C452.187228,89.799208 452.466016,90.3962604 452.466016,91.1689164 C452.466016,91.9415724 451.978137,92.6791077 451.00238,93.3815222 C446.262986,97.4555266 443.231167,100.581271 441.906925,102.758756 C440.582683,104.936242 439.920561,107.219089 439.920561,109.607298 C439.920561,112.135991 440.478137,114.067631 441.593289,115.402218 C442.70844,116.736806 443.962986,117.860669 445.356925,118.773808 C446.750864,119.686947 448.00541,120.77569 449.120561,122.040036 C450.235713,123.304382 450.793289,125.200901 450.793289,127.729594 C450.793289,130.258286 449.922077,132.435771 448.179652,134.262049 C446.437228,136.088327 443.962986,137.001466 440.756925,137.001466 Z" id="icon/quote"></path>
                </g>
            </g>
        </g>
    </g>
</svg>