<?xml version="1.0" encoding="UTF-8"?>
<svg width="160px" height="160px" viewBox="0 0 160 160" version="1.1" xmlns="http://www.w3.org/2000/svg" xmlns:xlink="http://www.w3.org/1999/xlink">
    <title>icon/how-it-works/2</title>
    <g id="icon/how-it-works/2" stroke="none" stroke-width="1" fill="none" fill-rule="evenodd">
        <g id="Group-33" transform="translate(43, 43)">
            <path d="M62.7031524,0 L10.0873788,0 C4.51662087,0 0,4.5159579 0,10.0874751 L0,63.9125249 C0,69.483336 4.51662087,74 10.0873788,74 L63.9119151,74 C69.4833791,74 74,69.483336 74,63.9125249 L74,11.2969554 C74,5.0575057 68.9418365,0 62.7031524,0 Z" id="Stroke-1" stroke="#FEFEFE" stroke-width="2"></path>
            <path d="M26.6113292,30.8140825 C27.6853117,28.988904 29.143824,27.5638907 30.9868661,26.5383344 C32.8299082,25.5127781 34.8492228,25 37.0426775,25 C39.5531382,25 41.7863964,25.6140589 43.7424519,26.8421767 C45.6985074,28.0710028 47.117927,29.8118987 48,32.0648645 L43.3529466,32.0648645 C42.7416793,30.8261229 41.8937235,29.9011391 40.8083686,29.2934545 C39.7223029,28.6843534 38.4677833,28.3798029 37.0426775,28.3798029 C35.4818134,28.3798029 34.0908248,28.7296819 32.8704224,29.4280234 C31.6493093,30.1263649 30.6933156,31.1292569 30.0031521,32.4359913 C29.3136994,33.7441421 28.9689731,35.2647701 28.9689731,36.9992917 C28.9689731,38.7359381 29.3136994,40.2565661 30.0031521,41.5633005 C30.6933156,42.8700348 31.6493093,43.8785929 32.8704224,44.5882665 C34.0908248,45.2979402 35.4818134,45.652777 37.0426775,45.652777 C38.4677833,45.652777 39.7223029,45.3489347 40.8083686,44.7405418 C41.8937235,44.1328572 42.7416793,43.2085817 43.3529466,41.9684235 L48,41.9684235 C47.117927,44.2228059 45.6985074,45.9580358 43.7424519,47.1748215 C41.7863964,48.3908989 39.5531382,49 37.0426775,49 C34.826478,49 32.802188,48.4872219 30.9705182,47.4616656 C29.1388485,46.4368176 27.6853117,45.011096 26.6113292,43.1859175 C25.5366359,41.3607389 25,39.2982943 25,36.9992917 C25,34.7009975 25.5366359,32.6392611 26.6113292,30.8140825" id="Fill-3" fill="#00DBFF"></path>
            <path d="M0,38 L0,11.2448908 C0,5.03419704 5.03419704,0 11.2448908,0 L38,0 L0,38 Z" id="Fill-5" fill="#FEFEFE"></path>
            <g id="Group-20" transform="translate(22, 60)" fill="#FEFEFE">
                <path d="M0.419668101,1.45352113 C0.699938537,0.997183099 1.08051629,0.64084507 1.56140135,0.383802817 C2.04228642,0.128169014 2.56889982,0 3.14124155,0 C3.79618931,0 4.37885679,0.153521127 4.88998156,0.46056338 C5.39963122,0.767605634 5.76988322,1.2028169 6,1.76549296 L4.78746159,1.76549296 C4.62814997,1.45633803 4.40688384,1.22535211 4.12366318,1.07323944 C3.84118009,0.921126761 3.51296865,0.845070423 3.14124155,0.845070423 C2.73484942,0.845070423 2.3712354,0.932394366 2.05261217,1.10704225 C1.73398894,1.28169014 1.48469576,1.53239437 1.30473264,1.85915493 C1.12476951,2.18591549 1.03478795,2.56619718 1.03478795,2.99929577 C1.03478795,3.43380282 1.12476951,3.81408451 1.30473264,4.14014085 C1.48469576,4.46760563 1.73398894,4.71971831 2.05261217,4.8971831 C2.3712354,5.07464789 2.73484942,5.16338028 3.14124155,5.16338028 C3.51296865,5.16338028 3.84118009,5.08732394 4.12366318,4.93450704 C4.40688384,4.78309859 4.62814997,4.55140845 4.78746159,4.24225352 L6,4.24225352 C5.76988322,4.8056338 5.39963122,5.23943662 4.88998156,5.54366197 C4.37885679,5.84788732 3.79618931,6 3.14124155,6 C2.56299939,6 2.03491088,5.87112676 1.55697603,5.61549296 C1.07977873,5.35915493 0.699938537,5.0028169 0.419668101,4.54647887 C0.139397664,4.09014085 0,3.57464789 0,2.99929577 C0,2.42535211 0.139397664,1.90915493 0.419668101,1.45352113" id="Fill-7"></path>
                <path d="M10.4565018,2.62565905 C10.3181037,2.37961336 10.1362721,2.19214997 9.91321555,2.06326889 C9.68942285,1.93438781 9.44796231,1.86994728 9.18809776,1.86994728 C8.92970554,1.86994728 8.68824499,1.93292326 8.4644523,2.05887522 C8.23992344,2.18482718 8.05956419,2.36936145 7.92116608,2.61247803 C7.78276796,2.85559461 7.71283274,3.14411248 7.71283274,3.47803163 C7.71283274,3.81195079 7.78276796,4.10559461 7.92116608,4.35676626 C8.05956419,4.60867018 8.24213192,4.80052724 8.46886926,4.93233743 C8.69487044,5.06414763 8.93559482,5.13005272 9.18809776,5.13005272 C9.44796231,5.13005272 9.68942285,5.06561219 9.91321555,4.93673111 C10.1362721,4.80785003 10.3181037,4.61892209 10.4565018,4.36994728 C10.5941637,4.12097247 10.6640989,3.82952548 10.6640989,3.49560633 C10.6640989,3.16168717 10.5941637,2.87170475 10.4565018,2.62565905 M6.98477032,2.18629174 C7.18795053,1.81136497 7.46474676,1.51991798 7.81515901,1.31195079 C8.16557126,1.1039836 8.55279152,1 8.97681979,1 C9.35962309,1 9.69383981,1.07469244 9.97946996,1.22407733 C10.264364,1.37346221 10.4933098,1.55946104 10.6640989,1.78207381 L10.6640989,1.07908612 L11.68,1.07908612 L11.68,5.92091388 L10.6640989,5.92091388 L10.6640989,5.20035149 C10.4933098,5.4288225 10.259947,5.619215 9.96621908,5.771529 C9.67175501,5.923843 9.33606596,6 8.95915194,6 C8.5402768,6 8.15820966,5.89308729 7.81074205,5.67926186 C7.46327444,5.46543644 7.18795053,5.16666667 6.98477032,4.78295255 C6.78159011,4.39923843 6.68,3.96426479 6.68,3.47803163 C6.68,2.99179848 6.78159011,2.56121851 6.98477032,2.18629174" id="Fill-9"></path>
                <path d="M14.0420789,1.2091085 C14.2991278,1.06995089 14.6058781,1 14.96,1 L14.96,2.05372823 L14.6897491,2.05372823 C14.2735006,2.05372823 13.9582079,2.15493377 13.7430944,2.35660068 C13.5295341,2.55901176 13.421589,2.9102545 13.421589,3.41032892 L13.421589,6 L12.36,6 L12.36,1.07962494 L13.421589,1.07962494 L13.421589,1.79401697 C13.5769056,1.54397976 13.7842533,1.34901027 14.0420789,1.2091085" id="Fill-11"></path>
                <path d="M19.4053046,2.91188251 C19.2673787,2.69025367 19.0837233,2.52202937 18.8565511,2.40654206 C18.629379,2.2917223 18.3859802,2.23431242 18.1270925,2.23431242 C17.8726302,2.23431242 17.6321817,2.29305741 17.4050096,2.41121495 C17.1778374,2.52870494 16.9949196,2.69959947 16.8562561,2.92389853 C16.7175926,3.1481976 16.6482608,3.41255007 16.6482608,3.71695594 C16.6482608,4.02069426 16.7175926,4.2870494 16.8562561,4.51335113 C16.9949196,4.74032043 17.1778374,4.91321762 17.4050096,5.03070761 C17.6321817,5.1481976 17.8726302,5.20694259 18.1270925,5.20694259 C18.3859802,5.20694259 18.629379,5.14686248 18.8565511,5.02670227 C19.0837233,4.9058745 19.2673787,4.73164219 19.4053046,4.50200267 C19.5439681,4.27236315 19.6132999,4.00534045 19.6132999,3.70093458 C19.6132999,3.3965287 19.5439681,3.13351135 19.4053046,2.91188251 M17.3519044,1.64619493 C17.6498835,1.50934579 17.9817908,1.44192256 18.3476265,1.44192256 C18.7783685,1.44192256 19.1678065,1.53471295 19.5159404,1.7222964 C19.8640743,1.90921228 20.1384511,2.17489987 20.3398082,2.51869159 C20.5396902,2.86381842 20.64,3.2576769 20.64,3.70093458 C20.64,4.14419226 20.5396902,4.5400534 20.3398082,4.89052069 C20.1384511,5.23965287 19.8625992,5.51268358 19.5122525,5.70694259 C19.1604307,5.90186916 18.7732055,6 18.3476265,6 C17.9699897,6 17.6358696,5.93257677 17.3430535,5.79906542 C17.0517126,5.66622163 16.8193775,5.49465955 16.6482608,5.2870494 L16.6482608,5.92790387 L15.64,5.92790387 L15.64,0 L16.6482608,0 L16.6482608,2.17089453 C16.8193775,1.95660881 17.0539254,1.7823765 17.3519044,1.64619493" id="Fill-13"></path>
                <path d="M24.5095018,4.94551845 C24.7378529,4.82249561 24.9239442,4.63796134 25.0655516,4.39191564 C25.2079004,4.14586995 25.2790747,3.84710018 25.2790747,3.49633861 C25.2790747,3.14411248 25.210866,2.84680726 25.0744484,2.60369069 C24.9380308,2.36057411 24.7571293,2.17750439 24.5317438,2.05448155 C24.3063582,1.9314587 24.0631791,1.86994728 23.8022064,1.86994728 C23.5412337,1.86994728 23.2995374,1.9314587 23.0771174,2.05448155 C22.8554389,2.17750439 22.6782444,2.36057411 22.547758,2.60369069 C22.4172716,2.84680726 22.3520285,3.14411248 22.3520285,3.49633861 C22.3520285,4.01698887 22.4869632,4.41974224 22.7568327,4.70386643 C23.0267023,4.98872291 23.3662633,5.13005272 23.775516,5.13005272 C24.0364887,5.13005272 24.2811507,5.0685413 24.5095018,4.94551845 M22.5210676,5.68804921 C22.1474021,5.48008202 21.8538078,5.18717047 21.6402847,4.80931459 C21.4267616,4.4314587 21.32,3.99355595 21.32,3.49633861 C21.32,3.00351494 21.4297272,2.56707674 21.6499229,2.18629174 C21.8686358,1.80550674 22.1681613,1.51332748 22.547758,1.30755712 C22.9273547,1.10251904 23.3514353,1 23.82,1 C24.2885647,1 24.7126453,1.10251904 25.092242,1.30755712 C25.4718387,1.51332748 25.7713642,1.80550674 25.9908185,2.18629174 C26.2102728,2.56707674 26.32,3.00351494 26.32,3.49633861 C26.32,3.98769772 26.2073072,4.42413591 25.9819217,4.80492091 C25.7565362,5.18570592 25.4495967,5.48008202 25.0611032,5.68804921 C24.6726097,5.8960164 24.2440807,6 23.775516,6 C23.3128826,6 22.8947331,5.8960164 22.5210676,5.68804921" id="Fill-15"></path>
                <path d="M30.60043,1.24036315 C30.9138416,1.40184551 31.1587895,1.63923203 31.3352737,1.95549933 C31.5117579,2.27102247 31.6,2.65128739 31.6,3.09778241 L31.6,6 L30.5684802,6 L30.5684802,3.24959071 C30.5684802,2.80904897 30.4566562,2.47120107 30.2314867,2.23679119 C30.0055565,2.00089299 29.6982305,1.88331597 29.3087481,1.88331597 C28.9192658,1.88331597 28.6104184,2.00089299 28.3822061,2.23679119 C28.1539937,2.47120107 28.0398875,2.80904897 28.0398875,3.24959071 L28.0398875,6 L27,6 L27,1.07962494 L28.0398875,1.07962494 L28.0398875,1.64220866 C28.2102861,1.44054175 28.4286092,1.28278018 28.6925748,1.16892395 C28.9573011,1.05655604 29.238763,1 29.5377212,1 C29.9325285,1 30.2870184,1.07962494 30.60043,1.24036315" id="Fill-17"></path>
            </g>
            <path d="M10.2140975,11.184739 C9.98945982,11.3801874 9.87747036,11.6626506 9.87747036,12.0321285 C9.87747036,12.4016064 9.98155468,12.6947791 10.1903821,12.9116466 C10.397892,13.1285141 10.6897233,13.2369478 11.0632411,13.2369478 C11.3959157,13.2369478 11.657444,13.1325301 11.8498024,12.9236948 C12.0421607,12.7148594 12.1389987,12.4364123 12.1389987,12.0883534 C12.1389987,11.7242303 12.0447958,11.4337349 11.8577075,11.2168675 C11.671278,11 11.3959157,10.8922356 11.0316206,10.8922356 C10.7108037,10.8922356 10.4380764,10.9892905 10.2140975,11.184739 M11.6725955,8.94779116 C11.5191041,8.82463186 11.3056653,8.76305221 11.0316206,8.76305221 C10.6152833,8.76305221 10.3050066,8.92503347 10.0988142,9.24899598 C9.89393939,9.5729585 9.7859025,10.1104418 9.77536232,10.8594378 C9.91172596,10.6238286 10.1126482,10.4417671 10.3754941,10.313253 C10.6396574,10.184739 10.9235837,10.1204819 11.2299078,10.1204819 C11.5770751,10.1204819 11.884058,10.1967871 12.1501976,10.3493976 C12.416996,10.502008 12.6245059,10.7228916 12.7753623,11.0120482 C12.9249012,11.3012048 13,11.6465863 13,12.0481928 C13,12.4236948 12.9275362,12.7583668 12.7826087,13.0522088 C12.6383399,13.3467202 12.4235837,13.5783133 12.1389987,13.746988 C11.8537549,13.9156627 11.5118577,14 11.1106719,14 C10.5678524,14 10.1429513,13.8781794 9.83465086,13.6345382 C9.5256917,13.3908969 9.30961792,13.0468541 9.18577075,12.6024096 C9.06258235,12.1579652 9,11.6037483 9,10.939759 C9,8.97991968 9.6798419,8 11.0401845,8 C11.5671937,8 11.9822134,8.14457831 12.2852437,8.43373494 C12.588274,8.72289157 12.7654809,9.0789826 12.8181818,9.50200803 L11.9881423,9.50200803 C11.9301713,9.25568942 11.8247694,9.07095047 11.6725955,8.94779116" id="Fill-19" fill="#160948"></path>
            <polygon id="Fill-21" fill="#FEFEFE" points="44 8.85596708 44 8 46 8 46 14 44.8942308 14 44.8942308 8.85596708"></polygon>
            <path d="M47.5994867,12.8145793 C48.1257485,12.3622119 48.5397776,11.990235 48.843627,11.6986488 C49.1481608,11.4077438 49.4013687,11.1032134 49.603935,10.7871012 C49.8065013,10.4716703 49.9071001,10.1555581 49.9071001,9.8394459 C49.9071001,9.51175202 49.829769,9.25559214 49.6730539,9.070285 C49.5177074,8.88497786 49.2720274,8.79300556 48.9380667,8.79300556 C48.6150556,8.79300556 48.3645851,8.89451573 48.1866553,9.0988986 C48.0094098,9.30396276 47.9142857,9.57715454 47.9033362,9.92051777 L47,9.92051777 C47.0164243,9.2998751 47.203935,8.82434427 47.5625321,8.49392529 C47.9218135,8.16486885 48.3775877,8 48.9298546,8 C49.5266039,8 49.9933276,8.16282503 50.3300257,8.48983763 C50.6667237,8.81753151 50.8357571,9.25286704 50.8357571,9.79788804 C50.8357571,10.1903032 50.7351583,10.5677302 50.5353293,10.9301692 C50.3355004,11.2932894 50.0973482,11.6168957 49.8208725,11.9030317 C49.5450813,12.1891677 49.1926433,12.520268 48.7656116,12.8963325 L48.396065,13.2240263 L51,13.2240263 L51,14 L47.0088965,14 L47.0088965,13.3214488 L47.5994867,12.8145793 Z" id="Fill-23" fill="#FEFEFE"></path>
            <path d="M52.1448276,13.8561644 C52.0482759,13.760274 52,13.6415525 52,13.5 C52,13.3584475 52.0482759,13.239726 52.1448276,13.1438356 C52.2413793,13.0479452 52.3609195,13 52.5034483,13 C52.6413793,13 52.7586207,13.0479452 52.8551724,13.1438356 C52.9517241,13.239726 53,13.3584475 53,13.5 C53,13.6415525 52.9517241,13.760274 52.8551724,13.8561644 C52.7586207,13.9520548 52.6413793,14 52.5034483,14 C52.3609195,14 52.2413793,13.9520548 52.1448276,13.8561644" id="Fill-25" fill="#FEFEFE"></path>
            <path d="M57.0578433,9.87318392 C57.0040058,9.57044712 56.8950489,9.32312197 56.7309726,9.13053272 C56.5662554,8.93929497 56.3233456,8.84333821 56.0003205,8.84333821 C55.6772953,8.84333821 55.4337446,8.93929497 55.2696683,9.13053272 C55.1055921,9.32312197 54.9966352,9.57044712 54.9427976,9.87318392 C54.8889601,10.1759207 54.8620413,10.5462327 54.8620413,10.9841198 C54.8620413,11.4375493 54.8870373,11.819349 54.9383112,12.1274918 C54.989585,12.4356346 55.0985419,12.6843113 55.2658228,12.872846 C55.4324627,13.0627323 55.6772953,13.1566618 56.0003205,13.1566618 C56.3233456,13.1566618 56.5675373,13.0627323 56.7348181,12.872846 C56.9014581,12.6843113 57.010415,12.4356346 57.0616888,12.1274918 C57.1129627,11.819349 57.1385996,11.4375493 57.1385996,10.9841198 C57.1385996,10.5462327 57.1116808,10.1759207 57.0578433,9.87318392 M54.4505688,8.78995382 C54.7498798,8.26354319 55.2671046,8 56.0003205,8 C56.7335363,8 57.2501202,8.26354319 57.5500721,8.78995382 C57.8493831,9.31771596 58,10.0488794 58,10.9841198 C58,11.9301723 57.8493831,12.6694448 57.5500721,13.2019372 C57.2501202,13.7344296 56.7335363,14 56.0003205,14 C55.2671046,14 54.7498798,13.7344296 54.4505688,13.2019372 C54.1506169,12.6694448 54,11.9301723 54,10.9841198 C54,10.0488794 54.1506169,9.31771596 54.4505688,8.78995382" id="Fill-27" fill="#FEFEFE"></path>
            <polygon id="Fill-29" fill="#FEFEFE" points="59 8.85596708 59 8 61 8 61 14 59.8942308 14 59.8942308 8.85596708"></polygon>
            <polygon id="Fill-31" fill="#FEFEFE" points="62 8.85596708 62 8 64 8 64 14 62.8942308 14 62.8942308 8.85596708"></polygon>
        </g>
    </g>
</svg>