<?xml version="1.0" encoding="UTF-8"?>
<svg width="160px" height="160px" viewBox="0 0 160 160" version="1.1" xmlns="http://www.w3.org/2000/svg" xmlns:xlink="http://www.w3.org/1999/xlink">
    <title>icon/how-it-works/5</title>
    <g id="icon/how-it-works/5" stroke="none" stroke-width="1" fill="none" fill-rule="evenodd">
        <g id="Group-58" transform="translate(32, 44)" stroke-width="2">
            <g id="Group-57">
                <g id="Group-2" stroke="#00DBFF">
                    <path d="M21.7696558,13.6793725 L10.884941,0.225381934 L0.000226274627,13.6793725 L32.6543705,51.906455 C37.3492281,46.5468917 40.7977713,42.5780733 43,40 M59.5257279,20.449082 L65.3085147,13.6793725 L54.4238,0.225381934 L43.5390853,13.6793725" id="Shape"></path>
                    <polyline id="Stroke-3" points="43.5391305 13.6793725 32.6544158 0.225381934 21.769701 13.6793725"></polyline>
                    <line x1="10.8848505" y1="0.225246786" x2="54.4237095" y2="0.225246786" id="Stroke-5"></line>
                    <line x1="65.308741" y1="13.6793725" x2="0" y2="13.6793725" id="Stroke-7"></line>
                    <line x1="21.7696558" y1="13.6793725" x2="32.6543705" y2="51.906455" id="Stroke-10"></line>
                    <line x1="43.5391305" y1="13.6793725" x2="32.6544158" y2="51.906455" id="Stroke-11"></line>
                </g>
                <g id="Group-4" transform="translate(44.2763, 21.6503)" stroke="#FEFEFE">
                    <polygon id="Stroke-12" points="4.52277728 45.8476318 1.65904558 39.9425621 0 25.1744818 1.65904558 10.4073025 4.52277728 4.50223276 10.4547929 1.65150944 25.2898102 0.000450493572 40.1248274 1.65150944 46.056843 4.50223276 48.9205747 10.4073025 50.5791678 25.1744818 48.9205747 39.9425621 46.056843 45.8476318 40.1248274 48.6983551 25.2898102 50.3494141 10.4547929 48.6983551"></polygon>
                    <polyline id="Stroke-14" points="4.52277728 45.8476318 25.2898102 39.0226542 46.056843 45.8476318"></polyline>
                    <line x1="13.6997069" y1="42.8314422" x2="25.2899459" y2="50.3492789" id="Stroke-15"></line>
                    <line x1="13.6997069" y1="42.8314422" x2="9.74306873" y2="48.3562954" id="Stroke-17"></line>
                    <line x1="36.8798229" y1="42.8314422" x2="25.2900364" y2="50.3492789" id="Stroke-18"></line>
                    <line x1="36.8798229" y1="42.8314422" x2="40.8364611" y2="48.3562954" id="Stroke-20"></line>
                    <polyline id="Stroke-21" points="25.2899007 39.022474 13.6969463 36.5789969 7.60608588 36.5789969 4.52286779 45.8474516"></polyline>
                    <polyline id="Stroke-22" points="25.2899007 39.022474 36.8824025 36.5789969 42.9737155 36.5789969 46.0569336 45.8474516"></polyline>
                    <line x1="13.6970821" y1="36.579087" x2="13.6997974" y2="42.8314872" id="Stroke-23"></line>
                    <line x1="36.8815879" y1="36.579087" x2="36.8788726" y2="42.8314872" id="Stroke-24"></line>
                    <line x1="7.60599537" y1="36.579087" x2="1.94007867" y2="40.5218067" id="Stroke-25"></line>
                    <line x1="42.9742133" y1="36.579087" x2="48.6405825" y2="40.5218067" id="Stroke-26"></line>
                    <polyline id="Stroke-27" points="46.0565263 4.49326794 25.2922087 11.3272554 4.5224605 4.51083719"></polyline>
                    <line x1="36.880728" y1="7.5129714" x2="25.2873211" y2="9.00987143e-05" id="Stroke-28"></line>
                    <line x1="36.880728" y1="7.5129714" x2="40.8351034" y2="1.98676675" id="Stroke-29"></line>
                    <line x1="13.700612" y1="7.5231075" x2="25.2876832" y2="0.0003153455" id="Stroke-30"></line>
                    <line x1="13.700612" y1="7.5231075" x2="9.74171108" y2="2.00005631" id="Stroke-31"></line>
                    <polyline id="Stroke-32" points="25.2922992 11.3272104 36.8861586 13.7657321 42.9774716 13.7630291 46.0566168 4.49322289"></polyline>
                    <polyline id="Stroke-33" points="25.2922992 11.3272104 13.7007025 13.7756429 7.60938949 13.7778954 4.52209846 4.51079214"></polyline>
                    <line x1="36.8862491" y1="13.7657771" x2="36.8808185" y2="7.51292635" id="Stroke-34"></line>
                    <line x1="13.7016981" y1="13.7754627" x2="13.7016981" y2="7.52306246" id="Stroke-35"></line>
                    <line x1="42.9772906" y1="13.7631643" x2="48.6413971" y2="9.81774156" id="Stroke-36"></line>
                    <line x1="7.60884643" y1="13.7781207" x2="1.94111953" y2="9.83765338" id="Stroke-37"></line>
                    <line x1="25.2899007" y1="39.022474" x2="25.2899007" y2="50.3496844" id="Stroke-38"></line>
                    <line x1="7.55739158" y1="13.6359899" x2="0.000271529554" y2="25.1704273" id="Stroke-40"></line>
                    <line x1="7.54766177" y1="36.7110365" x2="4.52549266e-05" y2="25.1702922" id="Stroke-41"></line>
                    <line x1="11.3788533" y1="25.1750674" x2="13.8384585" y2="13.6361251" id="Stroke-42"></line>
                    <line x1="11.3788533" y1="25.1750674" x2="13.8285024" y2="36.7162623" id="Stroke-43"></line>
                    <polyline id="Stroke-44" points="0.000135764778 25.1702472 11.3790343 25.1752026 7.60929898 13.7781657"></polyline>
                    <line x1="25.2922992" y1="11.3272104" x2="25.2922992" y2="0" id="Stroke-45"></line>
                    <line x1="11.3788533" y1="25.1750674" x2="7.54757126" y2="36.7108563" id="Stroke-46"></line>
                    <line x1="43.1611614" y1="36.7159019" x2="50.7232595" y2="25.1846179" id="Stroke-47"></line>
                    <line x1="43.1810283" y1="13.6413058" x2="50.7236668" y2="25.184753" id="Stroke-49"></line>
                    <line x1="39.3447682" y1="25.1755179" x2="36.880185" y2="36.7131088" id="Stroke-52"></line>
                    <line x1="39.3447682" y1="25.1755179" x2="36.9000971" y2="13.6334221" id="Stroke-53"></line>
                    <polyline id="Stroke-54" points="50.7234405 25.184753 39.3445419 25.1752927 43.1092992 36.573681"></polyline>
                    <line x1="39.3447682" y1="25.1755179" x2="43.1810283" y2="13.6410805" id="Stroke-56"></line>
                </g>
            </g>
        </g>
    </g>
</svg>