<?xml version="1.0" encoding="UTF-8"?>
<svg width="160px" height="160px" viewBox="0 0 160 160" version="1.1" xmlns="http://www.w3.org/2000/svg" xmlns:xlink="http://www.w3.org/1999/xlink">
    <title>icon/how-it-works/7</title>
    <g id="icon/how-it-works/7" stroke="none" stroke-width="1" fill="none" fill-rule="evenodd">
        <g id="Group-24" transform="translate(35, 40)" stroke-width="2">
            <g id="Group-23">
                <path d="M89,63.9284098 C89,63.9284098 73.7746928,59.1002075 62.8479531,69.4150864 C51.9206062,79.7293556 37.0079773,82.7558988 19.7226364,77.3887231 C11.8407152,74.9407837 4.18707954,72.3550525 0.949796859,70.3290244 C-0.569880288,69.3778948 -0.197702065,66.6330322 4.55318634,66.6818081 C8.82018233,66.7250967 15.9978185,68.6432081 29.0125205,71.3996549" id="Stroke-1" stroke="#FEFEFE"></path>
                <path d="M6.40824888,66.7553987 C6.40824888,66.7553987 -2.25445728,64.870211 0.56389722,62.3923964 C3.080502,60.1791909 11.6478868,60.8486399 30.636869,68.3912197" id="Stroke-3" stroke="#FEFEFE"></path>
                <path d="M7.79684401,61.4884574 C2.83467009,60.5361084 4.30091872,55.4426873 12.5325539,57.7107657 C20.764189,59.9776246 34.2360692,64.993614 34.2360692,64.993614" id="Stroke-5" stroke="#FEFEFE"></path>
                <path d="M14.6280447,58.3125381 C12.1770113,57.1339909 9.85408494,49.6255541 38.6957722,61.7969649" id="Stroke-7" stroke="#FEFEFE"></path>
                <path d="M56.6560732,63.2151235 C56.6560732,63.2151235 48.3115096,65.428329 37.7156624,72.5782631 C27.1198152,79.7294165 26.8466011,72.9623731 31.4869896,67.54947 C35.3514503,63.0419692 44.9643342,58.7765186 46.8580109,54.7500698 C48.7516877,50.7242308 54.1789327,38.6168384 64.5598515,40.37277 C74.9407703,42.1287016 80.6952649,45.2009723 88.9997571,45.2009723" id="Stroke-9" stroke="#FEFEFE"></path>
                <g id="Group-21" transform="translate(5.9033, 0)" stroke="#00DBFF">
                    <polyline id="Stroke-11" points="19.2925533 12.332676 9.64627667 0.30454439 0 12.332676 28.93883 46.5081048 57.8770529 12.332676 48.2307762 0.30454439 38.5844995 12.332676"></polyline>
                    <polyline id="Stroke-13" points="38.5847424 12.332676 28.9384657 0.30454439 19.2927962 12.332676"></polyline>
                    <line x1="9.64615524" y1="0.30484924" x2="48.2306548" y2="0.30484924" id="Stroke-15"></line>
                    <line x1="57.877235" y1="12.332676" x2="0.000182142687" y2="12.332676" id="Stroke-17"></line>
                    <line x1="19.2925533" y1="12.332676" x2="28.93883" y2="46.5081048" id="Stroke-19"></line>
                    <line x1="38.5847424" y1="12.332676" x2="28.9384657" y2="46.5081048" id="Stroke-21"></line>
                </g>
            </g>
        </g>
    </g>
</svg>